<?xml version="1.0" encoding="UTF-8" standalone="no"?>
<svg
   xmlns:dc="http://purl.org/dc/elements/1.1/"
   xmlns:cc="http://creativecommons.org/ns#"
   xmlns:rdf="http://www.w3.org/1999/02/22-rdf-syntax-ns#"
   xmlns:svg="http://www.w3.org/2000/svg"
   xmlns="http://www.w3.org/2000/svg"
   xmlns:sodipodi="http://sodipodi.sourceforge.net/DTD/sodipodi-0.dtd"
   xmlns:inkscape="http://www.inkscape.org/namespaces/inkscape"
   width="82.419273mm"
   height="99.301102mm"
   viewBox="0 0 82.419274 99.301102"
   version="1.1"
   id="svg2984"
   inkscape:version="1.0beta1 (8df47c5cf8, 2019-11-27)"
   sodipodi:docname="kaart-borders.svg"
   inkscape:export-filename="/home/f0x/bitmap.png"
   inkscape:export-xdpi="934.57831"
   inkscape:export-ydpi="934.57831">
  <defs
     id="defs2978">
    <clipPath
       id="clipPath14585"
       clipPathUnits="userSpaceOnUse">
      <rect
         y="6.0063066e-14"
         x="0"
         height="881"
         width="743"
         id="rect14587"
         style="fill:none;stroke:none" />
    </clipPath>
    <clipPath
       id="clipPath14581"
       clipPathUnits="userSpaceOnUse">
      <rect
         y="6.0063066e-14"
         x="0"
         height="881"
         width="743"
         id="rect14583"
         style="fill:none;stroke:none" />
    </clipPath>
    <clipPath
       id="clipPath14577"
       clipPathUnits="userSpaceOnUse">
      <rect
         y="6.0063066e-14"
         x="0"
         height="881"
         width="743"
         id="rect14579"
         style="fill:none;stroke:none" />
    </clipPath>
    <clipPath
       id="clipPath14573"
       clipPathUnits="userSpaceOnUse">
      <rect
         y="6.0063066e-14"
         x="0"
         height="881"
         width="743"
         id="rect14575"
         style="fill:none;stroke:none" />
    </clipPath>
    <clipPath
       id="clipPath14569"
       clipPathUnits="userSpaceOnUse">
      <rect
         y="6.0063066e-14"
         x="0"
         height="881"
         width="743"
         id="rect14571"
         style="fill:none;stroke:none" />
    </clipPath>
    <clipPath
       id="clipPath14565"
       clipPathUnits="userSpaceOnUse">
      <rect
         y="6.0063066e-14"
         x="0"
         height="881"
         width="743"
         id="rect14567"
         style="fill:none;stroke:none" />
    </clipPath>
    <clipPath
       id="clipPath14561"
       clipPathUnits="userSpaceOnUse">
      <rect
         y="6.0063066e-14"
         x="0"
         height="881"
         width="743"
         id="rect14563"
         style="fill:none;stroke:none" />
    </clipPath>
    <clipPath
       id="clipPath14557"
       clipPathUnits="userSpaceOnUse">
      <rect
         y="6.0063066e-14"
         x="0"
         height="881"
         width="743"
         id="rect14559"
         style="fill:none;stroke:none" />
    </clipPath>
    <clipPath
       id="clipPath14549"
       clipPathUnits="userSpaceOnUse">
      <rect
         y="6.0063066e-14"
         x="0"
         height="881"
         width="743"
         id="rect14551"
         style="fill:none;stroke:none" />
    </clipPath>
    <clipPath
       id="clipPath14545"
       clipPathUnits="userSpaceOnUse">
      <rect
         y="6.0063066e-14"
         x="0"
         height="881"
         width="743"
         id="rect14547"
         style="fill:none;stroke:none" />
    </clipPath>
    <clipPath
       id="clipPath14541"
       clipPathUnits="userSpaceOnUse">
      <rect
         y="6.0063066e-14"
         x="0"
         height="881"
         width="743"
         id="rect14543"
         style="fill:none;stroke:none" />
    </clipPath>
    <clipPath
       id="clipPath14537"
       clipPathUnits="userSpaceOnUse">
      <rect
         y="6.0063066e-14"
         x="0"
         height="881"
         width="743"
         id="rect14539"
         style="fill:none;stroke:none" />
    </clipPath>
    <clipPath
       id="clipPath14533"
       clipPathUnits="userSpaceOnUse">
      <rect
         y="6.0063066e-14"
         x="0"
         height="881"
         width="743"
         id="rect14535"
         style="fill:none;stroke:none" />
    </clipPath>
    <clipPath
       id="clipPath14525"
       clipPathUnits="userSpaceOnUse">
      <rect
         y="6.0063066e-14"
         x="0"
         height="881"
         width="743"
         id="rect14527"
         style="fill:none;stroke:none" />
    </clipPath>
    <clipPath
       id="clipPath14521"
       clipPathUnits="userSpaceOnUse">
      <rect
         y="6.0063066e-14"
         x="0"
         height="881"
         width="743"
         id="rect14523"
         style="fill:none;stroke:none" />
    </clipPath>
    <clipPath
       id="clipPath14517"
       clipPathUnits="userSpaceOnUse">
      <rect
         y="6.0063066e-14"
         x="0"
         height="881"
         width="743"
         id="rect14519"
         style="fill:none;stroke:none" />
    </clipPath>
    <clipPath
       id="clipPath14513"
       clipPathUnits="userSpaceOnUse">
      <rect
         y="6.0063066e-14"
         x="0"
         height="881"
         width="743"
         id="rect14515"
         style="fill:none;stroke:none" />
    </clipPath>
    <clipPath
       id="clipPath14509"
       clipPathUnits="userSpaceOnUse">
      <rect
         y="6.0063066e-14"
         x="0"
         height="881"
         width="743"
         id="rect14511"
         style="fill:none;stroke:none" />
    </clipPath>
    <clipPath
       id="clipPath14505"
       clipPathUnits="userSpaceOnUse">
      <rect
         y="6.0063066e-14"
         x="0"
         height="881"
         width="743"
         id="rect14507"
         style="fill:none;stroke:none" />
    </clipPath>
    <clipPath
       id="clipPath14501"
       clipPathUnits="userSpaceOnUse">
      <rect
         y="6.0063066e-14"
         x="0"
         height="881"
         width="743"
         id="rect14503"
         style="fill:none;stroke:none" />
    </clipPath>
    <clipPath
       id="clipPath14497"
       clipPathUnits="userSpaceOnUse">
      <rect
         y="6.0063066e-14"
         x="0"
         height="881"
         width="743"
         id="rect14499"
         style="fill:none;stroke:none" />
    </clipPath>
    <clipPath
       id="clipPath14493"
       clipPathUnits="userSpaceOnUse">
      <rect
         y="6.0063066e-14"
         x="0"
         height="881"
         width="743"
         id="rect14495"
         style="fill:none;stroke:none" />
    </clipPath>
    <clipPath
       id="clipPath14489"
       clipPathUnits="userSpaceOnUse">
      <rect
         y="6.0063066e-14"
         x="0"
         height="881"
         width="743"
         id="rect14491"
         style="fill:none;stroke:none" />
    </clipPath>
    <clipPath
       id="clipPath14485"
       clipPathUnits="userSpaceOnUse">
      <rect
         y="6.0063066e-14"
         x="0"
         height="881"
         width="743"
         id="rect14487"
         style="fill:none;stroke:none" />
    </clipPath>
    <clipPath
       id="clipPath14481"
       clipPathUnits="userSpaceOnUse">
      <rect
         y="6.0063066e-14"
         x="0"
         height="881"
         width="743"
         id="rect14483"
         style="fill:none;stroke:none" />
    </clipPath>
    <clipPath
       id="clipPath14477"
       clipPathUnits="userSpaceOnUse">
      <rect
         y="6.0063066e-14"
         x="0"
         height="881"
         width="743"
         id="rect14479"
         style="fill:none;stroke:none" />
    </clipPath>
    <clipPath
       id="clipPath14473"
       clipPathUnits="userSpaceOnUse">
      <rect
         y="6.0063066e-14"
         x="0"
         height="881"
         width="743"
         id="rect14475"
         style="fill:none;stroke:none" />
    </clipPath>
    <clipPath
       id="clipPath13969"
       clipPathUnits="userSpaceOnUse">
      <rect
         y="6.0063066e-14"
         x="0"
         height="881"
         width="743"
         id="rect13971"
         style="fill:none;stroke:none" />
    </clipPath>
    <clipPath
       id="clipPath13965"
       clipPathUnits="userSpaceOnUse">
      <rect
         y="6.0063066e-14"
         x="0"
         height="881"
         width="743"
         id="rect13967"
         style="fill:none;stroke:none" />
    </clipPath>
    <clipPath
       id="clipPath13961"
       clipPathUnits="userSpaceOnUse">
      <rect
         y="6.0063066e-14"
         x="0"
         height="881"
         width="743"
         id="rect13963"
         style="fill:none;stroke:none" />
    </clipPath>
    <clipPath
       id="clipPath13957"
       clipPathUnits="userSpaceOnUse">
      <rect
         y="6.0063066e-14"
         x="0"
         height="881"
         width="743"
         id="rect13959"
         style="fill:none;stroke:none" />
    </clipPath>
    <clipPath
       id="clipPath13953"
       clipPathUnits="userSpaceOnUse">
      <rect
         y="6.0063066e-14"
         x="0"
         height="881"
         width="743"
         id="rect13955"
         style="fill:none;stroke:none" />
    </clipPath>
    <clipPath
       id="clipPath13949"
       clipPathUnits="userSpaceOnUse">
      <rect
         y="6.0063066e-14"
         x="0"
         height="881"
         width="743"
         id="rect13951"
         style="fill:none;stroke:none" />
    </clipPath>
    <clipPath
       id="clipPath13941"
       clipPathUnits="userSpaceOnUse">
      <rect
         y="6.0063066e-14"
         x="0"
         height="881"
         width="743"
         id="rect13943"
         style="fill:none;stroke:none" />
    </clipPath>
    <clipPath
       id="clipPath13937"
       clipPathUnits="userSpaceOnUse">
      <rect
         y="6.0063066e-14"
         x="0"
         height="881"
         width="743"
         id="rect13939"
         style="fill:none;stroke:none" />
    </clipPath>
    <clipPath
       id="clipPath13933"
       clipPathUnits="userSpaceOnUse">
      <rect
         y="6.0063066e-14"
         x="0"
         height="881"
         width="743"
         id="rect13935"
         style="fill:none;stroke:none" />
    </clipPath>
    <clipPath
       id="clipPath13929"
       clipPathUnits="userSpaceOnUse">
      <rect
         y="6.0063066e-14"
         x="0"
         height="881"
         width="743"
         id="rect13931"
         style="fill:none;stroke:none" />
    </clipPath>
    <clipPath
       id="clipPath13925"
       clipPathUnits="userSpaceOnUse">
      <rect
         y="6.0063066e-14"
         x="0"
         height="881"
         width="743"
         id="rect13927"
         style="fill:none;stroke:none" />
    </clipPath>
    <clipPath
       id="clipPath13921"
       clipPathUnits="userSpaceOnUse">
      <rect
         y="6.0063066e-14"
         x="0"
         height="881"
         width="743"
         id="rect13923"
         style="fill:none;stroke:none" />
    </clipPath>
    <clipPath
       id="clipPath13917"
       clipPathUnits="userSpaceOnUse">
      <rect
         y="6.0063066e-14"
         x="0"
         height="881"
         width="743"
         id="rect13919"
         style="fill:none;stroke:none" />
    </clipPath>
    <clipPath
       id="clipPath13913"
       clipPathUnits="userSpaceOnUse">
      <rect
         y="6.0063066e-14"
         x="0"
         height="881"
         width="743"
         id="rect13915"
         style="fill:none;stroke:none" />
    </clipPath>
  </defs>
  <sodipodi:namedview
     id="base"
     pagecolor="#ffffff"
     bordercolor="#666666"
     borderopacity="1.0"
     inkscape:pageopacity="0.0"
     inkscape:pageshadow="2"
     inkscape:zoom="2.1369065"
     inkscape:cx="72.349256"
     inkscape:cy="181.82537"
     inkscape:document-units="mm"
     inkscape:current-layer="layer1"
     inkscape:document-rotation="0"
     showgrid="false"
     fit-margin-top="0"
     fit-margin-left="0"
     fit-margin-right="0"
     fit-margin-bottom="0"
     inkscape:window-width="1906"
     inkscape:window-height="1034"
     inkscape:window-x="5"
     inkscape:window-y="37"
     inkscape:window-maximized="1" />
  <metadata
     id="metadata2981">
    <rdf:RDF>
      <cc:Work
         rdf:about="">
        <dc:format>image/svg+xml</dc:format>
        <dc:type
           rdf:resource="http://purl.org/dc/dcmitype/StillImage" />
        <dc:title></dc:title>
      </cc:Work>
    </rdf:RDF>
  </metadata>
  <g
     inkscape:label="Layer 1"
     inkscape:groupmode="layer"
     id="layer1"
     transform="translate(-120.20372,-43.321176)">
    <rect
       style="fill:#ffffff;fill-opacity:1;stroke:#000000;stroke-width:0.105;stroke-miterlimit:4;stroke-dasharray:none;stroke-opacity:1"
       id="rect3897"
       width="82.31427"
       height="99.196098"
       x="120.25622"
       y="43.373676"
       inkscape:export-filename="/home/f0x/rect3897.png"
       inkscape:export-xdpi="934.57831"
       inkscape:export-ydpi="934.57831"
       ry="13.093317" />
    <g
       transform="matrix(0.10455618,0,0,0.10455618,121.60843,48.073126)"
       style="display:inline;fill:none;stroke:#000000;stroke-width:1.00424;stroke-miterlimit:4;stroke-dasharray:none;stroke-opacity:1"
       id="layer3"
       inkscape:export-filename="/home/f0x/layer3.png"
       inkscape:export-xdpi="934.57831"
       inkscape:export-ydpi="934.57831">
      <path
         inkscape:connector-curvature="0"
         clip-path="url(#clipPath14585)"
         id="path4890"
         d="M 506.84404,798.67257 509.36942,791.85404 501.54074,779.47967 510.63211,770.89337 517.1981,779.73221 C 517.1981,779.73221 521.23871,774.68144 521.74379,772.4086 522.24887,770.13576 521.49125,768.62053 523.7641,767.61038 526.03694,766.60022 532.85547,764.57992 534.62324,762.05454 536.391,759.52916 535.38085,759.02408 537.90623,755.74108 540.43161,752.45809 559.11943,745.38702 559.62451,743.87179 560.12959,742.35656 556.08898,742.10402 556.34151,739.57864 556.59405,737.05326 561.89735,737.05326 561.64482,734.52788 561.39228,732.0025 559.37197,732.0025 558.10928,732.0025 556.84659,732.0025 546.49253,738.56849 543.71461,738.31595 540.93669,738.06341 536.89608,724.93143 536.89608,724.93143 L 541.94684,723.66874 538.91638,720.13321 C 538.91638,720.13321 543.71461,716.85021 546.74507,712.05199 549.77552,707.25376 553.81613,694.12178 556.08898,692.60655 558.36182,691.09132 563.16004,690.33371 563.16004,690.33371 L 561.89735,688.06086 570.23111,679.47457 567.70573,675.43396 569.4735,669.1205 566.69558,668.36289 568.21081,663.8172 565.43289,631.9974 547.50268,610.27912 542.70446,606.99612 543.20953,601.44028 C 543.20953,601.44028 545.48238,600.43013 545.73491,599.16744 545.98745,597.90475 545.48238,590.3286 543.71461,589.82353 541.94684,589.31845 532.60293,588.56084 531.59278,586.28799 530.58263,584.01515 530.83516,582.24738 530.83516,582.24738 L 532.60293,580.47962 529.0674,575.68139 532.85547,572.90347 C 532.85547,572.90347 530.33009,569.62048 527.55217,568.86286 524.77425,568.10525 515.43034,566.84256 515.43034,566.84256 L 515.1778,564.31718 C 515.1778,564.31718 508.10673,564.82225 506.33896,562.29687 504.5712,559.77149 503.30851,554.72073 503.30851,554.72073 H 498.76282 L 499.2679,563.05449 504.31866,571.38824 514.42018,574.92378 516.44049,580.22708 514.67272,587.55069 521.74379,595.88444 527.55217,601.18774 535.88593,620.1281 C 535.88593,620.1281 532.35039,622.90602 529.57247,622.90602 526.79455,622.90602 526.03694,619.62303 524.26917,618.86541 522.5014,618.1078 518.20826,617.35019 514.92526,618.61288 511.64226,619.87557 509.8745,622.90602 507.60165,622.40095 505.32881,621.89587 500.02551,617.60272 498.25774,617.60272 496.48998,617.60272 494.21713,618.61288 494.21713,618.61288 L 495.73236,635.78547 C 495.73236,635.78547 497.50013,636.79562 499.2679,640.33116 501.03566,643.86669 501.2882,656.24106 501.2882,656.24106 501.2882,656.24106 501.79328,655.98852 504.5712,659.27152 507.34912,662.55451 513.41003,674.67634 513.41003,674.67634 513.41003,674.67634 504.31866,682.75756 501.54074,684.52533 498.76282,686.2931 466.69048,693.11163 463.40748,694.12178 460.12448,695.13193 454.06357,706.49615 452.80088,709.52661 451.53819,712.55706 452.54834,720.89082 452.54834,720.89082 L 442.95189,722.91113 C 442.95189,722.91113 444.71966,725.68905 449.26535,727.96189 453.81103,730.23473 456.33641,729.22458 459.36687,731.49742 462.39733,733.77027 459.87195,733.77027 462.64987,735.2855 465.42779,736.80072 465.93286,735.2855 469.4684,736.29565 473.00393,737.3058 471.23616,738.06341 473.76154,738.06341 476.28693,738.06341 481.59023,736.54819 481.59023,736.54819 481.59023,736.54819 481.08515,741.85149 482.0953,743.36672 483.10546,744.88194 484.36815,746.14464 484.36815,746.14464 484.36815,746.14464 487.3986,743.11418 491.43921,742.86164 495.47982,742.6091 494.72221,747.65986 494.72221,747.65986 L 487.90368,751.95301 487.65114,755.99362 493.9646,757.76139 490.17652,761.29692 486.13591,763.06469 485.88337,767.1053 488.15622,770.13576 485.63084,772.15606 482.34784,771.65099 479.82246,776.95429 481.08515,785.28805 479.56992,793.87434 471.4887,800.1878 476.03439,808.01648 472.7514,815.08754 467.95317,819.06501 465.42778,824.30518 C 465.42778,824.30518 460.12448,828.21953 459.11433,829.73476 458.10418,831.24999 456.58895,840.34136 459.36687,842.6142 462.14479,844.88705 459.87195,845.64466 464.1651,846.90735 468.45824,848.17004 468.20571,848.17004 468.20571,848.17004 L 469.72093,857.26142 466.1854,865.59517 C 466.1854,865.59517 471.23616,863.32233 474.26662,862.56472 477.29708,861.8071 478.05469,863.82741 478.05469,863.82741 478.05469,863.82741 479.56992,855.74619 482.85292,855.74619 486.13591,855.74619 484.62068,861.04949 484.62068,861.04949 L 492.19683,865.59517 C 492.19683,865.59517 496.48998,861.8071 497.75267,861.55456 499.01536,861.30203 500.27805,864.33248 500.27805,864.33248 L 505.32881,860.03933 505.83389,863.82741 C 505.83389,863.82741 507.85419,863.06979 509.36942,863.32233 510.88465,863.57487 513.41003,867.1104 513.41003,867.1104 513.41003,867.1104 516.94557,863.82741 519.47095,863.06979 521.99633,862.31218 527.55217,866.85786 529.82501,866.35279 532.09785,865.84771 535.38085,862.81725 533.61308,860.54441 531.84532,858.27157 520.98618,852.21065 520.98618,852.21065 L 524.52171,848.67512 C 524.52171,848.67512 527.80471,851.70558 530.58263,849.68527 533.36054,847.66497 531.59278,836.80583 533.86562,836.04821 536.13846,835.2906 538.91638,837.05836 541.18923,835.54314 543.46207,834.02791 544.47222,831.50253 544.47222,829.22968 544.47222,826.95684 541.6943,824.93653 541.94684,822.66369 542.19938,820.39085 546.74507,815.84516 546.74507,815.84516 L 541.6943,813.31978 537.14862,812.56216 534.3707,810.28932 H 529.0674 C 529.0674,810.28932 531.0877,806.75379 531.34024,803.97587 531.59278,801.19795 530.33009,796.9048 530.33009,796.9048 L 518.20826,794.37942 Z"
         style="fill:none;fill-opacity:1;stroke:#000000;stroke-width:1.00424;stroke-linecap:butt;stroke-linejoin:miter;stroke-miterlimit:4;stroke-dasharray:none;stroke-opacity:1" />
    </g>
    <g
       transform="matrix(0.10455618,0,0,0.10455618,121.60843,48.073126)"
       style="display:inline;fill:none;stroke:#000000;stroke-width:1.00424;stroke-miterlimit:4;stroke-dasharray:none;stroke-opacity:1"
       id="layer4"
       inkscape:export-filename="/home/f0x/layer3.png"
       inkscape:export-xdpi="934.57831"
       inkscape:export-ydpi="934.57831">
      <path
         clip-path="url(#clipPath14581)"
         id="path4893"
         d="M 18.435284,675.30769 C 18.435284,675.30769 35.986684,668.36289 40.532371,666.34258 45.078057,664.32228 51.012704,664.19601 53.411816,664.82735 55.810928,665.4587 60.861691,670.13066 64.144687,671.51962 67.427683,672.90858 71.215755,671.89842 75.130096,673.66619 79.044437,675.43396 96.469568,687.55579 96.469568,687.55579 96.469568,687.55579 97.60599,683.26264 98.616142,683.13637 99.626295,683.0101 99.626295,682.75756 101.6466,683.76772 103.66691,684.77787 113.01082,688.94475 113.01082,688.94475 113.01082,688.94475 121.34457,681.49487 125.51145,679.85337 129.67833,678.21188 129.93087,679.72711 131.31983,678.96949 132.70879,678.21188 134.7291,666.34258 134.7291,666.34258 134.7291,666.34258 136.49686,665.07989 139.14851,665.20616 141.80016,665.33243 144.07301,665.83751 144.95689,668.61543 145.84077,671.39335 146.34585,673.41365 148.11362,675.30769 149.88138,677.20172 155.81603,677.45426 158.08887,679.22203 160.36172,680.9898 164.65487,686.16683 166.5489,685.40921 168.44294,684.6516 162.76083,679.3483 164.9074,678.96949 167.05398,678.59068 170.96832,684.02025 172.48355,682.75756 173.99878,681.49487 169.32682,677.45426 171.72593,676.0653 174.12505,674.67634 177.40804,674.045 180.18596,677.95934 182.96388,681.87368 184.85792,685.91429 184.85792,685.91429 184.85792,685.91429 182.08,687.17698 181.19611,687.93459 180.31223,688.69221 180.69104,690.33371 179.30208,692.22774 177.91312,694.12178 154.67961,716.85021 151.27034,717.60783 147.86108,718.36544 146.72466,715.71379 145.08316,715.71379 143.44166,715.71379 133.21387,725.94158 132.07745,725.68905 130.94102,725.43651 128.79445,722.78486 127.40549,722.65859 126.01653,722.53232 123.99623,728.59323 121.21831,728.84577 118.44039,729.09831 118.06158,728.3407 117.80904,726.44666 117.5565,724.55262 119.95561,724.55262 119.95561,723.28993 119.95561,722.02724 117.68277,721.52217 116.54635,721.64844 115.40993,721.7747 114.02097,725.31024 112.00066,725.31024 109.98036,725.31024 103.16183,726.06785 101.6466,724.80516 100.13137,723.54247 99.626295,721.52217 99.373757,719.24932 99.121219,716.97648 101.14152,712.55706 99.752564,710.7893 98.363604,709.02153 93.817918,706.87495 91.292536,706.62242 88.767155,706.36988 88.767155,707.00122 87.251926,706.74869 85.736697,706.49615 84.726545,704.34957 82.327433,703.33942 79.92832,702.32927 73.614867,703.33942 72.099638,701.69792 70.584409,700.05643 65.912454,695.63701 63.892149,696.14208 61.871844,696.64716 63.76588,702.45554 62.755727,702.70808 61.745574,702.96061 59.599,699.55135 57.452426,699.55135 55.305852,699.55135 51.896587,701.06658 50.886435,702.58181 49.876282,704.09704 51.644049,705.73853 51.51778,707.25376 51.391511,708.76899 49.876282,709.02153 49.876282,710.28422 49.876282,711.54691 52.401663,712.93587 51.012704,714.07229 49.623744,715.20871 33.208765,714.07229 32.57742,713.44095 31.946074,712.8096 30.430845,710.28422 29.294424,709.27407 28.158002,708.26391 25.380083,708.01138 24.243661,706.74869 23.10724,705.48599 22.097087,704.85465 21.844549,703.71823 21.592011,702.58181 22.475894,699.55135 22.223356,698.5412 21.970818,697.53104 18.056477,696.77343 18.814091,693.11163 19.571706,689.44982 22.98097,688.81848 23.233509,685.28294 23.486047,681.74741 20.581858,681.49487 19.824244,679.3483 19.066629,677.20172 18.435284,675.30769 18.435284,675.30769 Z"
         style="fill:none;fill-opacity:1;stroke:#000000;stroke-width:1.00424;stroke-linecap:butt;stroke-linejoin:miter;stroke-miterlimit:4;stroke-dasharray:none;stroke-opacity:1"
         inkscape:connector-curvature="0" />
      <path
         clip-path="url(#clipPath14577)"
         id="path4903"
         d="M 193.92857,675.28571 191.42857,668.67857 C 191.42857,668.67857 193.92857,667.96429 193.92857,666.53571 193.92857,665.10714 190,656.53571 190,656.53571 190,656.53571 189.28571,656.89286 186.07143,657.07143 182.85714,657.25 178.57143,656.71429 175.17857,656.89286 171.78571,657.07143 171.25,658.32143 168.03571,658.32143 164.82143,658.32143 161.07143,655.64286 157.67857,651.71429 154.28571,647.78571 151.78571,639.03571 150.35714,638.32143 148.92857,637.60714 147.85714,638.14286 146.60714,637.60714 145.35714,637.07143 140,631.17857 136.78571,630.46429 133.57143,629.75 131.96429,630.82143 130.17857,629.21429 128.39286,627.60714 129.46429,626.35714 127.32143,626 125.17857,625.64286 124.28571,627.07143 121.96429,626.89286 119.64286,626.71429 117.5,624.39286 116.60714,624.39286 115.71429,624.39286 115.89286,625.82143 112.85714,625.82143 109.82143,625.82143 100.71429,623.14286 95.892857,625.10714 91.071429,627.07143 89.464286,632.07143 86.607143,631.35714 83.75,630.64286 82.321429,629.57143 81.964286,627.96429 81.607143,626.35714 83.214286,627.25 81.071429,625.10714 78.928572,622.96429 70.892857,608.5 63.035714,608.5 55.178572,608.5 41.25,620.46429 39.642857,620.82143 38.035714,621.17857 36.25,620.64286 35,622.42857 33.75,624.21429 33.928572,627.96429 34.107143,629.03571 34.285714,630.10714 36.25,629.39286 37.142857,631.35714 38.035714,633.32143 53.75,651.89286 58.75,653.85714 63.75,655.82143 71.785714,654.92857 73.571429,653.85714 75.357143,652.78571 79.821429,647.78571 81.25,647.78571 82.678572,647.78571 83.214286,648.67857 82.678572,650.28571 82.142857,651.89286 80,651.53571 81.25,653.32143 82.5,655.10714 85.535714,656.35714 86.607143,658.85714 87.678572,661.35714 88.928572,663.67857 90.892857,664.57143 92.857143,665.46429 97.857143,663.85714 99.285714,664.75 100.71429,665.64286 104.46429,673.14286 106.96429,673.14286 109.46429,673.14286 109.46429,670.10714 112.32143,669.75 115.17857,669.39286 116.78571,670.46429 120.17857,669.03571 123.57143,667.60714 123.39286,655.10714 129.28571,652.60714 135.17857,650.10714 139.82143,650.28571 142.32143,653.67857 144.82143,657.07143 143.75,656.71429 145.17857,658.14286 146.60714,659.57143 148.21429,657.78571 150,659.57143 151.78571,661.35714 151.78571,664.21429 154.64286,666.71429 157.5,669.21429 160.53571,672.07143 166.07143,671.71429 171.60714,671.35714 170.53571,667.07143 175.17857,667.07143 179.82143,667.07143 185.53571,672.96429 187.5,674.75 189.46429,676.53571 190.53571,675.82143 190.53571,675.82143 Z"
         style="fill:none;fill-opacity:1;stroke:#000000;stroke-width:1.00424;stroke-linecap:butt;stroke-linejoin:miter;stroke-miterlimit:4;stroke-dasharray:none;stroke-opacity:1"
         inkscape:connector-curvature="0" />
      <path
         clip-path="url(#clipPath14573)"
         id="path4905"
         d="M 75,610.28571 C 75,610.28571 79.821429,607.42857 85.357143,607.07143 90.892857,606.71429 91.25,609.75 95.892857,609.03571 100.53571,608.32143 110.89286,605.82143 115.35714,607.25 119.82143,608.67857 122.32143,615.46429 122.32143,617.78571 122.32143,620.10714 118.03571,623.14286 116.78571,623.14286 115.53571,623.14286 105.53571,620.64286 100.89286,620.64286 96.25,620.64286 94.285714,621.53571 91.428572,623.32143 88.571429,625.10714 88.035714,625.82143 86.25,625.82143 84.464286,625.82143 84.821429,624.39286 83.75,621.35714 82.678572,618.32143 75,610.28571 75,610.28571 Z"
         style="fill:none;fill-opacity:1;stroke:#000000;stroke-width:1.00424;stroke-linecap:butt;stroke-linejoin:miter;stroke-miterlimit:4;stroke-dasharray:none;stroke-opacity:1"
         inkscape:connector-curvature="0" />
      <path
         clip-path="url(#clipPath14569)"
         id="path4907"
         d="M 185,597.60714 C 185,597.60714 173.39286,591 168.39286,591.71429 163.39286,592.42857 159.46429,595.82143 160.53571,598.14286 161.60714,600.46429 174.64286,602.60714 174.46429,605.10714 174.28571,607.60714 170.35714,608.32143 167.32143,608.32143 164.28571,608.32143 164.64286,605.28571 157.85714,605.28571 151.07143,605.28571 139.28571,607.25 139.28571,611 139.28571,614.75 144.46429,614.92857 145.53571,616.35714 146.60714,617.78571 145.89286,621 146.96429,621.53571 148.03571,622.07143 150.17857,620.82143 151.96429,622.78571 153.75,624.75 151.07143,626.89286 154.64286,629.21429 158.21429,631.53571 170.35714,629.39286 172.32143,631 174.28571,632.60714 176.42857,635.10714 176.42857,635.10714 H 183.21429 L 184.46429,623.85714 178.39286,614.03571 179.64286,604.03571 Z"
         style="fill:none;fill-opacity:1;stroke:#000000;stroke-width:1.00424;stroke-linecap:butt;stroke-linejoin:miter;stroke-miterlimit:4;stroke-dasharray:none;stroke-opacity:1"
         inkscape:connector-curvature="0" />
      <path
         clip-path="url(#clipPath14565)"
         id="path4909"
         d="M 105.35714,577.78571 C 110.17857,577.78571 108.21429,581.17857 111.78571,583.5 115.35714,585.82143 118.21429,583.5 119.82143,585.64286 121.42857,587.78571 120,595.46429 122.85714,597.60714 125.71429,599.75 128.39286,596.89286 130.89286,598.14286 133.39286,599.39286 131.07143,602.07143 133.92857,602.60714 136.78571,603.14286 145.35714,602.78571 151.42857,598.67857 157.5,594.57143 162.32143,591.17857 160.35714,585.64286 158.39286,580.10714 152.32143,584.39286 148.21429,582.42857 144.10714,580.46429 144.10714,573.5 139.82143,570.28571 135.53571,567.07143 123.92857,566.53571 115.53571,566 107.14286,565.46429 105.53571,563.14286 98.75,563.85714 91.964286,564.57143 87.142857,566.53571 82.142857,571.35714 77.142857,576.17857 78.035714,577.96429 79.285714,580.28571 80.535714,582.60714 84.642857,587.07143 94.107143,585.46429 103.57143,583.85714 98.571429,578.32143 105.35714,577.78571 Z"
         style="fill:none;fill-opacity:1;stroke:#000000;stroke-width:1.00424;stroke-linecap:butt;stroke-linejoin:miter;stroke-miterlimit:4;stroke-dasharray:none;stroke-opacity:1"
         inkscape:connector-curvature="0" />
    </g>
    <g
       transform="matrix(0.10455618,0,0,0.10455618,121.60843,48.073126)"
       style="display:inline;fill:none;stroke:#000000;stroke-width:1.00424;stroke-miterlimit:4;stroke-dasharray:none;stroke-opacity:1"
       id="layer7"
       inkscape:export-filename="/home/f0x/layer3.png"
       inkscape:export-xdpi="934.57831"
       inkscape:export-ydpi="934.57831">
      <path
         sodipodi:nodetypes="cccccccccccccccccccsccsccccccccsccsccccsccccccsccsccsccssscscscccccccccccccssscscccsccccccssccccccscscscccccccccccccccccc"
         inkscape:connector-curvature="0"
         clip-path="url(#clipPath14561)"
         id="path4912"
         d="M 426.96875,539.03125 421.0625,544.40625 409.28125,542.25 404.46875,545.65625 394.65625,562.25 383.40625,567.59375 372.15625,564.75 359.28125,565.28125 357.15625,557.59375 350,554.03125 346.78125,556.53125 C 346.78125,556.53125 332.46875,544.71875 330.07813,542.14554 L 311.78125,542.59375 305,548.15625 289.8125,552.4375 284.28125,562.0625 273.21875,569.21875 C 273.21875,569.21875 266.0625,577.06697 258.5625,580.28125 251.0625,583.49554 243.39732,585.6384 234.46875,582.78125 225.54017,579.92411 224.28125,579.40625 221.78125,579.40625 219.28125,579.40625 218.9375,580.28125 218.9375,580.28125 218.9375,580.28125 219.62947,584.55804 216.59375,588.84375 213.55804,593.12947 201.07143,600.47768 195,599.40625 188.92857,598.33482 186.25,597.59375 186.25,597.59375 L 179.375,606.375 178.4375,613.78125 178.4063,614.03125 V 614.06245 L 184.4688,623.8437 184.81255,624.4062 183.93755,635.0937 C 183.93755,635.0937 193.57148,640.29459 193.75005,648.68745 193.87067,654.35665 190.34805,656.25892 188.0313,656.9062 189.58822,656.73042 190.00005,656.5312 190.00005,656.5312 190.00005,656.5312 193.93755,665.10263 193.93755,666.5312 193.93755,667.95978 191.43755,668.68745 191.43755,668.68745 L 193.93755,675.2812 192.75005,675.4687 H 193.56255 C 193.56255,675.4687 201.08487,674.4062 202.1563,674.4062 203.22773,674.4062 205.01344,683.85263 210.9063,684.0312 216.79915,684.20978 223.56255,678.8437 223.56255,678.8437 L 215.18755,663.31245 C 215.18755,663.31245 216.79469,662.97317 216.43755,661.18745 216.08041,659.40174 213.2188,657.43745 213.2188,657.43745 213.2188,657.43745 215.52683,654.93298 221.06255,652.9687 226.59826,651.00441 228.56255,652.60709 231.06255,650.99995 233.56255,649.39281 231.60273,648.12942 233.0313,647.5937 234.45988,647.05799 241.61612,644.73656 245.18755,646.3437 248.75898,647.95085 243.92862,653.13388 243.75005,655.81245 243.57148,658.49102 245.5313,662.43745 245.5313,662.43745 245.5313,662.43745 251.44201,660.99549 255.9063,660.2812 260.37058,659.56692 261.24112,663.33031 266.06255,662.43745 270.88398,661.54459 270.00005,661.18745 270.00005,661.18745 270.00005,661.18745 269.27683,657.61155 272.31255,655.4687 275.34826,653.32584 275.70095,654.76334 277.8438,651.9062 279.98666,649.04905 278.75005,647.08031 281.25005,644.93745 283.75005,642.79459 288.91969,639.03566 291.06255,638.49995 293.20541,637.96424 300.17416,645.11602 300.5313,647.43745 300.88845,649.75888 298.93755,648.31692 298.93755,652.7812 V 662.43745 C 298.93755,662.43745 294.2813,659.57138 290.5313,660.99995 286.7813,662.42852 285.36165,666.35263 291.9688,666.5312 298.57594,666.70978 308.74112,665.63835 312.31255,666.5312 315.88398,667.42406 317.8438,672.06245 317.8438,672.06245 L 334.65625,656 334.28125,649.40625 340.1875,643.84375 C 340.1875,643.84375 340.1915,646.88393 343.40625,648.3125 346.62053,649.74107 349.27233,649.39732 351.59375,655.46875 353.91518,661.54017 354.28125,661.90625 354.28125,661.90625 354.28125,661.90625 350.87947,663.13393 349.09375,667.0625 347.30804,670.99107 346.41518,672.26339 350.34375,676.90625 354.27233,681.5491 356.44196,684.03125 358.40625,687.78125 360.37053,691.53125 358.22322,694.5625 360.1875,695.8125 362.15179,697.0625 363.04018,697.07143 365.71875,696 368.39732,694.92857 365.34821,693.33482 369.8125,693.15625 374.27679,692.97768 379.28125,695.83036 379.28125,699.9375 379.28125,704.04464 376.96875,709.9375 376.96875,709.9375 376.96875,709.9375 393.21875,709.40625 398.21875,709.40625 403.21875,709.40625 412.15625,711.71875 412.15625,711.71875 412.15625,711.71875 414.8125,707.6116 417.3125,706.71875 419.8125,705.82589 420.7009,707.06697 422.84375,706.53125 424.98661,705.99554 426.77679,700.8125 432.3125,703.3125 437.84821,705.8125 435.72322,707.79464 437.6875,709.9375 439.65179,712.08036 441.25,712.59375 441.25,712.59375 441.25,712.59375 440.16964,714.0491 441.0625,718.15625 441.62054,720.72321 442.45068,722.18298 443,722.90625 L 452.5625,720.90625 C 452.5625,720.90625 451.54981,712.5617 452.8125,709.53125 454.07519,706.50079 460.12325,695.13515 463.40625,694.125 466.68925,693.11485 498.75333,686.29902 501.53125,684.53125 504.30917,682.76348 513.40625,674.6875 513.40625,674.6875 513.40625,674.6875 507.34042,662.56424 504.5625,659.28125 501.78458,655.99825 501.28125,656.25 501.28125,656.25 501.28125,656.25 501.04901,643.87928 499.28125,640.34375 497.51348,636.80821 495.71875,635.78125 495.71875,635.78125 L 494.21875,618.625 C 494.21875,618.625 496.48224,617.59375 498.25,617.59375 500.01777,617.59375 505.32091,621.90117 507.59375,622.40625 509.8666,622.91132 511.6545,619.88769 514.9375,618.625 518.2205,617.36231 522.51348,618.11739 524.28125,618.875 526.04902,619.63262 526.78458,622.90625 529.5625,622.90625 532.34042,622.90625 535.875,620.125 535.875,620.125 L 527.5625,601.1875 521.75,595.875 514.6875,587.5625 516.4375,580.21875 514.40625,574.9375 504.3125,571.375 499.28125,563.0625 499.25005,562.5 498.4063,561.90625 490.3438,559.40625 477.8438,559.75 461.9688,549.5625 453.75005,540.09375 438.56255,539.40625 434.4688,542.78125 426.9688,539.03125 Z"
         style="fill:none;fill-opacity:1;stroke:#000000;stroke-width:1.00424;stroke-linecap:butt;stroke-linejoin:miter;stroke-miterlimit:4;stroke-dasharray:none;stroke-opacity:1" />
    </g>
    <g
       transform="matrix(0.10455618,0,0,0.10455618,121.60843,48.073126)"
       style="display:inline;fill:none;stroke:#000000;stroke-width:1.00424;stroke-miterlimit:4;stroke-dasharray:none;stroke-opacity:1"
       id="layer8"
       inkscape:export-filename="/home/f0x/layer3.png"
       inkscape:export-xdpi="934.57831"
       inkscape:export-ydpi="934.57831">
      <path
         style="fill:none;fill-opacity:1;stroke:#000000;stroke-width:1.00424;stroke-linecap:butt;stroke-linejoin:miter;stroke-miterlimit:4;stroke-dasharray:none;stroke-opacity:1"
         clip-path="url(#clipPath14557)"
         d="M 347.99023,521.11133 C 347.99023,521.11133 347.05793,525.54297 345.19141,525.54297 343.32488,525.54297 342.39172,525.19279 341.3418,526.35938 340.29188,527.52595 343.32422,529.97656 343.32422,529.97656 343.32422,529.97656 342.62311,531.14258 340.05664,531.14258 337.49017,531.14258 332.47461,531.60937 332.47461,531.60938 L 329.79102,530.32617 C 329.75622,530.60491 329.61984,535.11089 331.0625,535.46875 332.66964,536.18304 335.70983,535.11607 336.78125,536.1875 337.28562,536.69187 336.35358,541.63744 336.35358,541.63744 336.38278,541.64944 330.07813,542.14554 330.07813,542.14554 L 337.4503,548.44728 346.78125,556.53125 350,554.03125 357.15625,557.59375 359.28125,565.28125 372.15625,564.75 383.40625,567.59375 394.65625,562.25 404.46875,545.65625 409.28125,542.25 421.0625,544.40625 426.96875,539.03125 434.46875,542.78125 438.5625,539.40625 453.75,540.09375 461.96875,549.5625 477.84375,559.75 490.34375,559.40625 498.40625,561.90625 499.25,562.5 498.75,554.71875 H 503.3125 C 503.3125,554.71875 504.57599,559.75587 506.34375,562.28125 508.11152,564.80663 515.1875,564.3125 515.1875,564.3125 V 564.375 C 518.81159,562.843 521.88239,560.23922 521.25,555.8125 519.82143,545.8125 513.5625,543.3125 513.5625,543.3125 L 517.6875,539.03125 C 517.6875,539.03125 524.29911,541.00893 530.90625,536.1875 537.51339,531.36607 535.34375,528.15625 535.34375,528.15625 L 553.03125,534.03125 C 553.03125,534.03125 553.56696,528.84375 551.78125,526.34375 549.99553,523.84375 541.4375,517.96875 541.4375,517.96875 L 551.0625,515.8125 C 551.0625,515.8125 557.66518,524.02232 560.34375,525.09375 563.02233,526.16518 573.73661,524.91964 575.34375,525.8125 576.9509,526.70535 579.8125,532.0625 579.8125,532.0625 579.8125,532.0625 587.14286,531.1875 588.75,532.4375 590.35714,533.6875 591.25,536.53125 591.25,536.53125 L 598.5625,538.3125 598.40625,531.90625 C 598.40625,531.90625 592.51339,528.85268 595.90625,526.53125 599.29911,524.20982 600.3616,529.20982 603.21875,529.03125 606.07589,528.85268 606.60267,527.0625 608.03125,527.0625 609.45982,527.0625 609.64732,530.27232 611.96875,530.09375 614.29018,529.91518 623.56696,524.21428 624.28125,522.25 624.99553,520.28571 624.64286,519.02232 626.25,518.84375 627.85714,518.66518 628.40179,521.16964 630.1875,520.8125 631.97322,520.45535 635.53572,516.71875 640,514.21875 644.46429,511.71875 650,509.03125 650,509.03125 650,509.03125 654.29465,514.76339 657.6875,514.40625 661.08036,514.0491 665,510.11161 668.75,506.71875 672.5,503.3259 674.09375,498.6875 674.09375,498.6875 674.09375,498.6875 672.13839,497.96428 673.03125,496 673.9241,494.03571 676.77679,494.75 677.3125,492.25 677.84821,489.75 677.14286,486.1875 676.25,484.9375 675.35714,483.6875 672.15625,483.84375 672.15625,483.84375 672.15625,483.84375 667.84821,478.67857 662.3125,474.75 656.77679,470.82143 649.8125,467.59375 649.8125,467.59375 L 649.28125,460.8125 C 649.28125,460.8125 655.90179,462.43304 658.9375,459.21875 661.97322,456.00447 660.34375,446.53125 660.34375,446.53125 660.34375,446.53125 655.88393,446.53125 651.0625,445.28125 646.24107,444.03125 645.70536,444.0491 644.8125,443.15625 643.91964,442.26339 645,433.12947 643.75,431.34375 642.5,429.55804 641.4375,428.3125 641.4375,428.3125 641.4375,428.3125 635.01339,432.4375 633.40625,432.4375 631.79911,432.4375 631.60714,428.33482 630,428.15625 628.39286,427.97767 621.79911,429.20982 619.65625,429.03125 617.51339,428.85268 615.34375,427.59375 615.34375,427.59375 615.34375,427.59375 611.08482,430.63393 609.65625,429.5625 608.22768,428.49107 601.24553,420.12053 600.53125,418.15625 599.81696,416.19196 600.35714,414.20089 597.5,411.34375 594.64286,408.48661 587.3125,408.14733 583.5625,410.46875 579.8125,412.79018 579.28125,417.96875 579.28125,417.96875 579.28125,417.96875 574.64286,415.11607 570,414.9375 565.35714,414.75893 558.21875,415.28125 558.21875,415.28125 558.21875,415.28125 558.74553,413.49554 556.78125,412.78125 554.81696,412.06697 551.96875,413.84375 551.96875,413.84375 L 545.71875,408.5 539.8125,393.3125 C 539.8125,393.3125 532.66964,393.3125 531.0625,392.0625 529.45536,390.8125 526.95536,380.82143 528.5625,379.75 530.16964,378.67857 535.90625,375.28125 535.90625,375.28125 L 542.84375,366 C 542.84375,366 536.77679,365.10714 534.8125,362.25 532.84821,359.39286 534.63839,356.17857 535.53125,356 536.4241,355.82143 538.75,354.75 538.75,354.75 L 528.75,338.84375 520.71875,334.21875 510,344.5625 507.15625,341.34375 504.65625,344.03125 493.5625,329.40625 489.46875,329.21875 C 489.46875,329.21875 491.08036,340.47321 480.1875,353.6875 469.29465,366.90179 459.46875,369.02678 456.96875,370.8125 454.46875,372.59821 457.13839,373.51339 453.03125,375.65625 448.9241,377.7991 447.31696,376.36607 445.53125,377.4375 443.74553,378.50893 445.70982,379.5625 444.28125,382.0625 442.85267,384.5625 438.02233,386.34821 436.59375,389.5625 435.16518,392.77678 433.38393,403.13393 431.0625,405.8125 428.74107,408.49107 407.15625,412.4375 407.15625,412.4375 407.15625,412.4375 408.22768,419.03571 409.65625,422.25 411.08482,425.46428 413.74107,426.5491 413.5625,428.15625 413.38393,429.76339 411.0625,432.05804 411.0625,433.84375 411.0625,435.62947 421.97768,437.78125 423.40625,440.28125 424.83482,442.78125 426.6116,447.25447 423.21875,454.21875 419.82589,461.18304 418.9375,460.6384 420.1875,462.78125 421.4375,464.92411 425.1741,465.64286 429.28125,462.25 433.38839,458.85714 433.20982,454.91518 435.53125,456.34375 437.85267,457.77232 436.60714,467.25 437.5,469.75 438.39286,472.25 440.17857,471.36607 441.25,473.6875 442.32143,476.00893 440.53572,476.88393 441.25,479.5625 441.96429,482.24107 443.76339,480.81697 444.65625,484.03125 445.54911,487.24554 442.85714,486.70535 445,489.5625 447.14286,492.41964 450.87947,492.77232 451.59375,495.09375 452.30804,497.41518 450.71875,503.84375 450.71875,503.84375 L 438.9375,503.15625 419.28125,492.4375 396.78125,498.84375 393.75,501.53125 384.8125,500.28125 377.3125,494.9375 369.46875,499.21875 363.5625,496.1875 C 363.5625,496.1875 363.75893,502.25 362.6875,504.75 361.71316,507.02346 355.28698,518.58106 352.25098,521.34082 Z"
         id="path4915"
         inkscape:connector-curvature="0"
         sodipodi:nodetypes="csccscccccccccccccccccccccccccccccccsccsccccccccscccsssscscscccccsscsccccscccscscscsccscccccssccscccccccccscccccsccsssscccsscscccccccccccscc" />
    </g>
    <g
       transform="matrix(0.10455618,0,0,0.10455618,121.60843,48.073126)"
       style="display:inline;fill:none;stroke:#000000;stroke-width:1.00424;stroke-miterlimit:4;stroke-dasharray:none;stroke-opacity:1"
       id="layer9"
       inkscape:export-filename="/home/f0x/layer3.png"
       inkscape:export-xdpi="934.57831"
       inkscape:export-ydpi="934.57831">
      <path
         inkscape:connector-curvature="0"
         style="fill:none;fill-opacity:1;stroke:#000000;stroke-width:1.00424;stroke-linecap:butt;stroke-linejoin:miter;stroke-miterlimit:4;stroke-dasharray:none;stroke-opacity:1"
         d="M 142.77344,532.30859 C 139.88932,532.62042 127.33342,537.50586 124.82227,538.67773 122.1437,539.92773 123.39202,538.85686 121.42773,539.39258 119.46345,539.92829 114.46513,544.57143 113.57227,546 112.67941,547.42857 115.17912,551.53543 116.96484,551.89258 118.75055,552.24972 119.10769,551.35714 124.46484,548.5 129.82198,545.64286 134.46374,545.28599 140.53516,547.60742 146.60659,549.92885 149.28571,570.28599 151.25,572.60742 153.21429,574.92885 163.21374,574.57088 168.03516,576.53516 172.85659,578.49945 170.53655,579.03571 173.57227,581 176.60798,582.96429 182.14231,583.85742 185.53516,585.10742 188.92802,586.35742 189.28516,589.03487 190.53516,589.92773 191.78516,590.82059 192.67885,589.92873 195.35742,590.10742 198.03599,590.28599 198.03516,590.10769 201.78516,590.46484 205.53516,590.82198 210.35769,590.46401 213.21484,585.64258 212.72765,583.58978 211.39842,581.33722 206.96484,578.32227 201.96484,573.85798 197.14314,573.32198 192.85742,570.46484 188.57171,567.60769 188.75084,565.82143 183.57227,559.75 178.3937,553.67857 170.53571,551.53599 166.25,548.85742 161.96429,546.17885 144.82394,532.6677 143.2168,532.31055 143.11635,532.28825 142.96571,532.28785 142.77344,532.30855 Z"
         id="path6092" />
      <path
         inkscape:connector-curvature="0"
         style="fill:none;fill-opacity:1;stroke:#000000;stroke-width:1.00424;stroke-linecap:butt;stroke-linejoin:miter;stroke-miterlimit:4;stroke-dasharray:none;stroke-opacity:1"
         d="M 127.85938,550.71094 C 126.20959,550.71094 126.70356,552.85582 125.21875,553.8457 123.73393,554.83557 123.24023,556.48633 123.24023,556.48633 123.24023,556.48633 127.6942,554.50689 130.00391,554.67188 132.31362,554.83686 134.78711,555.82617 134.78711,555.82617 134.78711,555.82617 129.50917,550.71094 127.85938,550.71094 Z"
         id="path4918" />
      <path
         inkscape:connector-curvature="0"
         style="fill:none;fill-opacity:1;stroke:#000000;stroke-width:1.00424;stroke-linecap:butt;stroke-linejoin:miter;stroke-miterlimit:4;stroke-dasharray:none;stroke-opacity:1"
         d="M 336.78125,536.1875 C 335.70983,535.11607 332.66964,536.1835 331.0625,535.46875 329.61984,535.11089 329.75622,530.60491 329.79102,530.32617 L 332.47461,531.60938 C 332.47461,531.60937 334.41681,531.43517 336.49219,531.29883 L 335.27539,528.57617 V 524.72656 L 330.49219,527.17773 329.9082,525.54297 C 329.9082,525.54297 330.28726,525.04787 330.53516,524.40625 330.65914,524.08544 330.74914,523.72888 330.74414,523.37891 330.73914,523.02893 330.63748,522.68618 330.375,522.39453 330.11252,522.10289 329.9457,521.67926 329.8418,521.20898 329.73795,520.73871 329.69645,520.22145 329.68945,519.74023 329.67485,518.77781 329.79102,517.96094 329.79102,517.96094 L 325.82617,520.06055 V 516.32812 L 323.72461,515.74414 323.95898,514.69531 322.44141,514.46094 320.80859,508.39453 319.29297,509.67773 317.96875,503.94531 316.4375,504.75 C 316.04456,504.9762 315.26765,505.13539 314.32422,505.24609 313.38078,505.35682 312.27042,505.41865 311.20898,505.45312 309.0861,505.52212 307.16016,505.47852 307.16016,505.47852 307.0435,504.31194 306.43157,502.61941 305.55664,500.95703 304.68171,499.29466 303.54353,497.6632 302.37695,496.61328 301.21037,495.56336 299.60732,493.43293 298.29492,491.56641 296.98252,489.69988 295.96094,488.0957 295.96094,488.0957 L 303.66016,486.11328 301.44336,482.49609 297.01172,482.26367 295.84375,483.89648 293.16211,483.7793 292.46094,481.33008 294.79492,479.69727 293.86133,477.71289 C 293.86133,477.71289 294.56177,477.36418 295.26172,477.13086 295.61169,477.0142 295.84365,476.63536 296.25195,475.90625 296.66026,475.17714 297.245,474.09663 298.29492,472.58008 298.81988,471.8218 299.5407,471.1671 300.32812,470.60938 301.11557,470.05158 301.96842,469.59112 302.75586,469.22656 304.33074,468.49745 305.64258,468.14844 305.64258,468.14844 L 306.34375,466.28125 298.52734,467.09766 298.99414,465.34766 297.59375,464.29883 C 297.59375,464.29883 297.24504,462.11181 297.01172,459.85156 296.89504,458.72144 296.80664,457.5722 296.80664,456.66992 296.80664,455.76765 296.89364,455.11067 297.12695,454.96484 297.36027,454.81902 297.27263,454.57849 296.98828,454.2832 296.70393,453.98791 296.22405,453.63799 295.66992,453.27344 294.56167,452.54433 293.16089,451.75738 292.46094,451.23242 291.76099,450.70746 291.20637,450.21208 291.06055,449.81836 290.98765,449.6215 291.01755,449.44921 291.18164,449.3125 291.34569,449.17579 291.6447,449.07395 292.11133,449.01562 292.57796,448.95732 292.9288,448.77459 293.18945,448.51758 293.45011,448.26057 293.6211,447.92953 293.73047,447.57227 293.94923,446.85774 293.91963,446.0406 293.86133,445.51562 293.83213,445.25317 293.94893,445.02004 294.16406,444.80859 294.37915,444.59715 294.69209,444.40741 295.05664,444.23242 295.78575,443.88245 296.71829,443.59047 297.47656,443.29883 297.8557,443.15301 298.33793,443.22603 298.88477,443.41016 299.4316,443.59426 300.04393,443.89052 300.68555,444.18945 301.32716,444.48839 301.99862,444.79155 302.66211,444.99023 303.3256,445.18892 303.98129,445.28267 304.59375,445.16602 305.2062,445.04936 305.60627,444.6273 305.86328,444.05859 306.12029,443.48989 306.23498,442.77417 306.27148,442.07422 306.34438,440.67432 306.10938,439.33398 306.10938,439.33398 L 309.60938,437.34961 302.37695,431.2832 299.81055,431.51758 296.42773,427.66797 296.77734,426.85156 294.91016,424.98438 292.22852,425.21875 292.34375,420.20117 291.16992,417.4082 289.7168,417.24805 287.25586,419.97266 285.55469,420.17773 284.41602,421.18359 283.33203,421.04688 281.50586,423.62305 279.35547,422.04297 C 279.35547,422.04297 279.39847,418.61902 279.41797,415.6543 277.88763,415.51158 275.16797,415.23047 275.16797,415.23047 275.16797,415.23047 274.62482,415.93772 272.57812,417.51172 271.40999,417.63678 269.57031,416.29883 269.57031,416.29883 269.57031,416.29883 267.38965,417.75615 265.04102,419.0918 262.69239,420.42746 261.68271,421.48098 258.54492,421.37891 256.11434,421.29981 254.79578,419.77759 253.82617,419.77148 252.32063,419.76248 252.4506,420.54046 251.33984,420.53125 249.7794,420.51835 248.03353,419.73651 247.51758,418.70117 247.00162,417.66582 247.95363,415.81169 249.27539,414.88477 250.48382,414.03733 250.45405,407.06694 250.49414,404.76367 252.6066,402.41696 255.19962,399.53096 255.55664,397.85547 256.27825,394.46888 257.83159,391.7754 257.99023,391.25781 256.81743,390.79032 254.82023,388.89847 253.67188,389.54102 252.59948,390.14105 251.65873,390.16986 250.84375,390.11719 250.1678,391.08509 249.60156,392.4043 249.60156,392.4043 L 236.44336,386.63672 C 236.44336,386.63672 225.06351,410.04796 223.26562,413.39062 214.15849,430.17633 197.21206,449.73968 187.39062,461.52539 177.56921,473.31111 162.84375,490.28125 162.84375,490.28125 162.84375,490.28125 168.20536,499.03571 166.0625,497.25 163.91964,495.46428 160.18583,493.39007 156.79297,492.67578 153.40011,491.96149 153.82058,490.94977 151.67773,490.41406 149.53487,489.87835 144.99916,491.18164 145.17773,494.93164 145.35631,498.68164 146.07143,497.41518 146.25,500.09375 146.42857,502.77232 140.52678,507.4375 139.8125,508.6875 139.09821,509.9375 137.33482,511.54018 139.65625,514.21875 141.97768,516.89733 148.91518,511.16964 150.34375,513.3125 151.77232,515.45535 148.58036,516.71875 147.6875,520.46875 146.79464,524.21875 150.18303,524.40179 151.96875,526.1875 153.75446,527.97321 154.45452,528.93052 156.24023,532.50195 158.02595,536.07337 159.48052,537.47812 162.33203,538.56445 164.83142,539.51663 164.24273,539.63934 166.47266,541.13672 167.31264,541.70076 170.20694,539.98343 172.4043,540.63477 174.60165,541.28612 176.10335,544.30679 177.02344,545.76562 180.77162,544.8673 183.99051,548.1384 185.59766,550.28125 187.2048,552.42411 187.00363,557.01365 192.49609,558.91992 197.9743,560.82124 202.84375,562.13839 207.84375,564.28125 212.84375,566.4241 215.01339,568.15625 223.40625,571.90625 231.7991,575.65625 238.93303,577.79464 246.96875,577.4375 255.00446,577.08036 257.14732,571.8884 261.96875,569.03125 266.79017,566.17411 273.21875,569.21875 273.21875,569.21875 L 284.28125,562.0625 289.8125,552.4375 305,548.15625 311.78125,542.59375 328.40625,542.25 336.38281,541.64941 C 336.84996,539.9754 337.55029,536.95654 336.78125,536.1875 Z"
         id="path6059" />
      <path
         inkscape:connector-curvature="0"
         style="fill:none;fill-opacity:1;stroke:#000000;stroke-width:1.00424;stroke-linecap:butt;stroke-linejoin:miter;stroke-miterlimit:4;stroke-dasharray:none;stroke-opacity:1"
         d="M 193.18555,561.5918 C 189.21919,562.52506 197.85256,567.4236 200.65234,569.52344 203.45213,571.62328 206.71835,569.75641 208.35156,568.58984 209.98477,567.42326 200.18502,563.69164 193.18555,561.5918 Z"
         id="path4920" />
      <path
         inkscape:connector-curvature="0"
         style="fill:none;fill-opacity:1;stroke:#000000;stroke-width:1.00424;stroke-linecap:butt;stroke-linejoin:miter;stroke-miterlimit:4;stroke-dasharray:none;stroke-opacity:1"
         clip-path="url(#clipPath14549)"
         d="M 363.5625,496.5 C 363.5605,496.4306 363.5625,496.1875 363.5625,496.1875 L 369.46875,499.21875 377.3125,494.9375 384.8125,500.28125 393.75,501.53125 396.78125,498.84375 419.28125,492.4375 438.9375,503.15625 450.71875,503.84375 C 450.71875,503.84375 452.30804,497.41518 451.59375,495.09375 450.87947,492.77232 447.14286,492.41964 445,489.5625 442.85714,486.70535 445.54911,487.24554 444.65625,484.03125 443.76339,480.81697 441.96429,482.24107 441.25,479.5625 440.53572,476.88393 442.32143,476.00893 441.25,473.6875 440.17857,471.36607 438.39286,472.25 437.5,469.75 436.60714,467.25 437.85267,457.77232 435.53125,456.34375 433.20982,454.91518 433.38839,458.85714 429.28125,462.25 425.1741,465.64286 421.4375,464.92411 420.1875,462.78125 418.9375,460.6384 419.82589,461.18304 423.21875,454.21875 426.6116,447.25447 424.83482,442.78125 423.40625,440.28125 421.97768,437.78125 411.0625,435.62947 411.0625,433.84375 411.0625,432.05804 413.38393,429.76339 413.5625,428.15625 413.74107,426.5491 411.08482,425.46428 409.65625,422.25 408.27894,419.15105 407.26075,413.03791 407.1875,412.59375 403.50748,410.13742 399.4379,407.46899 397.84375,406.53125 394.80804,404.74554 392.3125,405.46875 389.8125,402.96875 387.3125,400.46875 388.3125,399.46875 388.3125,399.46875 L 387.9375,399.15625 C 386.76587,399.50062 381.25797,401.20686 379.65625,402.96875 377.87053,404.93304 378.91964,406.17857 377.3125,408.5 375.70536,410.82143 372.6875,419.39733 371.4375,421.71875 370.1875,424.04018 372.51339,422.96875 370.90625,426.71875 369.29911,430.46875 368.20982,431.72767 361.78125,431.90625 358.9943,431.96885 356.03196,431.5822 353.18164,430.93359 L 347.22656,433.10352 C 347.15546,433.32343 347.08187,433.51038 347,433.625 345.73731,435.39277 338.5414,435.64023 337.53125,434.125 336.5211,432.60977 337.77871,424.66561 338.03125,420.625 338.25733,417.00756 340.12523,416.66311 340.53125,416.625 L 341.0625,406.75 C 340.08692,406.32782 339.09211,405.87102 338.78125,405.5 338.08929,404.67411 338.37054,402.5759 339.21875,402.21875 340.0231,401.8801 342.42704,401.7046 342.6875,401.6875 342.721,401.6013 344.27743,397.61288 342.6875,396.90625 341.08036,396.19196 331.96875,400.46875 331.96875,400.46875 L 333.03125,393.15625 C 333.03125,393.15625 332.59821,393.10255 331.90625,393.12505 331.21429,393.14735 330.2634,393.23219 329.28125,393.50005 327.31697,394.03576 327.5,400.47772 325,401.9063 322.5,403.33487 317.3125,402.25005 317.3125,402.25005 317.3125,402.25005 316.97768,406.36166 314.65625,407.9688 312.33482,409.57595 307.50893,407.77237 305.1875,408.8438 302.86607,409.91523 304.64732,411.89738 301.96875,414.2188 299.38006,416.46232 294.97046,418.07417 294.67188,418.18169 294.62808,418.17569 293.13086,417.6231 293.13086,417.6231 L 291.16992,417.40825 292.34375,420.20122 292.22852,425.2188 294.91016,424.98443 296.77734,426.85161 296.42773,427.66802 299.81055,431.51763 302.37695,431.28325 309.60938,437.34966 306.10938,439.33403 C 306.10938,439.33403 306.3444,440.67437 306.27148,442.07427 306.23498,442.77422 306.12029,443.48994 305.86328,444.05864 305.60627,444.62735 305.2062,445.04941 304.59375,445.16607 303.98129,445.28272 303.3256,445.18897 302.66211,444.99028 301.99862,444.7916 301.32716,444.48844 300.68555,444.1895 300.04393,443.89057 299.4316,443.59431 298.88477,443.41021 298.33793,443.22611 297.8557,443.15306 297.47656,443.29888 296.71829,443.59052 295.78575,443.8825 295.05664,444.23247 294.69209,444.40746 294.37915,444.5972 294.16406,444.80864 293.94897,445.02009 293.83216,445.25321 293.86133,445.51567 293.91963,446.04064 293.94923,446.85779 293.73047,447.57232 293.6211,447.92958 293.45011,448.26062 293.18945,448.51763 292.9288,448.77464 292.57796,448.95737 292.11133,449.01567 291.6447,449.07397 291.34569,449.17584 291.18164,449.31255 291.01759,449.44926 290.98764,449.62155 291.06055,449.81841 291.20637,450.21213 291.76099,450.70751 292.46094,451.23247 293.16089,451.75743 294.56167,452.54438 295.66992,453.27349 296.22405,453.63804 296.70393,453.98796 296.98828,454.28325 297.27263,454.57854 297.36027,454.81907 297.12695,454.96489 296.89364,455.11072 296.80664,455.7677 296.80664,456.66997 296.80664,457.57225 296.89504,458.72149 297.01172,459.85161 297.24504,462.11186 297.59375,464.29888 297.59375,464.29888 L 298.99414,465.34771 298.52734,467.09771 306.34375,466.2813 305.64258,468.14849 C 305.64258,468.14849 304.33074,468.4975 302.75586,469.22661 301.96842,469.59117 301.11557,470.05163 300.32812,470.60943 299.54068,471.16718 298.81988,471.82185 298.29492,472.58013 297.245,474.09668 296.66026,475.17719 296.25195,475.9063 295.84365,476.63541 295.61169,477.01425 295.26172,477.13091 294.56177,477.36423 293.86133,477.71294 293.86133,477.71294 L 294.79492,479.69732 292.46094,481.33013 293.16211,483.77935 295.84375,483.89653 297.01172,482.26372 301.44336,482.49614 303.66016,486.11333 295.96094,488.09575 C 295.96094,488.09575 296.98252,489.69993 298.29492,491.56646 299.60732,493.43298 301.21037,495.56341 302.37695,496.61333 303.54353,497.66325 304.68171,499.29471 305.55664,500.95708 306.43157,502.61946 307.0435,504.31199 307.16016,505.47857 307.16016,505.47857 309.0861,505.52217 311.20898,505.45317 312.27042,505.41867 313.38078,505.35687 314.32422,505.24614 315.26765,505.13544 316.04456,504.97625 316.4375,504.75005 L 317.96875,503.94536 319.29297,509.67778 320.80859,508.39458 322.44141,514.46099 323.95898,514.69536 323.72461,515.74419 325.82617,516.32817 V 520.0606 L 329.79102,517.96099 C 329.79102,517.96099 329.67487,518.77786 329.68945,519.74028 329.69645,520.2215 329.73795,520.73876 329.8418,521.20903 329.9457,521.67931 330.11252,522.10294 330.375,522.39458 330.63748,522.68623 330.73867,523.02898 330.74414,523.37896 330.74914,523.72893 330.65914,524.08549 330.53516,524.4063 330.28726,525.04792 329.9082,525.54302 329.9082,525.54302 L 330.49219,527.17778 335.27539,524.72661 V 528.57622 L 335.88086,529.92974 336.49023,531.29302 336.50393,531.29702 C 337.77449,531.21372 339.08341,531.14272 340.05666,531.14272 342.62313,531.14272 343.32424,529.9767 343.32424,529.9767 343.32424,529.9767 340.2919,527.52608 341.34182,526.35952 342.39174,525.19291 343.3249,525.54311 345.19143,525.54311 347.05795,525.54311 347.99024,521.1114 347.99024,521.1114 L 352.25098,521.34082 C 355.28698,518.58106 361.71316,507.02346 362.6875,504.75 363.67522,502.44531 363.58256,497.3191 363.5625,496.5 Z"
         id="path6042" />
    </g>
    <g
       transform="matrix(0.10455618,0,0,0.10455618,121.60843,48.073126)"
       style="display:inline;fill:none;stroke:#000000;stroke-width:1.00424;stroke-miterlimit:4;stroke-dasharray:none;stroke-opacity:1"
       id="layer10"
       inkscape:export-filename="/home/f0x/layer3.png"
       inkscape:export-xdpi="934.57831"
       inkscape:export-ydpi="934.57831">
      <path
         inkscape:connector-curvature="0"
         style="fill:none;fill-opacity:1;stroke:#000000;stroke-width:1.00424;stroke-linecap:butt;stroke-linejoin:miter;stroke-miterlimit:4;stroke-dasharray:none;stroke-opacity:1"
         clip-path="url(#clipPath14541)"
         d="M 285.9375,192.53125 C 283.21429,192.57585 279.99554,192.97768 278.03125,194.40625 274.10268,197.26339 273.20536,208.3259 271.0625,217.96875 268.91964,227.61161 270.37053,228.86161 267.15625,239.21875 263.94196,249.5759 258.9375,262.23661 258.9375,265.09375 258.9375,267.95089 261.25,271.16518 261.25,275.09375 261.25,279.02232 257.50893,282.59821 257.6875,292.0625 257.86607,301.52678 258.21429,300.80804 256.25,311.34375 254.28571,321.87947 249.28125,344.03125 249.28125,344.03125 249.28125,344.03125 248.5625,350.27678 247.3125,357.0625 246.0625,363.84821 241.60714,370.12053 240,375.65625 238.39286,381.19196 236.5625,386.5 236.5625,386.5 236.5545,386.5539 236.5387,386.60252 236.5313,386.65625 L 249.5938,392.40625 C 249.5938,392.40625 250.16785,391.0929 250.8438,390.125 251.65878,390.1777 252.58392,390.131 253.6563,389.53125 254.80468,388.8887 256.82725,390.78251 258.00005,391.25 257.84141,391.76759 256.28416,394.45716 255.56255,397.84375 255.20553,399.51924 252.61251,402.40329 250.50005,404.75 250.45995,407.05327 250.48975,414.02756 249.2813,414.875 247.95954,415.80192 247.01534,417.65215 247.5313,418.6875 248.04725,419.72284 249.78336,420.51835 251.3438,420.53125 252.45456,420.54025 252.30701,419.77225 253.81255,419.78125 254.78216,419.78725 256.10072,421.2959 258.5313,421.375 261.66909,421.47707 262.68267,420.42941 265.0313,419.09375 267.05527,417.94273 268.70104,416.88358 269.18755,416.5625 270.96975,414.78635 271.62865,413.82804 273.7813,412 275.8879,412.0211 276.42083,410.39874 277.37505,408.1875 281.16487,406.98079 283.2924,404.22949 285.12505,405.8125 286.76389,407.22811 286.53207,408.36084 285.6563,411.34375 285.21442,412.84879 284.77008,413.61003 284.06255,414.5 283.80913,414.81877 282.58849,415.24935 279.8438,415.625 279.69664,415.6451 279.5628,415.72573 279.4063,415.84375 279.3861,418.74423 279.3438,422.03125 279.3438,422.03125 L 281.50005,423.625 283.3438,421.03125 284.4063,421.1875 285.56255,420.1875 287.25005,419.96875 289.7188,417.25 293.12505,417.625 C 293.12505,417.625 294.59062,418.17276 294.6563,418.1875 297.1986,416.86972 299.94081,415.69182 301.9688,414.21875 304.64737,411.89733 302.86612,409.91518 305.18755,408.84375 307.50898,407.77232 312.33487,409.5759 314.6563,407.96875 316.97773,406.36161 317.31255,402.25 317.31255,402.25 317.31255,402.25 322.50005,403.33482 325.00005,401.90625 327.50005,400.47767 327.31702,394.03571 329.2813,393.5 331.24559,392.96428 333.0313,393.15625 333.0313,393.15625 L 331.9688,400.46875 C 331.9688,400.46875 341.08041,396.19196 342.68755,396.90625 344.2947,397.62053 342.68755,401.71875 342.68755,401.71875 342.68755,401.71875 346.7947,401.18304 347.68755,402.96875 348.58041,404.75447 348.57594,406.53571 346.9688,407.25 345.36165,407.96428 341.06255,406.71875 341.06255,406.71875 L 340.5313,416.71875 C 340.5313,416.71875 343.58041,419.56697 346.43755,420.28125 346.91057,420.39951 347.52599,420.41063 348.18755,420.38672 348.10915,424.68731 347.89453,431.03851 347.22661,433.10352 L 353.18169,430.93359 C 356.38383,431.66161 358.76755,431.88402 361.7813,431.90625 368.20987,431.72767 369.29916,430.46875 370.9063,426.71875 372.51344,422.96875 370.18755,424.04018 371.43755,421.71875 372.68755,419.39733 375.70541,410.82143 377.31255,408.5 378.91969,406.17857 377.87058,404.93304 379.6563,402.96875 381.44201,401.00447 388.4063,399.03125 388.4063,399.03125 388.4063,399.03125 387.86165,396.53125 384.4688,395.28125 381.07594,394.03125 374.10272,390.27678 370.5313,390.8125 366.95987,391.34821 365.5447,392.95982 362.68755,392.78125 359.83041,392.60268 353.73666,382.41518 349.0938,382.59375 344.45095,382.77232 342.51344,383.32143 340.9063,383.5 339.29916,383.67857 331.79915,379.22321 328.4063,378.6875 325.01344,378.15179 322.31255,373.15625 322.31255,373.15625 L 323.9375,371 C 323.9375,371 328.20536,370.8259 329.8125,370.46875 331.41964,370.11161 335.00893,363.49107 337.6875,362.0625 340.36607,360.63393 345.16964,355.83036 343.5625,353.6875 341.95536,351.54464 336.7991,353.13393 337.15625,348.3125 337.51339,343.49107 340.71875,345.47767 340.71875,341.90625 340.71875,338.33482 340.19196,336.90625 342.15625,334.40625 344.12053,331.90625 345.71875,330.99554 343.21875,327.78125 340.71875,324.56697 334.09375,313.32143 334.09375,311 334.09375,308.67857 332.85268,308.12947 331.78125,306.34375 330.70983,304.55804 329.62947,298.66518 331.59375,296.34375 333.55804,294.02232 343.75,292.08036 346.25,292.4375 348.75,292.79464 351.4241,297.7991 353.03125,298.15625 354.63839,298.51339 369.45536,289.22767 371.0625,286.90625 372.66964,284.58482 371.59821,281.90179 373.5625,279.9375 375.52679,277.97321 382.30804,276.00447 382.84375,272.96875 383.37947,269.93304 383.20536,259.22767 381.0625,258.15625 378.91964,257.08482 371.78572,254.20535 368.75,254.5625 365.71429,254.91964 361.43303,261.00447 358.21875,260.46875 355.00446,259.93304 355.1875,258.85714 353.9375,257.25 352.6875,255.64286 353.03125,253.33482 351.78125,251.90625 350.53125,250.47767 348.5625,247.96875 348.5625,247.96875 348.5625,247.96875 351.24107,228.1384 349.8125,225.28125 348.38393,222.42411 336.0625,201.1875 336.0625,201.1875 L 323.5625,199.9375 C 323.5625,199.9375 320.16964,205.65625 317.3125,208.15625 314.45536,210.65625 310,213.15625 310,213.15625 310,213.15625 314.46875,216.1875 314.46875,218.6875 314.46875,221.1875 313.56697,224.20535 309.28125,220.8125 304.99554,217.41964 303.9375,213.15625 303.9375,213.15625 303.9375,213.15625 293.74554,211.53571 291.78125,206 289.81697,200.46428 290.90625,192.78125 290.90625,192.78125 290.90625,192.78125 288.66071,192.48661 285.9375,192.53125 Z"
         id="path4923" />
      <path
         inkscape:connector-curvature="0"
         clip-path="url(#clipPath14537)"
         id="path4930"
         d="M 280.89286,186 C 286.96429,186.89286 291.07143,174.57143 294.28571,173.32143 297.5,172.07143 297.5,174.39286 299.82143,172.25 302.14286,170.10714 300,167.07143 303.21429,164.21428 306.42857,161.35714 307.32143,162.78571 308.75,159.21428 310.17857,155.64286 307.32143,155.46428 307.85714,151.53571 308.39286,147.60714 311.78571,138.14286 310.71429,136.53571 309.64286,134.92857 308.03571,136.71428 306.96429,134.75 305.89286,132.78571 306.42857,123.67857 302.5,122.60714 298.57143,121.53571 287.32143,141.17857 284.46429,146.71428 281.60714,152.25 281.42857,153.5 278.57143,158.85714 275.71429,164.21428 273.75,165.10714 273.39286,170.82143 273.03571,176.53571 272.5,185.82143 280.89286,186 Z"
         style="fill:none;fill-opacity:1;stroke:#000000;stroke-width:1.00424;stroke-linecap:butt;stroke-linejoin:miter;stroke-miterlimit:4;stroke-dasharray:none;stroke-opacity:1" />
      <path
         inkscape:connector-curvature="0"
         clip-path="url(#clipPath14533)"
         id="path4995"
         d="M 353.21429,348.14286 C 351.29464,349.74999 347.97573,348.66284 347.67857,348.5 347.38141,348.33716 346.83239,339.64781 347.32143,339.39286 347.81047,339.13791 348.23086,339.95568 348.57143,340.10714 348.912,340.2586 348.4205,342.70227 348.66073,342.96428 348.90094,343.22629 353.03573,346.71428 353.2143,348.14286 Z"
         style="fill:none;fill-opacity:1;stroke:#000000;stroke-width:1.00424;stroke-linecap:butt;stroke-linejoin:miter;stroke-miterlimit:4;stroke-dasharray:none;stroke-opacity:1" />
    </g>
    <g
       transform="matrix(0.10455618,0,0,0.10455618,121.60843,48.073126)"
       style="display:inline;fill:none;stroke:#000000;stroke-width:1.00424;stroke-miterlimit:4;stroke-dasharray:none;stroke-opacity:1"
       id="layer16"
       inkscape:export-filename="/home/f0x/layer3.png"
       inkscape:export-xdpi="934.57831"
       inkscape:export-ydpi="934.57831">
      <path
         inkscape:connector-curvature="0"
         clip-path="url(#clipPath14525)"
         id="path4977"
         d="M 460.9375,230.25 C 460.27566,230.44685 458.03177,231.10195 455.71875,231.71875 453.04018,232.43304 451.97768,231.00447 450.90625,231.71875 449.83482,232.43304 448.91518,237.4375 445.34375,243.6875 441.77233,249.9375 436.61607,253.6875 436.4375,254.9375 436.25893,256.1875 436.4285,261.53125 437.5,270.28125 438.57143,279.03125 435.88393,282.77678 437.3125,284.5625 438.74107,286.34821 441.07589,285.64286 445.71875,291 450.3616,296.35714 448.91518,299.03571 450.34375,299.75 451.77233,300.46428 468.76339,299.55804 475.90625,298.84375 483.04911,298.12947 509.65625,291.88393 509.65625,288.3125 509.65625,284.74107 505.87947,287.7991 502.84375,284.40625 499.80804,281.01339 504.27679,279.39286 504.8125,277.25 L 506.65625,269.875 C 501.46384,263.47828 489.67156,251.5562 487.90625,250.28125 485.63341,248.63976 479.32646,249.26269 477.9375,248 476.54854,246.73731 475.53125,241.3125 475.53125,241.3125 475.53125,241.3125 475.675,241.07365 475.9375,240.75 475.41092,239.6591 473.00141,235.04758 468.09375,232.59375 465.85195,231.47285 463.32398,230.77047 460.9375,230.25 Z"
         style="fill:none;fill-opacity:1;stroke:#000000;stroke-width:1.00424;stroke-linecap:butt;stroke-linejoin:miter;stroke-miterlimit:4;stroke-dasharray:none;stroke-opacity:1" />
      <path
         inkscape:connector-curvature="0"
         clip-path="url(#clipPath14521)"
         id="path4979"
         d="M 479.46429,311.71428 C 485.35714,315.64286 488.92857,333.32143 482.5,342.78571 476.07143,352.25 469.46429,357.25 461.96429,359.92857 454.46429,362.60714 453.39286,362.25 451.78572,364.03571 450.17857,365.82143 448.92857,371.53571 445,373.67857 441.07143,375.82143 438.57143,374.39286 436.60714,374.75 434.64286,375.10714 431.25,378.67857 431.25,378.67857 431.25,378.67857 434.82143,383.14286 434.46429,385.10714 434.10714,387.07143 428.39286,401.35714 427.32143,402.07143 426.25,402.78571 408.21429,407.42857 406.96429,407.42857 405.71429,407.42857 388.03572,386.17857 376.07143,384.21428 364.10714,382.25 363.92857,381.35714 360.89286,383.14286 357.85714,384.92857 357.85714,384.92857 357.85714,384.92857 357.85714,384.92857 355.71429,381.71428 355.35714,380.28571 355,378.85714 354.46429,367.96428 355,366.35714 355.53572,364.75 379.82143,352.60714 379.82143,352.60714 379.82143,352.60714 383.21429,355.28571 387.32143,353.14286 391.42857,351 394.64286,344.39286 394.64286,344.39286 394.64286,344.39286 398.39286,346.35714 400.17857,346.35714 401.96429,346.35714 403.92857,343.32143 403.57143,341.89286 403.21429,340.46428 400.17857,340.10714 400.17857,338.67857 400.17857,337.25 404.28572,339.21428 405.17857,337.25 406.07143,335.28571 410.17857,320.82143 415.53572,318.32143 420.89286,315.82143 423.57143,317.96428 425.17857,316.35714 426.78572,314.75 426.07143,312.42857 428.57143,310.28571 431.07143,308.14286 444.82143,300.10714 446.25,300.28571 447.67857,300.46428 445.53572,302.42857 451.25,304.57143 456.96429,306.71428 458.39286,306.53571 461.42857,307.25 464.46429,307.96428 466.60714,311 469.28572,311.17857 471.96429,311.35714 477.67857,310.64286 479.46429,311.71428 Z"
         style="fill:none;fill-opacity:1;stroke:#000000;stroke-width:1.00424;stroke-linecap:butt;stroke-linejoin:miter;stroke-miterlimit:4;stroke-dasharray:none;stroke-opacity:1" />
    </g>
    <g
       transform="matrix(0.10455618,0,0,0.10455618,121.60843,48.073126)"
       style="display:inline;fill:none;stroke:#000000;stroke-width:1.00424;stroke-miterlimit:4;stroke-dasharray:none;stroke-opacity:1"
       id="layer12"
       inkscape:export-filename="/home/f0x/layer3.png"
       inkscape:export-xdpi="934.57831"
       inkscape:export-ydpi="934.57831">
      <path
         inkscape:connector-curvature="0"
         clip-path="url(#clipPath14517)"
         id="path4933"
         d="M 534.375,226.9375 527.5625,230.59375 C 527.5625,230.59375 526.6664,230.09375 525.65625,230.09375 524.6461,230.09375 523.76523,233.61485 522.25,234.625 520.73477,235.63515 514.66894,238.41259 513.40625,237.78125 512.14356,237.1499 510.4954,231.09502 507.84375,230.96875 505.1921,230.84248 502.67275,234.36865 501.03125,235 499.38976,235.63134 496.48319,240.55997 491.9375,240.8125 487.39181,241.06504 484.63182,238.27998 480.84375,238.40625 477.05568,238.53252 475.53125,241.3125 475.53125,241.3125 475.53125,241.3125 476.54854,246.73731 477.9375,248 479.32646,249.26269 485.63341,248.63976 487.90625,250.28125 490.17909,251.92275 509.125,271.25714 509.125,273.65625 509.125,276.05536 505.44511,275.91338 504.6875,278.3125 503.92988,280.71161 505.32725,282.49112 506.96875,283.375 508.61025,284.25888 514.17608,284.00967 515.3125,286.15625 516.44892,288.30282 517.06551,290.19464 513.65625,292.59375 510.24699,294.99286 486.76523,301.54347 485.25,303.4375 483.73477,305.33154 484.63467,304.82804 486.78125,309.5 488.92782,314.17195 489.40625,328.65625 489.40625,328.65625 L 489.5625,329.21875 493.5625,329.40625 504.65625,344.03125 507.15625,341.34375 510,344.5625 520.71875,334.21875 528.75,338.84375 538.75,354.75 C 538.75,354.75 536.4241,355.82143 535.53125,356 534.63839,356.17857 532.84821,359.39286 534.8125,362.25 536.77679,365.10714 542.84375,366 542.84375,366 L 535.90625,375.28125 C 535.90625,375.28125 530.16964,378.67857 528.5625,379.75 526.95536,380.82143 529.45536,390.8125 531.0625,392.0625 532.66964,393.3125 539.8125,393.3125 539.8125,393.3125 L 545.71875,408.5 551.96875,413.84375 C 551.96875,413.84375 554.81696,412.06697 556.78125,412.78125 558.74553,413.49554 558.21875,415.28125 558.21875,415.28125 558.21875,415.28125 565.35714,414.75893 570,414.9375 574.64286,415.11607 579.28125,417.96875 579.28125,417.96875 579.28125,417.96875 579.8125,412.79018 583.5625,410.46875 587.3125,408.14733 594.64286,408.48661 597.5,411.34375 600.35714,414.20089 599.81696,416.19196 600.53125,418.15625 601.24553,420.12053 608.22768,428.49107 609.65625,429.5625 611.08482,430.63393 615.34375,427.59375 615.34375,427.59375 615.34375,427.59375 617.51339,428.85268 619.65625,429.03125 621.79911,429.20982 628.39286,427.97767 630,428.15625 631.60714,428.33482 631.79911,432.4375 633.40625,432.4375 635.01339,432.4375 641.4375,428.3125 641.4375,428.3125 641.4375,428.3125 642.5,429.55804 643.75,431.34375 645,433.12947 643.91964,442.26339 644.8125,443.15625 645.70536,444.0491 646.24107,444.03125 651.0625,445.28125 654.40453,446.1477 657.4641,446.38717 659.09375,446.46875 L 660.40625,446.43755 C 660.40625,446.43755 675.45939,447.46167 679.5,445.06255 683.54061,442.66344 682.73984,437.55033 683.75,435.6563 684.76015,433.76226 688.54473,429.07143 690.3125,428.18755 692.08026,427.30367 695.37833,428.19055 698.15625,424.7813 700.93417,421.37203 698.65451,417.2142 701.9375,414.56255 705.2205,411.9109 708.62706,412.66773 711.53125,411.5313 714.43544,410.39488 716.1875,409.37505 716.1875,409.37505 716.1875,409.37505 709.49747,400.28559 709.75,396.75005 710.00254,393.21452 711.77237,383.73784 712.65625,381.8438 713.54014,379.94977 716.06758,377.05716 715.5625,371.37505 715.05742,365.69294 714.54315,361.9017 710.25,359.25005 705.95685,356.5984 706.48779,353.69516 704.59375,352.93755 702.69972,352.17993 700.52665,340.56255 697.875,340.56255 695.22335,340.56255 692.20907,351.93501 690.0625,352.18755 687.91592,352.44009 685.01825,350.80033 680.09375,348.9063 675.16926,347.01226 675.29061,344.4688 671.25,344.4688 667.20939,344.4688 666.95955,346.25132 661.65625,346.12505 656.35295,345.99878 646.125,338.93216 646.125,333.25005 646.125,327.56794 647.51015,325.04526 646.5,323.6563 645.48985,322.26734 642.21875,316.8438 642.21875,316.8438 642.21875,316.8438 647.39229,317.32397 648.78125,316.18755 650.17021,315.05113 648.51349,313.7851 650.28125,313.4063 652.04902,313.02749 656.84375,313.4063 656.84375,313.4063 L 648.40625,304.06255 648.125,292.0938 643.84375,291.8438 646.25,286.9063 627.3125,280.5938 C 627.3125,280.5938 614.29775,283.11363 612.65625,284.25005 611.01475,285.38647 610.50762,286.00846 609.75,288.2813 608.99239,290.55415 609.125,298.9063 609.125,298.9063 L 602.8125,295.37505 597.75,299.6563 594.09375,295.12505 588.03125,299.9063 584.25,293.9688 C 584.25,293.9688 585.76269,291.83032 584.5,290.06255 583.23731,288.29478 574.90625,286.2813 574.90625,286.2813 L 573.25,283.5 C 573.25,283.5 564.42402,283.75635 562.65625,283.125 560.88848,282.49366 559.61025,279.72002 557.96875,279.59375 556.32726,279.46748 547.51015,279.31758 546.5,278.8125 545.48985,278.30743 536.15244,260.76269 536.53125,259.5 536.91006,258.2373 549.7749,249.5414 550.40625,248.53125 551.03759,247.52109 551.03759,243.72763 550.40625,242.84375 549.7749,241.95986 534.375,226.9375 534.375,226.9375 Z"
         style="fill:none;fill-opacity:1;stroke:#000000;stroke-width:1.00424;stroke-linecap:butt;stroke-linejoin:miter;stroke-miterlimit:4;stroke-dasharray:none;stroke-opacity:1" />
    </g>
    <g
       transform="matrix(0.10455618,0,0,0.10455618,121.60843,48.073126)"
       style="display:inline;fill:none;stroke:#000000;stroke-width:1.00424;stroke-miterlimit:4;stroke-dasharray:none;stroke-opacity:1"
       id="layer13"
       inkscape:export-filename="/home/f0x/layer3.png"
       inkscape:export-xdpi="934.57831"
       inkscape:export-ydpi="934.57831">
      <path
         sodipodi:nodetypes="scccsscscccscccccscccscccccccscccccsscccsccccsscccccccscs"
         inkscape:connector-curvature="0"
         clip-path="url(#clipPath14513)"
         id="path4936"
         d="M 599.28125,113.40625 C 596.88214,113.40625 585.26396,126.16593 583.875,128.3125 582.48604,130.45908 576.53125,151.65625 576.53125,151.65625 H 569.84375 C 569.84375,151.65625 568.20733,153.67735 569.34375,154.6875 570.48017,155.69765 577.04981,156.35089 578.3125,158.75 579.57519,161.14911 577.16846,168.98302 579.0625,173.78125 580.95653,178.57947 591.8125,186.52442 591.8125,190.3125 591.8125,194.10057 583.62722,206.83613 577.1875,207.59375 570.74778,208.35136 569.96875,202.4375 569.96875,202.4375 569.96875,202.4375 560.26269,202.171 559,203.8125 557.7373,205.45399 557.73112,209.50793 550.28125,214.9375 543.40814,219.94671 535.64765,225.95476 534.375,226.9375 534.375,226.9375 549.7749,241.95986 550.40625,242.84375 551.03759,243.72763 551.03759,247.52109 550.40625,248.53125 549.7749,249.5414 536.91006,258.2373 536.53125,259.5 536.15244,260.76269 545.48985,278.30743 546.5,278.8125 547.51015,279.31758 556.32726,279.46748 557.96875,279.59375 559.61025,279.72002 560.88848,282.49366 562.65625,283.125 564.42402,283.75635 573.25,283.5 573.25,283.5 L 574.90625,286.28125 C 574.90625,286.28125 583.23731,288.29473 584.5,290.0625 585.76269,291.83027 584.25,293.96875 584.25,293.96875 L 588.03125,299.90625 594.09375,295.125 597.75,299.65625 602.8125,295.375 609.125,298.90625 C 609.125,298.90625 608.99239,290.5541 609.75,288.28125 610.50762,286.00841 611.01475,285.38642 612.65625,284.25 614.29775,283.11358 627.3125,280.59375 627.3125,280.59375 L 646.25,286.90625 643.84375,291.84375 648.125,292.09375 648.40625,289.8125 C 648.40625,289.8125 660.65102,284.37246 670.5,284.625 680.34899,284.87754 684.89737,288.53125 685.78125,288.53125 686.66513,288.53125 690.93448,285.15118 694.34375,285.65625 697.75301,286.16133 703.80822,290.32139 707.34375,289.4375 710.87928,288.55362 710.78125,288.28125 710.78125,288.28125 710.78125,288.28125 709.61992,272.0027 710.125,262.40625 710.63008,252.8098 713.15625,225.03125 713.15625,225.03125 713.15625,225.03125 708.36405,225.67148 706.34375,224.15625 704.32344,222.64102 707.73271,219.11024 706.34375,217.46875 704.95479,215.82725 699.90625,215.1875 699.90625,215.1875 699.90625,215.1875 705.22256,206.71034 704.84375,204.4375 704.46494,202.16466 698.52665,201.92703 695.875,196.75 693.22335,191.57297 694.22304,191.44813 690.6875,187.28125 687.15197,183.11437 675.02157,171.25429 672.875,167.71875 670.72842,164.18322 649.90799,142.82773 646.625,141.3125 638.10908,127.14316 631.92097,142.99913 629.71875,144.09375 626.81457,143.71494 625.14404,141.93924 623.25,138.65625 621.35597,135.37325 622.4916,132.48778 620.21875,130.59375 617.94591,128.69971 616.43671,131.59042 613.40625,128.8125 610.3758,126.03458 610.90371,125.7914 611.15625,124.78125 611.40879,123.7711 612.65752,122.50889 612.53125,121.625 612.40498,120.74112 601.68036,113.40625 599.28125,113.40625 Z"
         style="fill:none;fill-opacity:1;stroke:#000000;stroke-width:1.00424;stroke-linecap:butt;stroke-linejoin:miter;stroke-miterlimit:4;stroke-dasharray:none;stroke-opacity:1" />
    </g>
    <g
       transform="matrix(0.10455618,0,0,0.10455618,121.60843,48.073126)"
       style="display:inline;fill:#ff0000;fill-opacity:1;stroke:#000000;stroke-width:1.00424;stroke-miterlimit:4;stroke-dasharray:none;stroke-opacity:1"
       id="layer14"
       inkscape:export-filename="/home/f0x/layer3.png"
       inkscape:export-xdpi="934.57831"
       inkscape:export-ydpi="934.57831">
      <path
         sodipodi:nodetypes="csssssscccsssssccccscscccccccsscccccscssssscssssccssscssscssccc"
         inkscape:connector-curvature="0"
         clip-path="url(#clipPath14509)"
         id="path4947"
         d="M 642.375,34.375 C 641.42379,34.551086 641.26333,35.933058 639.9375,36.375 638.42227,36.880076 637.0119,35.89229 632.71875,37.28125 628.4256,38.67021 625.79188,41.954791 621.625,43.34375 617.45812,44.73271 621.37945,42.581852 608.5,46.875 595.62056,51.168149 593.46082,48.373731 588.03125,48.5 582.60168,48.626269 570.27339,51.915798 566.73786,51.915798 563.20233,51.915798 530.04352,52.953815 529.78889,53.630472 519.88264,56.239288 551.45362,43.421517 556.59375,98.25 554.95226,101.28046 551.66386,101.9256 550.90625,106.21875 550.14863,110.51189 554.3125,108.72414 554.3125,114.40625 554.3125,120.08835 543.84248,124.02602 543.96875,133.875 544.09502,143.72399 552.67052,144.85977 557.46875,146.375 562.26697,147.89023 561.51095,144.71875 563.53125,144.71875 565.55156,144.71875 564.67227,146.22842 566.1875,148.375 567.56958,150.33295 569.39422,151.62555 569.71875,151.84375 569.76595,151.77985 569.84375,151.65625 569.84375,151.65625 H 576.53125 C 576.53125,151.65625 582.48604,130.45908 583.875,128.3125 585.26396,126.16593 596.88214,113.40625 599.28125,113.40625 601.68036,113.40625 612.40498,120.74112 612.53125,121.625 612.65752,122.50889 611.40879,123.7711 611.15625,124.78125 610.90371,125.7914 610.3758,126.03458 613.40625,128.8125 616.43671,131.59042 617.94591,128.69971 620.21875,130.59375 622.4916,132.48778 621.35597,135.37325 623.25,138.65625 625.14404,141.93924 626.81457,143.71494 629.71875,144.09375 646.53859,127.05272 638.23311,141.27052 646.625,141.3125 649.90799,142.82773 670.72842,164.18322 672.875,167.71875 675.02157,171.25429 687.15197,183.11437 690.6875,187.28125 694.22304,191.44813 693.22335,191.57297 695.875,196.75 698.52665,201.92703 704.46494,202.16466 704.84375,204.4375 705.22256,206.71034 699.90625,215.1875 699.90625,215.1875 699.90625,215.1875 704.95479,215.82725 706.34375,217.46875 707.73271,219.11024 704.32344,222.64102 706.34375,224.15625 708.36405,225.67148 713.15625,225.03125 713.15625,225.03125 713.15625,225.03125 713.12595,225.42757 713.12505,225.4375 713.62827,223.70368 715.51568,217.40624 716.7188,215.4375 718.10776,213.16466 724.52447,205.70241 728.31255,198 732.10062,190.29759 730.32984,184.99842 731.7188,178.9375 733.10776,172.87658 735.5313,173.77158 735.5313,171.625 735.5313,169.47843 734.38901,169.60184 733.00005,165.6875 731.61109,161.77316 732.47261,161.25143 732.0938,151.78125 731.71499,142.31107 726.56255,139.43544 726.56255,136.53125 726.56255,133.62706 728.95991,131.33534 729.8438,129.0625 730.72768,126.78965 729.33238,127.68671 730.4688,124.65625 731.60522,121.62579 733.24878,121.85644 733.37505,120.59375 733.50132,119.33106 731.9688,118.60137 731.9688,117.84375 731.9688,117.08614 734.12505,115.04775 734.12505,113.40625 734.12505,111.76476 730.8438,104.4375 730.8438,104.4375 730.8438,104.4375 728.43422,104.82139 725.6563,103.9375 722.87838,103.05362 723.00561,102.41894 719.3438,101.15625 715.682,99.893563 715.82572,102.18417 711.4063,99.40625 706.98688,96.62833 708.23276,94.225572 706.8438,90.4375 705.45484,86.649428 709.38521,82.353903 708.37505,81.34375 707.3649,80.333597 706.71547,82.230963 703.93755,84.125 701.15963,86.019036 696.76036,84.611994 686.4063,79.6875 676.05223,74.763006 673.25306,71.096449 669.8438,61.5 666.43453,51.903551 667.44771,49.64832 666.43755,44.21875 665.4274,38.78918 661.26528,36.501269 659.75005,36.375 658.23482,36.248731 657.47055,38.652443 654.18755,39.03125 650.90456,39.410057 644.23276,34.627538 642.8438,34.375 642.67018,34.34343 642.51094,34.34985 642.37505,34.375 Z"
         style="fill:none;fill-opacity:1;stroke:#000000;stroke-width:1.00424;stroke-linecap:butt;stroke-linejoin:miter;stroke-miterlimit:4;stroke-dasharray:none;stroke-opacity:1" />
      <path
         inkscape:connector-curvature="0"
         clip-path="url(#clipPath14505)"
         id="path4949"
         d="M 586.96429,11.892855 C 586.60714,16.357141 600.89286,13.142855 602.32143,11.892855 603.75,10.642855 598.92857,8.3214267 596.07143,8.3214267 593.21429,8.3214267 587.5,8.4999982 586.96429,11.892855 Z"
         style="fill:none;fill-opacity:1;stroke:#000000;stroke-width:1.00424;stroke-linecap:butt;stroke-linejoin:miter;stroke-miterlimit:4;stroke-dasharray:none;stroke-opacity:1" />
      <path
         inkscape:connector-curvature="0"
         clip-path="url(#clipPath14501)"
         id="path4951"
         d="M 610.89286,8.1428553 C 607.85714,10.464284 611.60714,12.607141 615,13.142855 618.39286,13.67857 621.78572,8.4999982 621.07143,7.9642839 620.35714,7.4285696 612.67857,7.4285696 610.89286,8.1428553 Z"
         style="fill:none;fill-opacity:1;stroke:#000000;stroke-width:1.00424;stroke-linecap:butt;stroke-linejoin:miter;stroke-miterlimit:4;stroke-dasharray:none;stroke-opacity:1" />
    </g>
    <g
       transform="matrix(0.10455618,0,0,0.10455618,121.60843,48.073126)"
       style="display:inline;fill:none;fill-opacity:1;stroke:#000000;stroke-width:1.00424;stroke-miterlimit:4;stroke-dasharray:none;stroke-opacity:1"
       id="layer15"
       inkscape:export-filename="/home/f0x/layer3.png"
       inkscape:export-xdpi="934.57831"
       inkscape:export-ydpi="934.57831">
      <path
         sodipodi:nodetypes="ccccssccssssscscsscccccscscscsccscssccscccscsccsssssccccccc"
         inkscape:connector-curvature="0"
         clip-path="url(#clipPath14497)"
         id="path4954"
         d="M 529.625,54.0625 C 524.00717,54.13787 507.24545,56.429846 503.8125,57.96875 500.1507,59.610248 500.2868,60.010944 496.625,62.03125 492.96319,64.051555 490.81425,62.889752 487.53125,64.53125 484.24826,66.172748 478.1829,68.699714 475.53125,70.59375 472.8796,72.487786 462.13309,74.759675 458.21875,76.90625 454.30441,79.052824 439.42656,84.987309 437.40625,86.25 435.38595,87.51269 429.94639,95.725888 429.0625,98.125 428.17862,100.52411 423.75428,103.32091 420.21875,105.59375 416.68322,107.86659 412.658,110.51427 409.375,115.3125 406.092,120.11072 405.07646,128.18702 403.6875,131.34375 402.29854,134.50048 403.17656,141.06075 401.15625,144.34375 399.13595,147.62674 397.35644,147.1131 396.09375,151.40625 394.83106,155.6994 400.65752,162.38927 400.53125,167.1875 400.40499,171.98572 399.5,172.00587 399.5,174.53125 399.5,177.05663 400.64609,181.22081 401.65625,184.125 402.6664,187.02919 403.4375,194.85168 403.4375,200.28125 403.4375,205.71082 401.91894,208.98604 400.65625,210.375 399.39356,211.76396 394.71368,213.92941 395.21875,217.84375 395.72383,221.75809 406.09581,227.17861 409,228.0625 411.90419,228.94638 415.03966,225.40245 417.3125,225.78125 419.58534,226.16006 426.91593,232.34122 429.0625,232.59375 431.20908,232.84629 431.95812,231.72256 436.125,231.34375 440.29188,230.96495 437.00968,229.07773 439.15625,227.5625 441.30282,226.04727 440.55949,227.5635 443.96875,227.4375 447.37802,227.31123 446.60469,225.28125 448.625,225.28125 450.64531,225.28125 450.79092,227.30108 452.9375,228.4375 455.08407,229.57393 462.53791,229.81583 468.09375,232.59375 473.00141,235.04758 475.41092,239.6591 475.9375,240.75 476.59988,239.93332 478.13082,238.49668 480.84375,238.40625 484.63182,238.27998 487.39181,241.06504 491.9375,240.8125 496.48319,240.55997 499.38976,235.63134 501.03125,235 502.67275,234.36865 505.1921,230.84248 507.84375,230.96875 510.4954,231.09502 512.14356,237.1499 513.40625,237.78125 514.66894,238.41259 520.73477,235.63515 522.25,234.625 523.76523,233.61485 524.6461,230.09375 525.65625,230.09375 526.6664,230.09375 527.5625,230.59375 527.5625,230.59375 L 534.375,226.9375 C 535.64765,225.95476 543.40814,219.94671 550.28125,214.9375 557.73112,209.50793 557.7373,205.45399 559,203.8125 560.26269,202.171 569.96875,202.4375 569.96875,202.4375 569.96875,202.4375 570.74778,208.35136 577.1875,207.59375 583.62722,206.83613 591.8125,194.10057 591.8125,190.3125 591.8125,186.52442 580.95653,178.57947 579.0625,173.78125 577.16846,168.98302 579.57519,161.14911 578.3125,158.75 577.04981,156.35089 570.48017,155.69765 569.34375,154.6875 568.35783,153.81113 569.40985,152.26204 569.71875,151.84375 569.39422,151.62555 567.56958,150.33295 566.1875,148.375 564.67227,146.22842 565.55156,144.71875 563.53125,144.71875 561.51095,144.71875 562.26697,147.89023 557.46875,146.375 552.67052,144.85977 544.09502,143.72399 543.96875,133.875 543.84248,124.02602 554.3125,120.08835 554.3125,114.40625 554.3125,108.72414 550.14863,110.51189 550.90625,106.21875 551.66386,101.9256 554.95226,101.28046 556.59375,98.25 553.61299,65.084583 541.08467,55.920148 530.59375,54.0625 530.32543,54.04672 529.99952,54.0575 529.625,54.0625 Z M 600.53125,113.71875 C 600.99842,113.90285 601.5348,114.1672 602.125,114.46875 601.53832,114.16899 600.99657,113.8987 600.53125,113.71875 Z"
         style="fill:none;fill-opacity:1;stroke:#000000;stroke-width:1.00424;stroke-linecap:butt;stroke-linejoin:miter;stroke-miterlimit:4;stroke-dasharray:none;stroke-opacity:1" />
      <path
         inkscape:connector-curvature="0"
         clip-path="url(#clipPath14493)"
         id="path4958"
         d="M 506.84404,35.754857 C 506.84404,31.966785 494.72221,32.724399 488.66129,32.976937 482.60038,33.229475 477.29708,32.976937 471.23616,34.492166 465.17525,36.007395 465.17525,38.280238 459.11433,38.532776 453.05342,38.785314 443.96204,36.007395 441.18412,36.007395 438.40621,36.007395 435.37575,41.563234 438.15367,44.593692 440.93159,47.624149 442.19428,49.391916 448.00265,49.139378 453.81103,48.88684 458.86179,41.310696 462.9024,41.310696 466.94301,41.310696 465.68032,43.836077 468.71078,43.836077 471.74124,43.836077 485.12576,39.542929 491.69175,39.542929 498.25774,39.542929 506.84404,39.290391 506.84404,35.754857 Z"
         style="display:inline;fill:none;fill-opacity:1;stroke:#000000;stroke-width:1.00424;stroke-linecap:butt;stroke-linejoin:miter;stroke-miterlimit:4;stroke-dasharray:none;stroke-opacity:1" />
      <path
         inkscape:connector-curvature="0"
         clip-path="url(#clipPath14489)"
         id="path4960"
         d="M 427.29453,42.320848 C 429.56737,47.876687 417.44554,47.876687 414.92016,50.654607 412.39478,53.432526 415.67777,54.190141 412.39478,55.957908 409.11178,57.725675 403.80848,54.947755 398.50518,57.220598 393.20188,59.493442 393.95949,61.261209 391.43411,62.776437 388.90873,64.291666 387.64604,62.271361 385.87827,63.028976 384.11051,63.78659 384.61558,64.291666 381.58512,64.796742 378.55467,65.301819 376.28182,63.78659 369.96837,67.574662 363.65492,71.362734 363.90745,69.594967 361.38207,72.877963 358.85669,76.160959 360.11938,77.171111 357.84654,77.928726 355.5737,78.68634 353.55339,72.372887 354.81608,68.837353 356.07877,65.301819 367.44299,57.725675 370.47345,56.462984 373.5039,55.200293 391.43411,48.88684 396.98995,48.88684 402.54579,48.88684 411.63716,43.836077 416.94046,42.573386 422.24376,41.310696 426.03184,40.300543 427.29453,42.320848 Z"
         style="display:inline;fill:none;fill-opacity:1;stroke:#000000;stroke-width:1.00424;stroke-linecap:butt;stroke-linejoin:miter;stroke-miterlimit:4;stroke-dasharray:none;stroke-opacity:1" />
      <path
         inkscape:connector-curvature="0"
         clip-path="url(#clipPath14485)"
         id="path4964"
         d="M 380.354,99.80484 C 381.20632,100.37305 381.42729,107.28628 377.76549,105.13971 374.10368,102.99313 379.53325,99.299764 380.354,99.80484 Z"
         style="display:inline;fill:none;fill-opacity:1;stroke:#000000;stroke-width:1.00424;stroke-linecap:butt;stroke-linejoin:miter;stroke-miterlimit:4;stroke-dasharray:none;stroke-opacity:1" />
      <path
         inkscape:connector-curvature="0"
         clip-path="url(#clipPath14481)"
         id="path4966"
         d="M 358.47789,85.757407 C 359.86684,86.893829 355.19489,94.722511 352.79578,93.459821 350.39666,92.19713 356.45758,83.232026 358.47789,85.757407 Z"
         style="display:inline;fill:none;fill-opacity:1;stroke:#000000;stroke-width:1.00424;stroke-linecap:butt;stroke-linejoin:miter;stroke-miterlimit:4;stroke-dasharray:none;stroke-opacity:1" />
      <path
         inkscape:connector-curvature="0"
         clip-path="url(#clipPath14477)"
         id="path4968"
         d="M 344.08321,86.262484 C 347.87128,89.671749 337.39095,95.480126 334.86557,96.742816 332.34019,98.005507 331.33004,94.975049 327.92077,97.500431 324.51151,100.02581 328.04704,102.42492 326.53181,104.5715 325.01658,106.71807 323.24882,105.45538 318.8294,110.00107 314.40998,114.54676 315.42013,116.69333 313.39983,117.32467 311.37952,117.95602 305.06607,115.05183 305.06607,113.1578 305.06607,111.26376 309.35922,106.33927 314.66252,102.04612 319.96582,97.752969 327.54196,94.343704 333.35034,89.798018 339.15872,85.252331 343.07306,84.747255 344.08321,86.262484 Z"
         style="display:inline;fill:none;fill-opacity:1;stroke:#000000;stroke-width:1.00424;stroke-linecap:butt;stroke-linejoin:miter;stroke-miterlimit:4;stroke-dasharray:none;stroke-opacity:1" />
      <path
         inkscape:connector-curvature="0"
         clip-path="url(#clipPath14473)"
         id="path4956"
         d="M 572.50396,21.107645 C 573.38783,23.506757 570.87591,24.355904 568.3055,25.274524 566.74808,25.83112 565.30662,25.337654 563.41258,26.158408 560.48156,27.428515 559.37197,29.94648 553.81613,31.966785 548.26029,33.98709 544.47222,31.714247 539.92654,34.492166 535.38085,37.270086 536.13846,41.310696 533.86562,41.310696 531.59278,41.310696 527.55217,36.512471 529.82501,30.956632 532.09785,25.400793 536.64354,23.380488 546.49253,24.390641 556.34151,25.400793 566.44861,20.525833 569.22096,20.35003 570.47539,20.27048 572.10803,20.455954 572.50396,21.107645 Z"
         style="fill:none;fill-opacity:1;stroke:#000000;stroke-width:1.00424;stroke-linecap:butt;stroke-linejoin:miter;stroke-miterlimit:4;stroke-dasharray:none;stroke-opacity:1" />
    </g>
    <g
       transform="matrix(0.09293883,0,0,0.09293883,125.98723,51.567958)"
       style="display:inline;stroke:#000000;stroke-opacity:1"
       id="layer17" />
    <g
       transform="matrix(0.10455618,0,0,0.10455618,121.60843,48.073126)"
       style="display:inline;stroke:#000000;stroke-width:1.00424;stroke-miterlimit:4;stroke-dasharray:none;stroke-opacity:1"
       id="layer18"
       inkscape:export-filename="/home/f0x/layer3.png"
       inkscape:export-xdpi="934.57831"
       inkscape:export-ydpi="934.57831">
      <path
         inkscape:connector-curvature="0"
         clip-path="url(#clipPath13969)"
         id="path5848"
         d="M 380.53572,275.28571 394.46429,278.85714 414.10714,306.35714 415.53572,314.03571 407.32143,319.21428 412.67857,321.71428"
         style="fill:none;stroke:#000000;stroke-width:1.00424;stroke-linecap:butt;stroke-linejoin:miter;stroke-miterlimit:4;stroke-dasharray:none;stroke-opacity:1" />
      <path
         inkscape:connector-curvature="0"
         clip-path="url(#clipPath13965)"
         id="path5850"
         d="M 343.57143,354.75 347.5,348.85714"
         style="fill:none;stroke:#000000;stroke-width:1.00424;stroke-linecap:butt;stroke-linejoin:miter;stroke-miterlimit:4;stroke-dasharray:none;stroke-opacity:1" />
      <path
         inkscape:connector-curvature="0"
         clip-path="url(#clipPath13961)"
         id="path5852"
         d="M 400.22097,338.22586 398.39286,337.78571 391.78572,342.78571 389.46429,346.17857 378.57143,353.5"
         style="fill:none;stroke:#000000;stroke-width:1.00424;stroke-linecap:butt;stroke-linejoin:miter;stroke-miterlimit:4;stroke-dasharray:none;stroke-opacity:1" />
      <path
         inkscape:connector-curvature="0"
         clip-path="url(#clipPath13957)"
         id="path5854"
         d="M 444.64286,373.85714 445.53572,378.14286"
         style="fill:none;stroke:#000000;stroke-width:1.00424;stroke-linecap:butt;stroke-linejoin:miter;stroke-miterlimit:4;stroke-dasharray:none;stroke-opacity:1" />
      <path
         inkscape:connector-curvature="0"
         clip-path="url(#clipPath13953)"
         id="path5856"
         d="M 396.60714,153.67857 392.5,157.42857 382.14286,160.10714 372.32143,168.67857 358.39286,179.92857 335.53571,201.17857"
         style="fill:none;stroke:#000000;stroke-width:1.00424;stroke-linecap:butt;stroke-linejoin:miter;stroke-miterlimit:4;stroke-dasharray:none;stroke-opacity:1" />
      <path
         inkscape:connector-curvature="0"
         clip-path="url(#clipPath13949)"
         id="path5858"
         d="M 304.82143,213.85714 310.17857,213.14286"
         style="fill:none;stroke:#000000;stroke-width:1.00424;stroke-linecap:butt;stroke-linejoin:miter;stroke-miterlimit:4;stroke-dasharray:none;stroke-opacity:1" />
      <path
         inkscape:connector-curvature="0"
         clip-path="url(#clipPath13941)"
         id="path5862"
         d="M 69.06918,611.03673 75.130095,610.27912"
         style="fill:none;stroke:#000000;stroke-width:1.00424;stroke-linecap:butt;stroke-linejoin:miter;stroke-miterlimit:4;stroke-dasharray:none;stroke-opacity:1" />
      <path
         inkscape:connector-curvature="0"
         clip-path="url(#clipPath13937)"
         id="path5864"
         d="M 82.327433,607.24866 V 601.18774 C 82.327433,601.18774 83.337585,597.90475 86.115505,595.63191 88.893424,593.35906 89.903577,592.09637 89.903577,592.09637 V 585.78292"
         style="fill:none;stroke:#000000;stroke-width:1.00424;stroke-linecap:butt;stroke-linejoin:miter;stroke-miterlimit:4;stroke-dasharray:none;stroke-opacity:1" />
      <path
         inkscape:connector-curvature="0"
         clip-path="url(#clipPath13933)"
         id="path5866"
         d="M 106.5711,564.31718 111.62186,557.49865 C 111.62186,557.49865 114.90485,557.75119 116.92516,555.47834 118.94546,553.2055 117.93531,551.94281 117.93531,551.94281"
         style="fill:none;stroke:#000000;stroke-width:1.00424;stroke-linecap:butt;stroke-linejoin:miter;stroke-miterlimit:4;stroke-dasharray:none;stroke-opacity:1" />
      <path
         inkscape:connector-curvature="0"
         clip-path="url(#clipPath13929)"
         id="path5868"
         d="M 160.86679,586.03546 166.67517,584.01515 170.2107,583.76261"
         style="fill:none;stroke:#000000;stroke-width:1.00424;stroke-linecap:butt;stroke-linejoin:miter;stroke-miterlimit:4;stroke-dasharray:none;stroke-opacity:1" />
      <path
         inkscape:connector-curvature="0"
         clip-path="url(#clipPath13925)"
         id="path5870"
         d="M 174.25131,592.60145 170.46324,583.51008 172.73609,579.97454"
         style="fill:none;stroke:#000000;stroke-width:1.00424;stroke-linecap:butt;stroke-linejoin:miter;stroke-miterlimit:4;stroke-dasharray:none;stroke-opacity:1" />
      <path
         inkscape:connector-curvature="0"
         clip-path="url(#clipPath13921)"
         id="path5872"
         d="M 182.08,656.4936 181.32238,642.09892 176.01908,638.56339 V 634.27024"
         style="fill:none;stroke:#000000;stroke-width:1.00424;stroke-linecap:butt;stroke-linejoin:miter;stroke-miterlimit:4;stroke-dasharray:none;stroke-opacity:1" />
      <path
         inkscape:connector-curvature="0"
         transform="translate(1.6694975,1.1924982)"
         clip-path="url(#clipPath13917)"
         id="path5874"
         d="M 154.55334,531.73976 148.9975,536.53798"
         style="fill:none;stroke:#000000;stroke-width:1.00424;stroke-linecap:butt;stroke-linejoin:miter;stroke-miterlimit:4;stroke-dasharray:none;stroke-opacity:1" />
      <path
         inkscape:connector-curvature="0"
         clip-path="url(#clipPath13913)"
         id="path5876"
         d="M 187.88076,676.10036 184.1003,676.19156 187.13076,682.25248 184.85792,684.77786"
         style="fill:none;stroke:#000000;stroke-width:1.00424;stroke-linecap:butt;stroke-linejoin:miter;stroke-miterlimit:4;stroke-dasharray:none;stroke-opacity:1" />
    </g>
  </g>
</svg>
