M48
; DRILL file {KiCad (5.1.5-0-10_14)} date 2019 December 23, Monday 02:41:27
; FORMAT={3:3/ absolute / metric / suppress leading zeros}
; #@! TF.CreationDate,2019-12-23T02:41:27+01:00
; #@! TF.GenerationSoftware,Kicad,Pcbnew,(5.1.5-0-10_14)
FMAT,2
METRIC,TZ
T1C0.400
T2C1.400
T3C3.200
%
G90
G05
T1
X39980Y-74381
X40696Y-65380
X40970Y-60371
X40970Y-61938
X41514Y-69982
X41524Y-75016
X43139Y-75692
X44252Y-69840
X45507Y-66055
X45593Y-79238
X45999Y-77302
X46010Y-73975
X46010Y-75535
X46248Y-70063
X46843Y-72395
X47777Y-73960
X47777Y-75535
X47777Y-77292
X49474Y-77297
X49489Y-73975
X49489Y-75535
X51156Y-73970
X51201Y-78852
X54823Y-73010
X57658Y-112370
X59436Y-56291
X60046Y-73157
X60559Y-109804
X60594Y-115006
X61646Y-61864
X62621Y-111933
X64663Y-105715
X65354Y-155184
X66355Y-99888
X66594Y-112989
X67031Y-107843
X67610Y-158100
X68209Y-115844
X68209Y-123464
X68529Y-121544
X68560Y-97373
X68621Y-150175
X68707Y-120289
X69159Y-110774
X69271Y-104023
X69540Y-115722
X69830Y-155829
X70007Y-91791
X70556Y-112846
X71049Y-99446
X72141Y-78638
X72141Y-123226
X72187Y-158288
X72329Y-113365
X72695Y-150586
X72842Y-94966
X73005Y-73269
X73020Y-66365
X73533Y-122631
X73802Y-121351
X75662Y-80371
X76388Y-75214
X77500Y-68539
X78516Y-65182
X78715Y-103083
X80061Y-102133
X80228Y-104536
X82017Y-103139
X83297Y-97231
X84201Y-94635
X85120Y-94092
X87229Y-97292
X87940Y-160696
X88097Y-94595
X88194Y-96236
X89327Y-106731
X89621Y-153584
X89667Y-113492
X89819Y-117688
X90109Y-157190
X90541Y-116246
X91887Y-161950
X91968Y-111008
X92202Y-115418
X92426Y-109799
X93269Y-114645
X93284Y-102702
X94503Y-114544
X94991Y-116200
X95240Y-154478
X95570Y-112268
X95809Y-115418
X95905Y-111201
X97993Y-109123
X99157Y-120183
X99177Y-147036
X99964Y-104805
X100210Y-145664
X100249Y-144008
X101564Y-148118
X101813Y-109520
X101874Y-141671
X103210Y-106035
X103307Y-108732
X103734Y-146334
X103869Y-107093
X104536Y-164455
X104714Y-145049
X104739Y-111201
X105816Y-112268
X106131Y-113980
X107366Y-116586
X107674Y-167222
X107742Y-111201
X108240Y-161793
X108727Y-112268
X108768Y-115382
X109063Y-164592
X111252Y-120178
X111313Y-52019
X111666Y-115150
X111770Y-167554
X111785Y-58257
X112254Y-120437
X113187Y-59080
X113411Y-163606
X113980Y-115179
X113987Y-51294
X114864Y-116774
X115504Y-117958
X116276Y-159019
X116586Y-109057
X118120Y-114285
X118278Y-174259
X119985Y-168808
X120086Y-175498
X120406Y-106045
X120660Y-112918
X120838Y-107183
X120848Y-111201
X121011Y-175948
X121564Y-140132
X121656Y-155946
X121676Y-170952
X121737Y-142438
X121818Y-92268
X122107Y-116190
X122144Y-86004
X122230Y-138120
X122530Y-127930
X122657Y-120355
X123226Y-116190
X123327Y-85461
X123388Y-91745
X123449Y-126909
X124297Y-121808
X124384Y-107183
X124455Y-123302
X124795Y-138445
X124816Y-113762
X124877Y-105948
X125496Y-151811
X126477Y-153604
X127442Y-152004
X127640Y-144988
X142098Y-131176
X147848Y-103962
X147935Y-102519
X148133Y-106126
X149362Y-106660
X149540Y-41377
X156505Y-76723
T2
X142629Y-149738
X147709Y-149738
T3
X39223Y-181249
X154650Y-181427
X154681Y-35992
X40137Y-36520
T0
M30
