G04 #@! TF.GenerationSoftware,KiCad,Pcbnew,(5.1.5-0-10_14)*
G04 #@! TF.CreationDate,2019-12-23T04:06:36+01:00*
G04 #@! TF.ProjectId,hackerspacesnl,6861636b-6572-4737-9061-6365736e6c2e,rev?*
G04 #@! TF.SameCoordinates,Original*
G04 #@! TF.FileFunction,Paste,Bot*
G04 #@! TF.FilePolarity,Positive*
%FSLAX46Y46*%
G04 Gerber Fmt 4.6, Leading zero omitted, Abs format (unit mm)*
G04 Created by KiCad (PCBNEW (5.1.5-0-10_14)) date 2019-12-23 04:06:36*
%MOMM*%
%LPD*%
G04 APERTURE LIST*
%ADD10R,1.000000X2.510000*%
%ADD11R,0.900000X2.000000*%
%ADD12R,2.000000X0.900000*%
%ADD13R,5.000000X5.000000*%
%ADD14R,1.000000X1.700000*%
G04 APERTURE END LIST*
D10*
X43677840Y-58834400D03*
X38597840Y-58834400D03*
X41137840Y-55524400D03*
X36057840Y-55524400D03*
D11*
X40264700Y-85135100D03*
X41534700Y-85135100D03*
X42804700Y-85135100D03*
X44074700Y-85135100D03*
X45344700Y-85135100D03*
X46614700Y-85135100D03*
X47884700Y-85135100D03*
X49154700Y-85135100D03*
X50424700Y-85135100D03*
X51694700Y-85135100D03*
X52964700Y-85135100D03*
X54234700Y-85135100D03*
X55504700Y-85135100D03*
X56774700Y-85135100D03*
D12*
X57774700Y-82350100D03*
X57774700Y-81080100D03*
X57774700Y-79810100D03*
X57774700Y-78540100D03*
X57774700Y-77270100D03*
X57774700Y-76000100D03*
X57774700Y-74730100D03*
X57774700Y-73460100D03*
X57774700Y-72190100D03*
X57774700Y-70920100D03*
D11*
X56774700Y-68135100D03*
X55504700Y-68135100D03*
X54234700Y-68135100D03*
X52964700Y-68135100D03*
X51694700Y-68135100D03*
X50424700Y-68135100D03*
X49154700Y-68135100D03*
X47884700Y-68135100D03*
X46614700Y-68135100D03*
X45344700Y-68135100D03*
X44074700Y-68135100D03*
X42804700Y-68135100D03*
X41534700Y-68135100D03*
X40264700Y-68135100D03*
D13*
X47764700Y-75635100D03*
D14*
X57779920Y-53380640D03*
X57779920Y-59680640D03*
X61579920Y-53380640D03*
X61579920Y-59680640D03*
X48300640Y-53314600D03*
X48300640Y-59614600D03*
X52100640Y-53314600D03*
X52100640Y-59614600D03*
M02*
