%TF.GenerationSoftware,KiCad,Pcbnew,7.0.10*%
%TF.CreationDate,2024-02-18T18:29:23+01:00*%
%TF.ProjectId,hackerspacesnl,6861636b-6572-4737-9061-6365736e6c2e,rev?*%
%TF.SameCoordinates,Original*%
%TF.FileFunction,Drillmap*%
%TF.FilePolarity,Positive*%
%FSLAX45Y45*%
G04 Gerber Fmt 4.5, Leading zero omitted, Abs format (unit mm)*
G04 Created by KiCad (PCBNEW 7.0.10) date 2024-02-18 18:29:23*
%MOMM*%
%LPD*%
G01*
G04 APERTURE LIST*
%ADD10C,0.100000*%
%ADD11C,0.050000*%
%ADD12C,0.200000*%
%ADD13C,0.320000*%
G04 APERTURE END LIST*
D10*
X3223937Y-3686033D02*
X3224970Y-3644873D01*
X3223937Y-18041127D02*
X3223937Y-3686033D01*
X3224970Y-3644873D02*
X3228036Y-3604267D01*
X3224970Y-18082286D02*
X3223937Y-18041127D01*
X3228036Y-3604267D02*
X3233086Y-3564265D01*
X3228036Y-18122892D02*
X3224970Y-18082286D01*
X3233086Y-3564265D02*
X3240071Y-3524915D01*
X3233086Y-18162895D02*
X3228036Y-18122892D01*
X3240071Y-3524915D02*
X3248942Y-3486267D01*
X3240071Y-18202244D02*
X3233086Y-18162895D01*
X3248942Y-3486267D02*
X3259648Y-3448371D01*
X3248942Y-18240892D02*
X3240071Y-18202244D01*
X3259648Y-3448371D02*
X3272141Y-3411276D01*
X3259648Y-18278788D02*
X3248942Y-18240892D01*
X3272141Y-3411276D02*
X3286371Y-3375031D01*
X3272141Y-18315883D02*
X3259648Y-18278788D01*
X3286371Y-3375031D02*
X3302289Y-3339685D01*
X3286371Y-18352129D02*
X3272141Y-18315883D01*
X3302289Y-3339685D02*
X3319846Y-3305288D01*
X3302289Y-18387474D02*
X3286371Y-18352129D01*
X3319846Y-3305288D02*
X3338993Y-3271890D01*
X3319846Y-18421871D02*
X3302289Y-18387474D01*
X3338993Y-3271890D02*
X3359679Y-3239539D01*
X3338993Y-18455269D02*
X3319846Y-18421871D01*
X3359679Y-3239539D02*
X3381857Y-3208285D01*
X3359679Y-18487620D02*
X3338993Y-18455269D01*
X3381857Y-3208285D02*
X3405475Y-3178177D01*
X3381857Y-18518874D02*
X3359679Y-18487620D01*
X3405475Y-3178177D02*
X3430486Y-3149266D01*
X3405475Y-18548982D02*
X3381857Y-18518874D01*
X3430486Y-3149266D02*
X3456839Y-3121599D01*
X3430486Y-18577894D02*
X3405475Y-18548982D01*
X3456839Y-3121599D02*
X3484486Y-3095226D01*
X3456839Y-18605561D02*
X3430486Y-18577894D01*
X3484486Y-3095226D02*
X3513377Y-3070197D01*
X3484486Y-18631933D02*
X3456839Y-18605561D01*
X3513377Y-3070197D02*
X3543463Y-3046562D01*
X3513377Y-18656962D02*
X3484486Y-18631933D01*
X3543463Y-3046562D02*
X3574695Y-3024368D01*
X3543463Y-18680598D02*
X3513377Y-18656962D01*
X3574695Y-3024368D02*
X3607022Y-3003667D01*
X3574695Y-18702791D02*
X3543463Y-18680598D01*
X3607022Y-3003667D02*
X3640397Y-2984507D01*
X3607022Y-18723492D02*
X3574695Y-18702791D01*
X3640397Y-2984507D02*
X3674768Y-2966937D01*
X3640397Y-18742653D02*
X3607022Y-18723492D01*
X3674768Y-2966937D02*
X3710089Y-2951007D01*
X3674768Y-18760222D02*
X3640397Y-18742653D01*
X3710089Y-2951007D02*
X3746308Y-2936767D01*
X3710089Y-18776152D02*
X3674768Y-18760222D01*
X3746308Y-2936767D02*
X3783376Y-2924265D01*
X3746308Y-18790393D02*
X3710089Y-18776152D01*
X3783376Y-2924265D02*
X3821245Y-2913551D01*
X3783376Y-18802895D02*
X3746308Y-18790393D01*
X3821245Y-2913551D02*
X3859865Y-2904674D01*
X3821245Y-18813608D02*
X3783376Y-18802895D01*
X3859865Y-2904674D02*
X3899186Y-2897684D01*
X3859865Y-18822485D02*
X3821245Y-18813608D01*
X3899186Y-2897684D02*
X3939160Y-2892630D01*
X3899186Y-18829475D02*
X3859865Y-18822485D01*
X3939160Y-2892630D02*
X3979736Y-2889562D01*
X3939160Y-18834529D02*
X3899186Y-18829475D01*
X3979736Y-2889562D02*
X4020866Y-2888528D01*
X3979736Y-18837598D02*
X3939160Y-18834529D01*
X4020866Y-2888528D02*
X4020866Y-2888528D01*
X4020866Y-2888528D02*
X4020866Y-2888528D01*
X4020866Y-2888528D02*
X15377112Y-2888528D01*
X4020866Y-18838632D02*
X3979736Y-18837598D01*
X15377112Y-2888528D02*
X15418242Y-2889562D01*
X15377112Y-18838632D02*
X4020866Y-18838632D01*
X15418242Y-2889562D02*
X15458819Y-2892630D01*
X15418242Y-18837598D02*
X15377112Y-18838632D01*
X15458819Y-2892630D02*
X15498792Y-2897684D01*
X15458819Y-18834529D02*
X15418242Y-18837598D01*
X15498792Y-2897684D02*
X15538114Y-2904674D01*
X15498792Y-18829475D02*
X15458819Y-18834529D01*
X15538114Y-2904674D02*
X15576733Y-2913551D01*
X15538114Y-18822485D02*
X15498792Y-18829475D01*
X15576733Y-2913551D02*
X15614602Y-2924265D01*
X15576733Y-18813608D02*
X15538114Y-18822485D01*
X15614602Y-2924265D02*
X15651671Y-2936767D01*
X15614602Y-18802895D02*
X15576733Y-18813608D01*
X15651671Y-2936767D02*
X15687890Y-2951007D01*
X15651671Y-18790393D02*
X15614602Y-18802895D01*
X15687890Y-2951007D02*
X15723210Y-2966937D01*
X15687890Y-18776152D02*
X15651671Y-18790393D01*
X15723210Y-2966937D02*
X15757582Y-2984507D01*
X15723210Y-18760222D02*
X15687890Y-18776152D01*
X15757582Y-2984507D02*
X15790956Y-3003667D01*
X15757582Y-18742653D02*
X15723210Y-18760222D01*
X15790956Y-3003667D02*
X15823284Y-3024368D01*
X15790956Y-18723492D02*
X15757582Y-18742653D01*
X15823284Y-3024368D02*
X15854515Y-3046562D01*
X15823284Y-18702791D02*
X15790956Y-18723492D01*
X15854515Y-3046562D02*
X15884601Y-3070197D01*
X15854515Y-18680598D02*
X15823284Y-18702791D01*
X15884601Y-3070197D02*
X15913492Y-3095226D01*
X15884601Y-18656962D02*
X15854515Y-18680598D01*
X15913492Y-3095226D02*
X15941139Y-3121599D01*
X15913492Y-18631933D02*
X15884601Y-18656962D01*
X15941139Y-3121599D02*
X15967493Y-3149266D01*
X15941139Y-18605561D02*
X15913492Y-18631933D01*
X15967493Y-3149266D02*
X15992504Y-3178177D01*
X15967493Y-18577894D02*
X15941139Y-18605561D01*
X15992504Y-3178177D02*
X16016122Y-3208285D01*
X15992504Y-18548982D02*
X15967493Y-18577894D01*
X16016122Y-3208285D02*
X16038299Y-3239539D01*
X16016122Y-18518874D02*
X15992504Y-18548982D01*
X16038299Y-3239539D02*
X16058986Y-3271890D01*
X16038299Y-18487620D02*
X16016122Y-18518874D01*
X16058986Y-3271890D02*
X16078132Y-3305288D01*
X16058986Y-18455269D02*
X16038299Y-18487620D01*
X16078132Y-3305288D02*
X16095689Y-3339685D01*
X16078132Y-18421871D02*
X16058986Y-18455269D01*
X16095689Y-3339685D02*
X16111608Y-3375031D01*
X16095689Y-18387474D02*
X16078132Y-18421871D01*
X16111608Y-3375031D02*
X16125838Y-3411276D01*
X16111608Y-18352129D02*
X16095689Y-18387474D01*
X16125838Y-3411276D02*
X16138331Y-3448371D01*
X16125838Y-18315883D02*
X16111608Y-18352129D01*
X16138331Y-3448371D02*
X16149037Y-3486267D01*
X16138331Y-18278788D02*
X16125838Y-18315883D01*
X16149037Y-3486267D02*
X16157907Y-3524915D01*
X16149037Y-18240892D02*
X16138331Y-18278788D01*
X16157907Y-3524915D02*
X16164892Y-3564265D01*
X16157907Y-18202244D02*
X16149037Y-18240892D01*
X16164892Y-3564265D02*
X16169943Y-3604267D01*
X16164892Y-18162895D02*
X16157907Y-18202244D01*
X16169943Y-3604267D02*
X16173009Y-3644873D01*
X16169943Y-18122892D02*
X16164892Y-18162895D01*
X16173009Y-3644873D02*
X16174042Y-3686033D01*
X16173009Y-18082286D02*
X16169943Y-18122892D01*
X16174042Y-3686033D02*
X16174042Y-18041127D01*
X16174042Y-18041127D02*
X16173009Y-18082286D01*
D11*
X9501744Y-11394608D02*
X9261744Y-11394608D01*
X9221744Y-11354608D02*
X9221744Y-11074608D01*
X9541744Y-11354608D02*
X9541744Y-11074608D01*
X9501744Y-11034608D02*
X9261744Y-11034608D01*
X9221744Y-11354608D02*
G75*
G03*
X9261744Y-11394608I40000J0D01*
G01*
X9501744Y-11394608D02*
G75*
G03*
X9541744Y-11354608I0J40000D01*
G01*
X9261744Y-11034608D02*
G75*
G03*
X9221744Y-11074608I0J-40000D01*
G01*
X9541744Y-11074608D02*
G75*
G03*
X9501744Y-11034608I-40000J0D01*
G01*
X7155800Y-12413910D02*
X6915800Y-12413910D01*
X6875800Y-12373910D02*
X6875800Y-12093910D01*
X7195800Y-12373910D02*
X7195800Y-12093910D01*
X7155800Y-12053910D02*
X6915800Y-12053910D01*
X6875800Y-12373910D02*
G75*
G03*
X6915800Y-12413910I40000J0D01*
G01*
X7155800Y-12413910D02*
G75*
G03*
X7195800Y-12373910I0J40000D01*
G01*
X6915800Y-12053910D02*
G75*
G03*
X6875800Y-12093910I0J-40000D01*
G01*
X7195800Y-12093910D02*
G75*
G03*
X7155800Y-12053910I-40000J0D01*
G01*
X12395910Y-9074240D02*
X12155910Y-9074240D01*
X12115910Y-9034240D02*
X12115910Y-8754240D01*
X12435910Y-9034240D02*
X12435910Y-8754240D01*
X12395910Y-8714240D02*
X12155910Y-8714240D01*
X12115910Y-9034240D02*
G75*
G03*
X12155910Y-9074240I40000J0D01*
G01*
X12395910Y-9074240D02*
G75*
G03*
X12435910Y-9034240I0J40000D01*
G01*
X12155910Y-8714240D02*
G75*
G03*
X12115910Y-8754240I0J-40000D01*
G01*
X12435910Y-8754240D02*
G75*
G03*
X12395910Y-8714240I-40000J0D01*
G01*
X12383210Y-11557090D02*
X12143210Y-11557090D01*
X12103210Y-11517090D02*
X12103210Y-11237090D01*
X12423210Y-11517090D02*
X12423210Y-11237090D01*
X12383210Y-11197090D02*
X12143210Y-11197090D01*
X12103210Y-11517090D02*
G75*
G03*
X12143210Y-11557090I40000J0D01*
G01*
X12383210Y-11557090D02*
G75*
G03*
X12423210Y-11517090I0J40000D01*
G01*
X12143210Y-11197090D02*
G75*
G03*
X12103210Y-11237090I0J-40000D01*
G01*
X12423210Y-11237090D02*
G75*
G03*
X12383210Y-11197090I-40000J0D01*
G01*
X11321490Y-11875860D02*
X11081490Y-11875860D01*
X11041490Y-11835860D02*
X11041490Y-11555860D01*
X11361490Y-11835860D02*
X11361490Y-11555860D01*
X11321490Y-11515860D02*
X11081490Y-11515860D01*
X11041490Y-11835860D02*
G75*
G03*
X11081490Y-11875860I40000J0D01*
G01*
X11321490Y-11875860D02*
G75*
G03*
X11361490Y-11835860I0J40000D01*
G01*
X11081490Y-11515860D02*
G75*
G03*
X11041490Y-11555860I0J-40000D01*
G01*
X11361490Y-11555860D02*
G75*
G03*
X11321490Y-11515860I-40000J0D01*
G01*
X10334700Y-14729550D02*
X10094700Y-14729550D01*
X10054700Y-14689550D02*
X10054700Y-14409550D01*
X10374700Y-14689550D02*
X10374700Y-14409550D01*
X10334700Y-14369550D02*
X10094700Y-14369550D01*
X10054700Y-14689550D02*
G75*
G03*
X10094700Y-14729550I40000J0D01*
G01*
X10334700Y-14729550D02*
G75*
G03*
X10374700Y-14689550I0J40000D01*
G01*
X10094700Y-14369550D02*
G75*
G03*
X10054700Y-14409550I0J-40000D01*
G01*
X10374700Y-14409550D02*
G75*
G03*
X10334700Y-14369550I-40000J0D01*
G01*
X9810190Y-9926410D02*
X9570190Y-9926410D01*
X9530190Y-9886410D02*
X9530190Y-9606410D01*
X9850190Y-9886410D02*
X9850190Y-9606410D01*
X9810190Y-9566410D02*
X9570190Y-9566410D01*
X9530190Y-9886410D02*
G75*
G03*
X9570190Y-9926410I40000J0D01*
G01*
X9810190Y-9926410D02*
G75*
G03*
X9850190Y-9886410I0J40000D01*
G01*
X9570190Y-9566410D02*
G75*
G03*
X9530190Y-9606410I0J-40000D01*
G01*
X9850190Y-9606410D02*
G75*
G03*
X9810190Y-9566410I-40000J0D01*
G01*
X15133940Y-10597048D02*
X14893940Y-10597048D01*
X14853940Y-10557048D02*
X14853940Y-10277048D01*
X15173940Y-10557048D02*
X15173940Y-10277048D01*
X15133940Y-10237048D02*
X14893940Y-10237048D01*
X14853940Y-10557048D02*
G75*
G03*
X14893940Y-10597048I40000J0D01*
G01*
X15133940Y-10597048D02*
G75*
G03*
X15173940Y-10557048I0J40000D01*
G01*
X14893940Y-10237048D02*
G75*
G03*
X14853940Y-10277048I0J-40000D01*
G01*
X15173940Y-10277048D02*
G75*
G03*
X15133940Y-10237048I-40000J0D01*
G01*
X12312508Y-12505604D02*
X12072508Y-12505604D01*
X12032508Y-12465604D02*
X12032508Y-12185604D01*
X12352508Y-12465604D02*
X12352508Y-12185604D01*
X12312508Y-12145604D02*
X12072508Y-12145604D01*
X12032508Y-12465604D02*
G75*
G03*
X12072508Y-12505604I40000J0D01*
G01*
X12312508Y-12505604D02*
G75*
G03*
X12352508Y-12465604I0J40000D01*
G01*
X12072508Y-12145604D02*
G75*
G03*
X12032508Y-12185604I0J-40000D01*
G01*
X12352508Y-12185604D02*
G75*
G03*
X12312508Y-12145604I-40000J0D01*
G01*
X12181280Y-17503230D02*
X11941280Y-17503230D01*
X11901280Y-17463230D02*
X11901280Y-17183230D01*
X12221280Y-17463230D02*
X12221280Y-17183230D01*
X12181280Y-17143230D02*
X11941280Y-17143230D01*
X11901280Y-17463230D02*
G75*
G03*
X11941280Y-17503230I40000J0D01*
G01*
X12181280Y-17503230D02*
G75*
G03*
X12221280Y-17463230I0J40000D01*
G01*
X11941280Y-17143230D02*
G75*
G03*
X11901280Y-17183230I0J-40000D01*
G01*
X12221280Y-17183230D02*
G75*
G03*
X12181280Y-17143230I-40000J0D01*
G01*
X8622740Y-9909900D02*
X8382740Y-9909900D01*
X8342740Y-9869900D02*
X8342740Y-9589900D01*
X8662740Y-9869900D02*
X8662740Y-9589900D01*
X8622740Y-9549900D02*
X8382740Y-9549900D01*
X8342740Y-9869900D02*
G75*
G03*
X8382740Y-9909900I40000J0D01*
G01*
X8622740Y-9909900D02*
G75*
G03*
X8662740Y-9869900I0J40000D01*
G01*
X8382740Y-9549900D02*
G75*
G03*
X8342740Y-9589900I0J-40000D01*
G01*
X8662740Y-9589900D02*
G75*
G03*
X8622740Y-9549900I-40000J0D01*
G01*
X6967750Y-11477080D02*
X6727750Y-11477080D01*
X6687750Y-11437080D02*
X6687750Y-11157080D01*
X7007750Y-11437080D02*
X7007750Y-11157080D01*
X6967750Y-11117080D02*
X6727750Y-11117080D01*
X6687750Y-11437080D02*
G75*
G03*
X6727750Y-11477080I40000J0D01*
G01*
X6967750Y-11477080D02*
G75*
G03*
X7007750Y-11437080I0J40000D01*
G01*
X6727750Y-11117080D02*
G75*
G03*
X6687750Y-11157080I0J-40000D01*
G01*
X7007750Y-11157080D02*
G75*
G03*
X6967750Y-11117080I-40000J0D01*
G01*
X10264850Y-10877640D02*
X10024850Y-10877640D01*
X9984850Y-10837640D02*
X9984850Y-10557640D01*
X10304850Y-10837640D02*
X10304850Y-10557640D01*
X10264850Y-10517640D02*
X10024850Y-10517640D01*
X9984850Y-10837640D02*
G75*
G03*
X10024850Y-10877640I40000J0D01*
G01*
X10264850Y-10877640D02*
G75*
G03*
X10304850Y-10837640I0J40000D01*
G01*
X10024850Y-10517640D02*
G75*
G03*
X9984850Y-10557640I0J-40000D01*
G01*
X10304850Y-10557640D02*
G75*
G03*
X10264850Y-10517640I-40000J0D01*
G01*
X11375920Y-5669370D02*
X11135920Y-5669370D01*
X11095920Y-5629370D02*
X11095920Y-5349370D01*
X11415920Y-5629370D02*
X11415920Y-5349370D01*
X11375920Y-5309370D02*
X11135920Y-5309370D01*
X11095920Y-5629370D02*
G75*
G03*
X11135920Y-5669370I40000J0D01*
G01*
X11375920Y-5669370D02*
G75*
G03*
X11415920Y-5629370I0J40000D01*
G01*
X11135920Y-5309370D02*
G75*
G03*
X11095920Y-5349370I0J-40000D01*
G01*
X11415920Y-5349370D02*
G75*
G03*
X11375920Y-5309370I-40000J0D01*
G01*
X12831520Y-15125790D02*
X12591520Y-15125790D01*
X12551520Y-15085790D02*
X12551520Y-14805790D01*
X12871520Y-15085790D02*
X12871520Y-14805790D01*
X12831520Y-14765790D02*
X12591520Y-14765790D01*
X12551520Y-15085790D02*
G75*
G03*
X12591520Y-15125790I40000J0D01*
G01*
X12831520Y-15125790D02*
G75*
G03*
X12871520Y-15085790I0J40000D01*
G01*
X12591520Y-14765790D02*
G75*
G03*
X12551520Y-14805790I0J-40000D01*
G01*
X12871520Y-14805790D02*
G75*
G03*
X12831520Y-14765790I-40000J0D01*
G01*
D12*
D13*
X3762268Y-17964932D02*
X4082268Y-18284932D01*
X4082268Y-17964932D02*
X3762268Y-18284932D01*
X3853708Y-3492012D02*
X4173708Y-3812012D01*
X4173708Y-3492012D02*
X3853708Y-3812012D01*
X15305044Y-17982712D02*
X15625044Y-18302712D01*
X15625044Y-17982712D02*
X15305044Y-18302712D01*
X15308092Y-3439180D02*
X15628092Y-3759180D01*
X15628092Y-3439180D02*
X15308092Y-3759180D01*
D12*
X3479714Y-19155115D02*
X3479714Y-18955115D01*
X3479714Y-18955115D02*
X3527333Y-18955115D01*
X3527333Y-18955115D02*
X3555904Y-18964639D01*
X3555904Y-18964639D02*
X3574952Y-18983687D01*
X3574952Y-18983687D02*
X3584475Y-19002734D01*
X3584475Y-19002734D02*
X3593999Y-19040830D01*
X3593999Y-19040830D02*
X3593999Y-19069401D01*
X3593999Y-19069401D02*
X3584475Y-19107496D01*
X3584475Y-19107496D02*
X3574952Y-19126544D01*
X3574952Y-19126544D02*
X3555904Y-19145592D01*
X3555904Y-19145592D02*
X3527333Y-19155115D01*
X3527333Y-19155115D02*
X3479714Y-19155115D01*
X3679714Y-19155115D02*
X3679714Y-19021782D01*
X3679714Y-19059877D02*
X3689237Y-19040830D01*
X3689237Y-19040830D02*
X3698761Y-19031306D01*
X3698761Y-19031306D02*
X3717809Y-19021782D01*
X3717809Y-19021782D02*
X3736856Y-19021782D01*
X3803523Y-19155115D02*
X3803523Y-19021782D01*
X3803523Y-18955115D02*
X3793999Y-18964639D01*
X3793999Y-18964639D02*
X3803523Y-18974163D01*
X3803523Y-18974163D02*
X3813047Y-18964639D01*
X3813047Y-18964639D02*
X3803523Y-18955115D01*
X3803523Y-18955115D02*
X3803523Y-18974163D01*
X3927333Y-19155115D02*
X3908285Y-19145592D01*
X3908285Y-19145592D02*
X3898761Y-19126544D01*
X3898761Y-19126544D02*
X3898761Y-18955115D01*
X4032094Y-19155115D02*
X4013047Y-19145592D01*
X4013047Y-19145592D02*
X4003523Y-19126544D01*
X4003523Y-19126544D02*
X4003523Y-18955115D01*
X4260666Y-19155115D02*
X4260666Y-18955115D01*
X4260666Y-18955115D02*
X4327333Y-19097972D01*
X4327333Y-19097972D02*
X4393999Y-18955115D01*
X4393999Y-18955115D02*
X4393999Y-19155115D01*
X4574952Y-19155115D02*
X4574952Y-19050353D01*
X4574952Y-19050353D02*
X4565428Y-19031306D01*
X4565428Y-19031306D02*
X4546380Y-19021782D01*
X4546380Y-19021782D02*
X4508285Y-19021782D01*
X4508285Y-19021782D02*
X4489237Y-19031306D01*
X4574952Y-19145592D02*
X4555904Y-19155115D01*
X4555904Y-19155115D02*
X4508285Y-19155115D01*
X4508285Y-19155115D02*
X4489237Y-19145592D01*
X4489237Y-19145592D02*
X4479714Y-19126544D01*
X4479714Y-19126544D02*
X4479714Y-19107496D01*
X4479714Y-19107496D02*
X4489237Y-19088449D01*
X4489237Y-19088449D02*
X4508285Y-19078925D01*
X4508285Y-19078925D02*
X4555904Y-19078925D01*
X4555904Y-19078925D02*
X4574952Y-19069401D01*
X4670190Y-19021782D02*
X4670190Y-19221782D01*
X4670190Y-19031306D02*
X4689237Y-19021782D01*
X4689237Y-19021782D02*
X4727333Y-19021782D01*
X4727333Y-19021782D02*
X4746380Y-19031306D01*
X4746380Y-19031306D02*
X4755904Y-19040830D01*
X4755904Y-19040830D02*
X4765428Y-19059877D01*
X4765428Y-19059877D02*
X4765428Y-19117020D01*
X4765428Y-19117020D02*
X4755904Y-19136068D01*
X4755904Y-19136068D02*
X4746380Y-19145592D01*
X4746380Y-19145592D02*
X4727333Y-19155115D01*
X4727333Y-19155115D02*
X4689237Y-19155115D01*
X4689237Y-19155115D02*
X4670190Y-19145592D01*
X4851142Y-19136068D02*
X4860666Y-19145592D01*
X4860666Y-19145592D02*
X4851142Y-19155115D01*
X4851142Y-19155115D02*
X4841618Y-19145592D01*
X4841618Y-19145592D02*
X4851142Y-19136068D01*
X4851142Y-19136068D02*
X4851142Y-19155115D01*
X4851142Y-19031306D02*
X4860666Y-19040830D01*
X4860666Y-19040830D02*
X4851142Y-19050353D01*
X4851142Y-19050353D02*
X4841618Y-19040830D01*
X4841618Y-19040830D02*
X4851142Y-19031306D01*
X4851142Y-19031306D02*
X4851142Y-19050353D01*
X3018937Y-19383632D02*
X3218937Y-19583632D01*
X3218937Y-19383632D02*
X3018937Y-19583632D01*
X3460666Y-19375115D02*
X3584475Y-19375115D01*
X3584475Y-19375115D02*
X3517809Y-19451306D01*
X3517809Y-19451306D02*
X3546380Y-19451306D01*
X3546380Y-19451306D02*
X3565428Y-19460830D01*
X3565428Y-19460830D02*
X3574952Y-19470353D01*
X3574952Y-19470353D02*
X3584475Y-19489401D01*
X3584475Y-19489401D02*
X3584475Y-19537020D01*
X3584475Y-19537020D02*
X3574952Y-19556068D01*
X3574952Y-19556068D02*
X3565428Y-19565592D01*
X3565428Y-19565592D02*
X3546380Y-19575115D01*
X3546380Y-19575115D02*
X3489237Y-19575115D01*
X3489237Y-19575115D02*
X3470190Y-19565592D01*
X3470190Y-19565592D02*
X3460666Y-19556068D01*
X3670190Y-19556068D02*
X3679714Y-19565592D01*
X3679714Y-19565592D02*
X3670190Y-19575115D01*
X3670190Y-19575115D02*
X3660666Y-19565592D01*
X3660666Y-19565592D02*
X3670190Y-19556068D01*
X3670190Y-19556068D02*
X3670190Y-19575115D01*
X3755904Y-19394163D02*
X3765428Y-19384639D01*
X3765428Y-19384639D02*
X3784475Y-19375115D01*
X3784475Y-19375115D02*
X3832095Y-19375115D01*
X3832095Y-19375115D02*
X3851142Y-19384639D01*
X3851142Y-19384639D02*
X3860666Y-19394163D01*
X3860666Y-19394163D02*
X3870190Y-19413211D01*
X3870190Y-19413211D02*
X3870190Y-19432258D01*
X3870190Y-19432258D02*
X3860666Y-19460830D01*
X3860666Y-19460830D02*
X3746380Y-19575115D01*
X3746380Y-19575115D02*
X3870190Y-19575115D01*
X3993999Y-19375115D02*
X4013047Y-19375115D01*
X4013047Y-19375115D02*
X4032095Y-19384639D01*
X4032095Y-19384639D02*
X4041618Y-19394163D01*
X4041618Y-19394163D02*
X4051142Y-19413211D01*
X4051142Y-19413211D02*
X4060666Y-19451306D01*
X4060666Y-19451306D02*
X4060666Y-19498925D01*
X4060666Y-19498925D02*
X4051142Y-19537020D01*
X4051142Y-19537020D02*
X4041618Y-19556068D01*
X4041618Y-19556068D02*
X4032095Y-19565592D01*
X4032095Y-19565592D02*
X4013047Y-19575115D01*
X4013047Y-19575115D02*
X3993999Y-19575115D01*
X3993999Y-19575115D02*
X3974952Y-19565592D01*
X3974952Y-19565592D02*
X3965428Y-19556068D01*
X3965428Y-19556068D02*
X3955904Y-19537020D01*
X3955904Y-19537020D02*
X3946380Y-19498925D01*
X3946380Y-19498925D02*
X3946380Y-19451306D01*
X3946380Y-19451306D02*
X3955904Y-19413211D01*
X3955904Y-19413211D02*
X3965428Y-19394163D01*
X3965428Y-19394163D02*
X3974952Y-19384639D01*
X3974952Y-19384639D02*
X3993999Y-19375115D01*
X4184475Y-19375115D02*
X4203523Y-19375115D01*
X4203523Y-19375115D02*
X4222571Y-19384639D01*
X4222571Y-19384639D02*
X4232095Y-19394163D01*
X4232095Y-19394163D02*
X4241618Y-19413211D01*
X4241618Y-19413211D02*
X4251142Y-19451306D01*
X4251142Y-19451306D02*
X4251142Y-19498925D01*
X4251142Y-19498925D02*
X4241618Y-19537020D01*
X4241618Y-19537020D02*
X4232095Y-19556068D01*
X4232095Y-19556068D02*
X4222571Y-19565592D01*
X4222571Y-19565592D02*
X4203523Y-19575115D01*
X4203523Y-19575115D02*
X4184475Y-19575115D01*
X4184475Y-19575115D02*
X4165428Y-19565592D01*
X4165428Y-19565592D02*
X4155904Y-19556068D01*
X4155904Y-19556068D02*
X4146380Y-19537020D01*
X4146380Y-19537020D02*
X4136856Y-19498925D01*
X4136856Y-19498925D02*
X4136856Y-19451306D01*
X4136856Y-19451306D02*
X4146380Y-19413211D01*
X4146380Y-19413211D02*
X4155904Y-19394163D01*
X4155904Y-19394163D02*
X4165428Y-19384639D01*
X4165428Y-19384639D02*
X4184475Y-19375115D01*
X4336857Y-19575115D02*
X4336857Y-19441782D01*
X4336857Y-19460830D02*
X4346380Y-19451306D01*
X4346380Y-19451306D02*
X4365428Y-19441782D01*
X4365428Y-19441782D02*
X4393999Y-19441782D01*
X4393999Y-19441782D02*
X4413047Y-19451306D01*
X4413047Y-19451306D02*
X4422571Y-19470353D01*
X4422571Y-19470353D02*
X4422571Y-19575115D01*
X4422571Y-19470353D02*
X4432095Y-19451306D01*
X4432095Y-19451306D02*
X4451142Y-19441782D01*
X4451142Y-19441782D02*
X4479714Y-19441782D01*
X4479714Y-19441782D02*
X4498761Y-19451306D01*
X4498761Y-19451306D02*
X4508285Y-19470353D01*
X4508285Y-19470353D02*
X4508285Y-19575115D01*
X4603523Y-19575115D02*
X4603523Y-19441782D01*
X4603523Y-19460830D02*
X4613047Y-19451306D01*
X4613047Y-19451306D02*
X4632095Y-19441782D01*
X4632095Y-19441782D02*
X4660666Y-19441782D01*
X4660666Y-19441782D02*
X4679714Y-19451306D01*
X4679714Y-19451306D02*
X4689238Y-19470353D01*
X4689238Y-19470353D02*
X4689238Y-19575115D01*
X4689238Y-19470353D02*
X4698761Y-19451306D01*
X4698761Y-19451306D02*
X4717809Y-19441782D01*
X4717809Y-19441782D02*
X4746380Y-19441782D01*
X4746380Y-19441782D02*
X4765428Y-19451306D01*
X4765428Y-19451306D02*
X4774952Y-19470353D01*
X4774952Y-19470353D02*
X4774952Y-19575115D01*
X5165428Y-19365592D02*
X4994000Y-19622734D01*
X5422571Y-19375115D02*
X5441619Y-19375115D01*
X5441619Y-19375115D02*
X5460666Y-19384639D01*
X5460666Y-19384639D02*
X5470190Y-19394163D01*
X5470190Y-19394163D02*
X5479714Y-19413211D01*
X5479714Y-19413211D02*
X5489238Y-19451306D01*
X5489238Y-19451306D02*
X5489238Y-19498925D01*
X5489238Y-19498925D02*
X5479714Y-19537020D01*
X5479714Y-19537020D02*
X5470190Y-19556068D01*
X5470190Y-19556068D02*
X5460666Y-19565592D01*
X5460666Y-19565592D02*
X5441619Y-19575115D01*
X5441619Y-19575115D02*
X5422571Y-19575115D01*
X5422571Y-19575115D02*
X5403523Y-19565592D01*
X5403523Y-19565592D02*
X5394000Y-19556068D01*
X5394000Y-19556068D02*
X5384476Y-19537020D01*
X5384476Y-19537020D02*
X5374952Y-19498925D01*
X5374952Y-19498925D02*
X5374952Y-19451306D01*
X5374952Y-19451306D02*
X5384476Y-19413211D01*
X5384476Y-19413211D02*
X5394000Y-19394163D01*
X5394000Y-19394163D02*
X5403523Y-19384639D01*
X5403523Y-19384639D02*
X5422571Y-19375115D01*
X5574952Y-19556068D02*
X5584476Y-19565592D01*
X5584476Y-19565592D02*
X5574952Y-19575115D01*
X5574952Y-19575115D02*
X5565428Y-19565592D01*
X5565428Y-19565592D02*
X5574952Y-19556068D01*
X5574952Y-19556068D02*
X5574952Y-19575115D01*
X5774952Y-19575115D02*
X5660666Y-19575115D01*
X5717809Y-19575115D02*
X5717809Y-19375115D01*
X5717809Y-19375115D02*
X5698761Y-19403687D01*
X5698761Y-19403687D02*
X5679714Y-19422734D01*
X5679714Y-19422734D02*
X5660666Y-19432258D01*
X5851142Y-19394163D02*
X5860666Y-19384639D01*
X5860666Y-19384639D02*
X5879714Y-19375115D01*
X5879714Y-19375115D02*
X5927333Y-19375115D01*
X5927333Y-19375115D02*
X5946380Y-19384639D01*
X5946380Y-19384639D02*
X5955904Y-19394163D01*
X5955904Y-19394163D02*
X5965428Y-19413211D01*
X5965428Y-19413211D02*
X5965428Y-19432258D01*
X5965428Y-19432258D02*
X5955904Y-19460830D01*
X5955904Y-19460830D02*
X5841619Y-19575115D01*
X5841619Y-19575115D02*
X5965428Y-19575115D01*
X6136857Y-19375115D02*
X6098761Y-19375115D01*
X6098761Y-19375115D02*
X6079714Y-19384639D01*
X6079714Y-19384639D02*
X6070190Y-19394163D01*
X6070190Y-19394163D02*
X6051142Y-19422734D01*
X6051142Y-19422734D02*
X6041619Y-19460830D01*
X6041619Y-19460830D02*
X6041619Y-19537020D01*
X6041619Y-19537020D02*
X6051142Y-19556068D01*
X6051142Y-19556068D02*
X6060666Y-19565592D01*
X6060666Y-19565592D02*
X6079714Y-19575115D01*
X6079714Y-19575115D02*
X6117809Y-19575115D01*
X6117809Y-19575115D02*
X6136857Y-19565592D01*
X6136857Y-19565592D02*
X6146380Y-19556068D01*
X6146380Y-19556068D02*
X6155904Y-19537020D01*
X6155904Y-19537020D02*
X6155904Y-19489401D01*
X6155904Y-19489401D02*
X6146380Y-19470353D01*
X6146380Y-19470353D02*
X6136857Y-19460830D01*
X6136857Y-19460830D02*
X6117809Y-19451306D01*
X6117809Y-19451306D02*
X6079714Y-19451306D01*
X6079714Y-19451306D02*
X6060666Y-19460830D01*
X6060666Y-19460830D02*
X6051142Y-19470353D01*
X6051142Y-19470353D02*
X6041619Y-19489401D01*
X6279714Y-19375115D02*
X6298761Y-19375115D01*
X6298761Y-19375115D02*
X6317809Y-19384639D01*
X6317809Y-19384639D02*
X6327333Y-19394163D01*
X6327333Y-19394163D02*
X6336857Y-19413211D01*
X6336857Y-19413211D02*
X6346380Y-19451306D01*
X6346380Y-19451306D02*
X6346380Y-19498925D01*
X6346380Y-19498925D02*
X6336857Y-19537020D01*
X6336857Y-19537020D02*
X6327333Y-19556068D01*
X6327333Y-19556068D02*
X6317809Y-19565592D01*
X6317809Y-19565592D02*
X6298761Y-19575115D01*
X6298761Y-19575115D02*
X6279714Y-19575115D01*
X6279714Y-19575115D02*
X6260666Y-19565592D01*
X6260666Y-19565592D02*
X6251142Y-19556068D01*
X6251142Y-19556068D02*
X6241619Y-19537020D01*
X6241619Y-19537020D02*
X6232095Y-19498925D01*
X6232095Y-19498925D02*
X6232095Y-19451306D01*
X6232095Y-19451306D02*
X6241619Y-19413211D01*
X6241619Y-19413211D02*
X6251142Y-19394163D01*
X6251142Y-19394163D02*
X6260666Y-19384639D01*
X6260666Y-19384639D02*
X6279714Y-19375115D01*
X6422571Y-19375115D02*
X6422571Y-19413211D01*
X6498761Y-19375115D02*
X6498761Y-19413211D01*
X6794000Y-19651306D02*
X6784476Y-19641782D01*
X6784476Y-19641782D02*
X6765428Y-19613211D01*
X6765428Y-19613211D02*
X6755904Y-19594163D01*
X6755904Y-19594163D02*
X6746381Y-19565592D01*
X6746381Y-19565592D02*
X6736857Y-19517972D01*
X6736857Y-19517972D02*
X6736857Y-19479877D01*
X6736857Y-19479877D02*
X6746381Y-19432258D01*
X6746381Y-19432258D02*
X6755904Y-19403687D01*
X6755904Y-19403687D02*
X6765428Y-19384639D01*
X6765428Y-19384639D02*
X6784476Y-19356068D01*
X6784476Y-19356068D02*
X6794000Y-19346544D01*
X6955904Y-19441782D02*
X6955904Y-19575115D01*
X6908285Y-19365592D02*
X6860666Y-19508449D01*
X6860666Y-19508449D02*
X6984476Y-19508449D01*
X7213047Y-19575115D02*
X7213047Y-19375115D01*
X7298762Y-19575115D02*
X7298762Y-19470353D01*
X7298762Y-19470353D02*
X7289238Y-19451306D01*
X7289238Y-19451306D02*
X7270190Y-19441782D01*
X7270190Y-19441782D02*
X7241619Y-19441782D01*
X7241619Y-19441782D02*
X7222571Y-19451306D01*
X7222571Y-19451306D02*
X7213047Y-19460830D01*
X7422571Y-19575115D02*
X7403523Y-19565592D01*
X7403523Y-19565592D02*
X7394000Y-19556068D01*
X7394000Y-19556068D02*
X7384476Y-19537020D01*
X7384476Y-19537020D02*
X7384476Y-19479877D01*
X7384476Y-19479877D02*
X7394000Y-19460830D01*
X7394000Y-19460830D02*
X7403523Y-19451306D01*
X7403523Y-19451306D02*
X7422571Y-19441782D01*
X7422571Y-19441782D02*
X7451143Y-19441782D01*
X7451143Y-19441782D02*
X7470190Y-19451306D01*
X7470190Y-19451306D02*
X7479714Y-19460830D01*
X7479714Y-19460830D02*
X7489238Y-19479877D01*
X7489238Y-19479877D02*
X7489238Y-19537020D01*
X7489238Y-19537020D02*
X7479714Y-19556068D01*
X7479714Y-19556068D02*
X7470190Y-19565592D01*
X7470190Y-19565592D02*
X7451143Y-19575115D01*
X7451143Y-19575115D02*
X7422571Y-19575115D01*
X7603523Y-19575115D02*
X7584476Y-19565592D01*
X7584476Y-19565592D02*
X7574952Y-19546544D01*
X7574952Y-19546544D02*
X7574952Y-19375115D01*
X7755904Y-19565592D02*
X7736857Y-19575115D01*
X7736857Y-19575115D02*
X7698762Y-19575115D01*
X7698762Y-19575115D02*
X7679714Y-19565592D01*
X7679714Y-19565592D02*
X7670190Y-19546544D01*
X7670190Y-19546544D02*
X7670190Y-19470353D01*
X7670190Y-19470353D02*
X7679714Y-19451306D01*
X7679714Y-19451306D02*
X7698762Y-19441782D01*
X7698762Y-19441782D02*
X7736857Y-19441782D01*
X7736857Y-19441782D02*
X7755904Y-19451306D01*
X7755904Y-19451306D02*
X7765428Y-19470353D01*
X7765428Y-19470353D02*
X7765428Y-19489401D01*
X7765428Y-19489401D02*
X7670190Y-19508449D01*
X7841619Y-19565592D02*
X7860666Y-19575115D01*
X7860666Y-19575115D02*
X7898762Y-19575115D01*
X7898762Y-19575115D02*
X7917809Y-19565592D01*
X7917809Y-19565592D02*
X7927333Y-19546544D01*
X7927333Y-19546544D02*
X7927333Y-19537020D01*
X7927333Y-19537020D02*
X7917809Y-19517972D01*
X7917809Y-19517972D02*
X7898762Y-19508449D01*
X7898762Y-19508449D02*
X7870190Y-19508449D01*
X7870190Y-19508449D02*
X7851143Y-19498925D01*
X7851143Y-19498925D02*
X7841619Y-19479877D01*
X7841619Y-19479877D02*
X7841619Y-19470353D01*
X7841619Y-19470353D02*
X7851143Y-19451306D01*
X7851143Y-19451306D02*
X7870190Y-19441782D01*
X7870190Y-19441782D02*
X7898762Y-19441782D01*
X7898762Y-19441782D02*
X7917809Y-19451306D01*
X7994000Y-19651306D02*
X8003524Y-19641782D01*
X8003524Y-19641782D02*
X8022571Y-19613211D01*
X8022571Y-19613211D02*
X8032095Y-19594163D01*
X8032095Y-19594163D02*
X8041619Y-19565592D01*
X8041619Y-19565592D02*
X8051143Y-19517972D01*
X8051143Y-19517972D02*
X8051143Y-19479877D01*
X8051143Y-19479877D02*
X8041619Y-19432258D01*
X8041619Y-19432258D02*
X8032095Y-19403687D01*
X8032095Y-19403687D02*
X8022571Y-19384639D01*
X8022571Y-19384639D02*
X8003524Y-19356068D01*
X8003524Y-19356068D02*
X7994000Y-19346544D01*
X8355905Y-19651306D02*
X8346381Y-19641782D01*
X8346381Y-19641782D02*
X8327333Y-19613211D01*
X8327333Y-19613211D02*
X8317809Y-19594163D01*
X8317809Y-19594163D02*
X8308285Y-19565592D01*
X8308285Y-19565592D02*
X8298762Y-19517972D01*
X8298762Y-19517972D02*
X8298762Y-19479877D01*
X8298762Y-19479877D02*
X8308285Y-19432258D01*
X8308285Y-19432258D02*
X8317809Y-19403687D01*
X8317809Y-19403687D02*
X8327333Y-19384639D01*
X8327333Y-19384639D02*
X8346381Y-19356068D01*
X8346381Y-19356068D02*
X8355905Y-19346544D01*
X8432095Y-19441782D02*
X8432095Y-19575115D01*
X8432095Y-19460830D02*
X8441619Y-19451306D01*
X8441619Y-19451306D02*
X8460666Y-19441782D01*
X8460666Y-19441782D02*
X8489238Y-19441782D01*
X8489238Y-19441782D02*
X8508286Y-19451306D01*
X8508286Y-19451306D02*
X8517809Y-19470353D01*
X8517809Y-19470353D02*
X8517809Y-19575115D01*
X8641619Y-19575115D02*
X8622571Y-19565592D01*
X8622571Y-19565592D02*
X8613047Y-19556068D01*
X8613047Y-19556068D02*
X8603524Y-19537020D01*
X8603524Y-19537020D02*
X8603524Y-19479877D01*
X8603524Y-19479877D02*
X8613047Y-19460830D01*
X8613047Y-19460830D02*
X8622571Y-19451306D01*
X8622571Y-19451306D02*
X8641619Y-19441782D01*
X8641619Y-19441782D02*
X8670190Y-19441782D01*
X8670190Y-19441782D02*
X8689238Y-19451306D01*
X8689238Y-19451306D02*
X8698762Y-19460830D01*
X8698762Y-19460830D02*
X8708286Y-19479877D01*
X8708286Y-19479877D02*
X8708286Y-19537020D01*
X8708286Y-19537020D02*
X8698762Y-19556068D01*
X8698762Y-19556068D02*
X8689238Y-19565592D01*
X8689238Y-19565592D02*
X8670190Y-19575115D01*
X8670190Y-19575115D02*
X8641619Y-19575115D01*
X8765428Y-19441782D02*
X8841619Y-19441782D01*
X8794000Y-19375115D02*
X8794000Y-19546544D01*
X8794000Y-19546544D02*
X8803524Y-19565592D01*
X8803524Y-19565592D02*
X8822571Y-19575115D01*
X8822571Y-19575115D02*
X8841619Y-19575115D01*
X9060667Y-19441782D02*
X9060667Y-19641782D01*
X9060667Y-19451306D02*
X9079714Y-19441782D01*
X9079714Y-19441782D02*
X9117809Y-19441782D01*
X9117809Y-19441782D02*
X9136857Y-19451306D01*
X9136857Y-19451306D02*
X9146381Y-19460830D01*
X9146381Y-19460830D02*
X9155905Y-19479877D01*
X9155905Y-19479877D02*
X9155905Y-19537020D01*
X9155905Y-19537020D02*
X9146381Y-19556068D01*
X9146381Y-19556068D02*
X9136857Y-19565592D01*
X9136857Y-19565592D02*
X9117809Y-19575115D01*
X9117809Y-19575115D02*
X9079714Y-19575115D01*
X9079714Y-19575115D02*
X9060667Y-19565592D01*
X9270190Y-19575115D02*
X9251143Y-19565592D01*
X9251143Y-19565592D02*
X9241619Y-19546544D01*
X9241619Y-19546544D02*
X9241619Y-19375115D01*
X9432095Y-19575115D02*
X9432095Y-19470353D01*
X9432095Y-19470353D02*
X9422571Y-19451306D01*
X9422571Y-19451306D02*
X9403524Y-19441782D01*
X9403524Y-19441782D02*
X9365428Y-19441782D01*
X9365428Y-19441782D02*
X9346381Y-19451306D01*
X9432095Y-19565592D02*
X9413048Y-19575115D01*
X9413048Y-19575115D02*
X9365428Y-19575115D01*
X9365428Y-19575115D02*
X9346381Y-19565592D01*
X9346381Y-19565592D02*
X9336857Y-19546544D01*
X9336857Y-19546544D02*
X9336857Y-19527496D01*
X9336857Y-19527496D02*
X9346381Y-19508449D01*
X9346381Y-19508449D02*
X9365428Y-19498925D01*
X9365428Y-19498925D02*
X9413048Y-19498925D01*
X9413048Y-19498925D02*
X9432095Y-19489401D01*
X9498762Y-19441782D02*
X9574952Y-19441782D01*
X9527333Y-19375115D02*
X9527333Y-19546544D01*
X9527333Y-19546544D02*
X9536857Y-19565592D01*
X9536857Y-19565592D02*
X9555905Y-19575115D01*
X9555905Y-19575115D02*
X9574952Y-19575115D01*
X9717809Y-19565592D02*
X9698762Y-19575115D01*
X9698762Y-19575115D02*
X9660667Y-19575115D01*
X9660667Y-19575115D02*
X9641619Y-19565592D01*
X9641619Y-19565592D02*
X9632095Y-19546544D01*
X9632095Y-19546544D02*
X9632095Y-19470353D01*
X9632095Y-19470353D02*
X9641619Y-19451306D01*
X9641619Y-19451306D02*
X9660667Y-19441782D01*
X9660667Y-19441782D02*
X9698762Y-19441782D01*
X9698762Y-19441782D02*
X9717809Y-19451306D01*
X9717809Y-19451306D02*
X9727333Y-19470353D01*
X9727333Y-19470353D02*
X9727333Y-19489401D01*
X9727333Y-19489401D02*
X9632095Y-19508449D01*
X9898762Y-19575115D02*
X9898762Y-19375115D01*
X9898762Y-19565592D02*
X9879714Y-19575115D01*
X9879714Y-19575115D02*
X9841619Y-19575115D01*
X9841619Y-19575115D02*
X9822571Y-19565592D01*
X9822571Y-19565592D02*
X9813048Y-19556068D01*
X9813048Y-19556068D02*
X9803524Y-19537020D01*
X9803524Y-19537020D02*
X9803524Y-19479877D01*
X9803524Y-19479877D02*
X9813048Y-19460830D01*
X9813048Y-19460830D02*
X9822571Y-19451306D01*
X9822571Y-19451306D02*
X9841619Y-19441782D01*
X9841619Y-19441782D02*
X9879714Y-19441782D01*
X9879714Y-19441782D02*
X9898762Y-19451306D01*
X9974952Y-19651306D02*
X9984476Y-19641782D01*
X9984476Y-19641782D02*
X10003524Y-19613211D01*
X10003524Y-19613211D02*
X10013048Y-19594163D01*
X10013048Y-19594163D02*
X10022571Y-19565592D01*
X10022571Y-19565592D02*
X10032095Y-19517972D01*
X10032095Y-19517972D02*
X10032095Y-19479877D01*
X10032095Y-19479877D02*
X10022571Y-19432258D01*
X10022571Y-19432258D02*
X10013048Y-19403687D01*
X10013048Y-19403687D02*
X10003524Y-19384639D01*
X10003524Y-19384639D02*
X9984476Y-19356068D01*
X9984476Y-19356068D02*
X9974952Y-19346544D01*
M02*
