M48
; DRILL file {KiCad 7.0.10} date Sun Feb 18 18:29:21 2024
; FORMAT={-:-/ absolute / metric / decimal}
; #@! TF.CreationDate,2024-02-18T18:29:21+01:00
; #@! TF.GenerationSoftware,Kicad,Pcbnew,7.0.10
; #@! TF.FileFunction,Plated,1,2,PTH
FMAT,2
METRIC
; #@! TA.AperFunction,Plated,PTH,ViaDrill
T1C0.400
%
G90
G05
T1
X35.56Y-97.155
X40.64Y-89.535
X41.275Y-55.245
X41.275Y-71.755
X46.99Y-85.09
X48.26Y-71.755
X49.53Y-91.44
X51.435Y-98.425
X53.34Y-69.215
X53.34Y-91.44
X55.88Y-73.025
X55.88Y-83.82
X56.515Y-55.245
X57.15Y-88.9
X57.15Y-94.615
X57.15Y-123.825
X60.325Y-55.245
X61.595Y-68.58
X62.865Y-131.445
X63.5Y-102.87
X64.135Y-59.055
X66.04Y-116.205
X67.8Y-118.2
X67.945Y-125.73
X68.58Y-146.05
X69.85Y-59.69
X70.4Y-108.2
X71.12Y-143.51
X72.39Y-108.585
X73.025Y-53.34
X73.914Y-69.342
X74.295Y-81.915
X74.9Y-114.8
X75.1Y-108.5
X76.2Y-98.425
X77.47Y-123.19
X78.486Y-69.342
X79.375Y-57.785
X82.55Y-84.455
X82.55Y-100.33
X83.185Y-66.04
X83.82Y-117.475
X84.2Y-92.0
X86.36Y-76.835
X88.9Y-96.52
X89.535Y-89.535
X91.44Y-50.8
X91.44Y-114.3
X92.075Y-46.355
X94.615Y-89.535
X94.615Y-93.345
X94.615Y-98.425
X96.1Y-102.3
X96.3Y-118.0
X96.52Y-50.8
X96.52Y-113.665
X99.06Y-107.315
X99.06Y-176.53
X99.695Y-148.59
X99.695Y-168.91
X99.7Y-118.6
X100.6Y-92.0
X100.965Y-100.33
X102.87Y-140.97
X104.14Y-102.235
X105.41Y-114.3
X107.6Y-107.0
X107.9Y-102.3
X109.22Y-50.8
X109.855Y-121.285
X110.12Y-57.785
X110.236Y-146.304
X111.9Y-59.6
X114.4Y-49.0
X114.4Y-121.1
X114.935Y-68.58
X116.6Y-118.4
X116.713Y-110.998
X118.0Y-116.0
X118.11Y-175.26
X118.364Y-114.808
X118.745Y-55.245
X119.38Y-126.365
X119.8Y-128.1
X120.015Y-91.44
X120.28Y-116.802
X120.3Y-110.5
X120.65Y-79.375
X121.92Y-75.565
X124.46Y-152.4
X124.5Y-148.0
X125.095Y-118.745
X125.5Y-168.0
X125.73Y-52.07
X125.73Y-93.98
X125.73Y-140.97
X125.73Y-144.145
X126.365Y-125.73
X128.905Y-157.48
X129.54Y-151.13
X130.81Y-83.82
X130.81Y-116.84
X131.2Y-144.8
X132.6Y-121.9
X132.7Y-126.2
X132.9Y-113.6
X134.62Y-155.575
X135.1Y-148.8
X147.32Y-107.315
X149.225Y-97.155
X151.765Y-109.855
X152.4Y-102.87
X153.035Y-86.36
X156.3Y-98.4
X157.48Y-106.68
M30
