G04 #@! TF.GenerationSoftware,KiCad,Pcbnew,7.0.10*
G04 #@! TF.CreationDate,2024-02-18T18:29:19+01:00*
G04 #@! TF.ProjectId,hackerspacesnl,6861636b-6572-4737-9061-6365736e6c2e,rev?*
G04 #@! TF.SameCoordinates,Original*
G04 #@! TF.FileFunction,Paste,Bot*
G04 #@! TF.FilePolarity,Positive*
%FSLAX46Y46*%
G04 Gerber Fmt 4.6, Leading zero omitted, Abs format (unit mm)*
G04 Created by KiCad (PCBNEW 7.0.10) date 2024-02-18 18:29:19*
%MOMM*%
%LPD*%
G01*
G04 APERTURE LIST*
G04 Aperture macros list*
%AMRoundRect*
0 Rectangle with rounded corners*
0 $1 Rounding radius*
0 $2 $3 $4 $5 $6 $7 $8 $9 X,Y pos of 4 corners*
0 Add a 4 corners polygon primitive as box body*
4,1,4,$2,$3,$4,$5,$6,$7,$8,$9,$2,$3,0*
0 Add four circle primitives for the rounded corners*
1,1,$1+$1,$2,$3*
1,1,$1+$1,$4,$5*
1,1,$1+$1,$6,$7*
1,1,$1+$1,$8,$9*
0 Add four rect primitives between the rounded corners*
20,1,$1+$1,$2,$3,$4,$5,0*
20,1,$1+$1,$4,$5,$6,$7,0*
20,1,$1+$1,$6,$7,$8,$9,0*
20,1,$1+$1,$8,$9,$2,$3,0*%
G04 Aperture macros list end*
%ADD10R,0.820000X1.600000*%
%ADD11RoundRect,0.250000X-0.337500X-0.475000X0.337500X-0.475000X0.337500X0.475000X-0.337500X0.475000X0*%
%ADD12RoundRect,0.250001X0.624999X-0.462499X0.624999X0.462499X-0.624999X0.462499X-0.624999X-0.462499X0*%
%ADD13RoundRect,0.250000X0.450000X-0.350000X0.450000X0.350000X-0.450000X0.350000X-0.450000X-0.350000X0*%
%ADD14RoundRect,0.250000X1.950000X1.000000X-1.950000X1.000000X-1.950000X-1.000000X1.950000X-1.000000X0*%
%ADD15RoundRect,0.250000X-0.350000X-0.450000X0.350000X-0.450000X0.350000X0.450000X-0.350000X0.450000X0*%
%ADD16R,1.500000X1.500000*%
%ADD17RoundRect,0.150000X0.825000X0.150000X-0.825000X0.150000X-0.825000X-0.150000X0.825000X-0.150000X0*%
%ADD18R,1.600000X9.000000*%
%ADD19RoundRect,0.250000X-1.000000X-0.650000X1.000000X-0.650000X1.000000X0.650000X-1.000000X0.650000X0*%
%ADD20RoundRect,0.250000X0.337500X0.475000X-0.337500X0.475000X-0.337500X-0.475000X0.337500X-0.475000X0*%
G04 APERTURE END LIST*
D10*
X94567440Y-109346080D03*
X93067440Y-109346080D03*
X93067440Y-114946080D03*
X94567440Y-114946080D03*
X71108000Y-119539100D03*
X69608000Y-119539100D03*
X69608000Y-125139100D03*
X71108000Y-125139100D03*
X123509100Y-86142400D03*
X122009100Y-86142400D03*
X122009100Y-91742400D03*
X123509100Y-91742400D03*
X123382100Y-110970900D03*
X121882100Y-110970900D03*
X121882100Y-116570900D03*
X123382100Y-116570900D03*
X112764900Y-114158600D03*
X111264900Y-114158600D03*
X111264900Y-119758600D03*
X112764900Y-119758600D03*
X102897000Y-142695500D03*
X101397000Y-142695500D03*
X101397000Y-148295500D03*
X102897000Y-148295500D03*
X97651900Y-94664100D03*
X96151900Y-94664100D03*
X96151900Y-100264100D03*
X97651900Y-100264100D03*
X150889400Y-101370480D03*
X149389400Y-101370480D03*
X149389400Y-106970480D03*
X150889400Y-106970480D03*
X122675080Y-120456040D03*
X121175080Y-120456040D03*
X121175080Y-126056040D03*
X122675080Y-126056040D03*
X121362800Y-170432300D03*
X119862800Y-170432300D03*
X119862800Y-176032300D03*
X121362800Y-176032300D03*
X85777400Y-94499000D03*
X84277400Y-94499000D03*
X84277400Y-100099000D03*
X85777400Y-100099000D03*
X69227500Y-110170800D03*
X67727500Y-110170800D03*
X67727500Y-115770800D03*
X69227500Y-115770800D03*
X102198500Y-104176400D03*
X100698500Y-104176400D03*
X100698500Y-109776400D03*
X102198500Y-109776400D03*
X113309200Y-52093700D03*
X111809200Y-52093700D03*
X111809200Y-57693700D03*
X113309200Y-57693700D03*
X127865200Y-146657900D03*
X126365200Y-146657900D03*
X126365200Y-152257900D03*
X127865200Y-152257900D03*
D11*
X152632500Y-98425000D03*
X154707500Y-98425000D03*
X132588000Y-146812000D03*
X134663000Y-146812000D03*
D12*
X139700000Y-150077500D03*
X139700000Y-147102500D03*
D11*
X115802500Y-112776000D03*
X117877500Y-112776000D03*
X129137500Y-113665000D03*
X131212500Y-113665000D03*
D13*
X50800000Y-69580000D03*
X50800000Y-67580000D03*
D14*
X65160000Y-91440000D03*
X56760000Y-91440000D03*
D11*
X72855000Y-116840000D03*
X74930000Y-116840000D03*
X124057500Y-170180000D03*
X126132500Y-170180000D03*
X75162500Y-55880000D03*
X77237500Y-55880000D03*
X97514500Y-89916000D03*
X99589500Y-89916000D03*
D15*
X82820000Y-62230000D03*
X84820000Y-62230000D03*
D16*
X35560000Y-95340000D03*
X35560000Y-87540000D03*
D17*
X78675000Y-59690000D03*
X78675000Y-60960000D03*
X78675000Y-62230000D03*
X78675000Y-63500000D03*
X78675000Y-64770000D03*
X78675000Y-66040000D03*
X78675000Y-67310000D03*
X73725000Y-67310000D03*
X73725000Y-66040000D03*
X73725000Y-64770000D03*
X73725000Y-63500000D03*
X73725000Y-62230000D03*
X73725000Y-60960000D03*
X73725000Y-59690000D03*
D11*
X105642500Y-104140000D03*
X107717500Y-104140000D03*
D18*
X40640000Y-48570000D03*
X43180000Y-48570000D03*
X45720000Y-48570000D03*
X48260000Y-48570000D03*
X50800000Y-48570000D03*
X53340000Y-48570000D03*
X55880000Y-48570000D03*
X58420000Y-48570000D03*
X58420000Y-78430000D03*
X55880000Y-78430000D03*
X53340000Y-78430000D03*
X50800000Y-78430000D03*
X48260000Y-78430000D03*
X45720000Y-78430000D03*
X43180000Y-78430000D03*
X40640000Y-78430000D03*
D11*
X130005000Y-123952000D03*
X132080000Y-123952000D03*
D19*
X141510000Y-142240000D03*
X145510000Y-142240000D03*
D20*
X117877500Y-50165000D03*
X115802500Y-50165000D03*
D11*
X100562500Y-116840000D03*
X102637500Y-116840000D03*
X73892500Y-110490000D03*
X75967500Y-110490000D03*
D20*
X86381500Y-89916000D03*
X84306500Y-89916000D03*
D11*
X125327500Y-82550000D03*
X127402500Y-82550000D03*
X107166500Y-144780000D03*
X109241500Y-144780000D03*
M02*
