%TF.GenerationSoftware,KiCad,Pcbnew,7.0.10*%
%TF.CreationDate,2024-02-18T18:29:23+01:00*%
%TF.ProjectId,hackerspacesnl,6861636b-6572-4737-9061-6365736e6c2e,rev?*%
%TF.SameCoordinates,Original*%
%TF.FileFunction,Drillmap*%
%TF.FilePolarity,Positive*%
%FSLAX45Y45*%
G04 Gerber Fmt 4.5, Leading zero omitted, Abs format (unit mm)*
G04 Created by KiCad (PCBNEW 7.0.10) date 2024-02-18 18:29:23*
%MOMM*%
%LPD*%
G01*
G04 APERTURE LIST*
%ADD10C,0.100000*%
%ADD11C,0.050000*%
%ADD12C,0.200000*%
G04 APERTURE END LIST*
D10*
X3223937Y-3686033D02*
X3224970Y-3644873D01*
X3223937Y-18041127D02*
X3223937Y-3686033D01*
X3224970Y-3644873D02*
X3228036Y-3604267D01*
X3224970Y-18082286D02*
X3223937Y-18041127D01*
X3228036Y-3604267D02*
X3233086Y-3564265D01*
X3228036Y-18122892D02*
X3224970Y-18082286D01*
X3233086Y-3564265D02*
X3240071Y-3524915D01*
X3233086Y-18162895D02*
X3228036Y-18122892D01*
X3240071Y-3524915D02*
X3248942Y-3486267D01*
X3240071Y-18202244D02*
X3233086Y-18162895D01*
X3248942Y-3486267D02*
X3259648Y-3448371D01*
X3248942Y-18240892D02*
X3240071Y-18202244D01*
X3259648Y-3448371D02*
X3272141Y-3411276D01*
X3259648Y-18278788D02*
X3248942Y-18240892D01*
X3272141Y-3411276D02*
X3286371Y-3375031D01*
X3272141Y-18315883D02*
X3259648Y-18278788D01*
X3286371Y-3375031D02*
X3302289Y-3339685D01*
X3286371Y-18352129D02*
X3272141Y-18315883D01*
X3302289Y-3339685D02*
X3319846Y-3305288D01*
X3302289Y-18387474D02*
X3286371Y-18352129D01*
X3319846Y-3305288D02*
X3338993Y-3271890D01*
X3319846Y-18421871D02*
X3302289Y-18387474D01*
X3338993Y-3271890D02*
X3359679Y-3239539D01*
X3338993Y-18455269D02*
X3319846Y-18421871D01*
X3359679Y-3239539D02*
X3381857Y-3208285D01*
X3359679Y-18487620D02*
X3338993Y-18455269D01*
X3381857Y-3208285D02*
X3405475Y-3178177D01*
X3381857Y-18518874D02*
X3359679Y-18487620D01*
X3405475Y-3178177D02*
X3430486Y-3149266D01*
X3405475Y-18548982D02*
X3381857Y-18518874D01*
X3430486Y-3149266D02*
X3456839Y-3121599D01*
X3430486Y-18577894D02*
X3405475Y-18548982D01*
X3456839Y-3121599D02*
X3484486Y-3095226D01*
X3456839Y-18605561D02*
X3430486Y-18577894D01*
X3484486Y-3095226D02*
X3513377Y-3070197D01*
X3484486Y-18631933D02*
X3456839Y-18605561D01*
X3513377Y-3070197D02*
X3543463Y-3046562D01*
X3513377Y-18656962D02*
X3484486Y-18631933D01*
X3543463Y-3046562D02*
X3574695Y-3024368D01*
X3543463Y-18680598D02*
X3513377Y-18656962D01*
X3574695Y-3024368D02*
X3607022Y-3003667D01*
X3574695Y-18702791D02*
X3543463Y-18680598D01*
X3607022Y-3003667D02*
X3640397Y-2984507D01*
X3607022Y-18723492D02*
X3574695Y-18702791D01*
X3640397Y-2984507D02*
X3674768Y-2966937D01*
X3640397Y-18742653D02*
X3607022Y-18723492D01*
X3674768Y-2966937D02*
X3710089Y-2951007D01*
X3674768Y-18760222D02*
X3640397Y-18742653D01*
X3710089Y-2951007D02*
X3746308Y-2936767D01*
X3710089Y-18776152D02*
X3674768Y-18760222D01*
X3746308Y-2936767D02*
X3783376Y-2924265D01*
X3746308Y-18790393D02*
X3710089Y-18776152D01*
X3783376Y-2924265D02*
X3821245Y-2913551D01*
X3783376Y-18802895D02*
X3746308Y-18790393D01*
X3821245Y-2913551D02*
X3859865Y-2904674D01*
X3821245Y-18813608D02*
X3783376Y-18802895D01*
X3859865Y-2904674D02*
X3899186Y-2897684D01*
X3859865Y-18822485D02*
X3821245Y-18813608D01*
X3899186Y-2897684D02*
X3939160Y-2892630D01*
X3899186Y-18829475D02*
X3859865Y-18822485D01*
X3939160Y-2892630D02*
X3979736Y-2889562D01*
X3939160Y-18834529D02*
X3899186Y-18829475D01*
X3979736Y-2889562D02*
X4020866Y-2888528D01*
X3979736Y-18837598D02*
X3939160Y-18834529D01*
X4020866Y-2888528D02*
X4020866Y-2888528D01*
X4020866Y-2888528D02*
X4020866Y-2888528D01*
X4020866Y-2888528D02*
X15377112Y-2888528D01*
X4020866Y-18838632D02*
X3979736Y-18837598D01*
X15377112Y-2888528D02*
X15418242Y-2889562D01*
X15377112Y-18838632D02*
X4020866Y-18838632D01*
X15418242Y-2889562D02*
X15458819Y-2892630D01*
X15418242Y-18837598D02*
X15377112Y-18838632D01*
X15458819Y-2892630D02*
X15498792Y-2897684D01*
X15458819Y-18834529D02*
X15418242Y-18837598D01*
X15498792Y-2897684D02*
X15538114Y-2904674D01*
X15498792Y-18829475D02*
X15458819Y-18834529D01*
X15538114Y-2904674D02*
X15576733Y-2913551D01*
X15538114Y-18822485D02*
X15498792Y-18829475D01*
X15576733Y-2913551D02*
X15614602Y-2924265D01*
X15576733Y-18813608D02*
X15538114Y-18822485D01*
X15614602Y-2924265D02*
X15651671Y-2936767D01*
X15614602Y-18802895D02*
X15576733Y-18813608D01*
X15651671Y-2936767D02*
X15687890Y-2951007D01*
X15651671Y-18790393D02*
X15614602Y-18802895D01*
X15687890Y-2951007D02*
X15723210Y-2966937D01*
X15687890Y-18776152D02*
X15651671Y-18790393D01*
X15723210Y-2966937D02*
X15757582Y-2984507D01*
X15723210Y-18760222D02*
X15687890Y-18776152D01*
X15757582Y-2984507D02*
X15790956Y-3003667D01*
X15757582Y-18742653D02*
X15723210Y-18760222D01*
X15790956Y-3003667D02*
X15823284Y-3024368D01*
X15790956Y-18723492D02*
X15757582Y-18742653D01*
X15823284Y-3024368D02*
X15854515Y-3046562D01*
X15823284Y-18702791D02*
X15790956Y-18723492D01*
X15854515Y-3046562D02*
X15884601Y-3070197D01*
X15854515Y-18680598D02*
X15823284Y-18702791D01*
X15884601Y-3070197D02*
X15913492Y-3095226D01*
X15884601Y-18656962D02*
X15854515Y-18680598D01*
X15913492Y-3095226D02*
X15941139Y-3121599D01*
X15913492Y-18631933D02*
X15884601Y-18656962D01*
X15941139Y-3121599D02*
X15967493Y-3149266D01*
X15941139Y-18605561D02*
X15913492Y-18631933D01*
X15967493Y-3149266D02*
X15992504Y-3178177D01*
X15967493Y-18577894D02*
X15941139Y-18605561D01*
X15992504Y-3178177D02*
X16016122Y-3208285D01*
X15992504Y-18548982D02*
X15967493Y-18577894D01*
X16016122Y-3208285D02*
X16038299Y-3239539D01*
X16016122Y-18518874D02*
X15992504Y-18548982D01*
X16038299Y-3239539D02*
X16058986Y-3271890D01*
X16038299Y-18487620D02*
X16016122Y-18518874D01*
X16058986Y-3271890D02*
X16078132Y-3305288D01*
X16058986Y-18455269D02*
X16038299Y-18487620D01*
X16078132Y-3305288D02*
X16095689Y-3339685D01*
X16078132Y-18421871D02*
X16058986Y-18455269D01*
X16095689Y-3339685D02*
X16111608Y-3375031D01*
X16095689Y-18387474D02*
X16078132Y-18421871D01*
X16111608Y-3375031D02*
X16125838Y-3411276D01*
X16111608Y-18352129D02*
X16095689Y-18387474D01*
X16125838Y-3411276D02*
X16138331Y-3448371D01*
X16125838Y-18315883D02*
X16111608Y-18352129D01*
X16138331Y-3448371D02*
X16149037Y-3486267D01*
X16138331Y-18278788D02*
X16125838Y-18315883D01*
X16149037Y-3486267D02*
X16157907Y-3524915D01*
X16149037Y-18240892D02*
X16138331Y-18278788D01*
X16157907Y-3524915D02*
X16164892Y-3564265D01*
X16157907Y-18202244D02*
X16149037Y-18240892D01*
X16164892Y-3564265D02*
X16169943Y-3604267D01*
X16164892Y-18162895D02*
X16157907Y-18202244D01*
X16169943Y-3604267D02*
X16173009Y-3644873D01*
X16169943Y-18122892D02*
X16164892Y-18162895D01*
X16173009Y-3644873D02*
X16174042Y-3686033D01*
X16173009Y-18082286D02*
X16169943Y-18122892D01*
X16174042Y-3686033D02*
X16174042Y-18041127D01*
X16174042Y-18041127D02*
X16173009Y-18082286D01*
D11*
X9501744Y-11394608D02*
X9261744Y-11394608D01*
X9221744Y-11354608D02*
X9221744Y-11074608D01*
X9541744Y-11354608D02*
X9541744Y-11074608D01*
X9501744Y-11034608D02*
X9261744Y-11034608D01*
X9221744Y-11354608D02*
G75*
G03*
X9261744Y-11394608I40000J0D01*
G01*
X9501744Y-11394608D02*
G75*
G03*
X9541744Y-11354608I0J40000D01*
G01*
X9261744Y-11034608D02*
G75*
G03*
X9221744Y-11074608I0J-40000D01*
G01*
X9541744Y-11074608D02*
G75*
G03*
X9501744Y-11034608I-40000J0D01*
G01*
X7155800Y-12413910D02*
X6915800Y-12413910D01*
X6875800Y-12373910D02*
X6875800Y-12093910D01*
X7195800Y-12373910D02*
X7195800Y-12093910D01*
X7155800Y-12053910D02*
X6915800Y-12053910D01*
X6875800Y-12373910D02*
G75*
G03*
X6915800Y-12413910I40000J0D01*
G01*
X7155800Y-12413910D02*
G75*
G03*
X7195800Y-12373910I0J40000D01*
G01*
X6915800Y-12053910D02*
G75*
G03*
X6875800Y-12093910I0J-40000D01*
G01*
X7195800Y-12093910D02*
G75*
G03*
X7155800Y-12053910I-40000J0D01*
G01*
X12395910Y-9074240D02*
X12155910Y-9074240D01*
X12115910Y-9034240D02*
X12115910Y-8754240D01*
X12435910Y-9034240D02*
X12435910Y-8754240D01*
X12395910Y-8714240D02*
X12155910Y-8714240D01*
X12115910Y-9034240D02*
G75*
G03*
X12155910Y-9074240I40000J0D01*
G01*
X12395910Y-9074240D02*
G75*
G03*
X12435910Y-9034240I0J40000D01*
G01*
X12155910Y-8714240D02*
G75*
G03*
X12115910Y-8754240I0J-40000D01*
G01*
X12435910Y-8754240D02*
G75*
G03*
X12395910Y-8714240I-40000J0D01*
G01*
X12383210Y-11557090D02*
X12143210Y-11557090D01*
X12103210Y-11517090D02*
X12103210Y-11237090D01*
X12423210Y-11517090D02*
X12423210Y-11237090D01*
X12383210Y-11197090D02*
X12143210Y-11197090D01*
X12103210Y-11517090D02*
G75*
G03*
X12143210Y-11557090I40000J0D01*
G01*
X12383210Y-11557090D02*
G75*
G03*
X12423210Y-11517090I0J40000D01*
G01*
X12143210Y-11197090D02*
G75*
G03*
X12103210Y-11237090I0J-40000D01*
G01*
X12423210Y-11237090D02*
G75*
G03*
X12383210Y-11197090I-40000J0D01*
G01*
X11321490Y-11875860D02*
X11081490Y-11875860D01*
X11041490Y-11835860D02*
X11041490Y-11555860D01*
X11361490Y-11835860D02*
X11361490Y-11555860D01*
X11321490Y-11515860D02*
X11081490Y-11515860D01*
X11041490Y-11835860D02*
G75*
G03*
X11081490Y-11875860I40000J0D01*
G01*
X11321490Y-11875860D02*
G75*
G03*
X11361490Y-11835860I0J40000D01*
G01*
X11081490Y-11515860D02*
G75*
G03*
X11041490Y-11555860I0J-40000D01*
G01*
X11361490Y-11555860D02*
G75*
G03*
X11321490Y-11515860I-40000J0D01*
G01*
X10334700Y-14729550D02*
X10094700Y-14729550D01*
X10054700Y-14689550D02*
X10054700Y-14409550D01*
X10374700Y-14689550D02*
X10374700Y-14409550D01*
X10334700Y-14369550D02*
X10094700Y-14369550D01*
X10054700Y-14689550D02*
G75*
G03*
X10094700Y-14729550I40000J0D01*
G01*
X10334700Y-14729550D02*
G75*
G03*
X10374700Y-14689550I0J40000D01*
G01*
X10094700Y-14369550D02*
G75*
G03*
X10054700Y-14409550I0J-40000D01*
G01*
X10374700Y-14409550D02*
G75*
G03*
X10334700Y-14369550I-40000J0D01*
G01*
X9810190Y-9926410D02*
X9570190Y-9926410D01*
X9530190Y-9886410D02*
X9530190Y-9606410D01*
X9850190Y-9886410D02*
X9850190Y-9606410D01*
X9810190Y-9566410D02*
X9570190Y-9566410D01*
X9530190Y-9886410D02*
G75*
G03*
X9570190Y-9926410I40000J0D01*
G01*
X9810190Y-9926410D02*
G75*
G03*
X9850190Y-9886410I0J40000D01*
G01*
X9570190Y-9566410D02*
G75*
G03*
X9530190Y-9606410I0J-40000D01*
G01*
X9850190Y-9606410D02*
G75*
G03*
X9810190Y-9566410I-40000J0D01*
G01*
X15133940Y-10597048D02*
X14893940Y-10597048D01*
X14853940Y-10557048D02*
X14853940Y-10277048D01*
X15173940Y-10557048D02*
X15173940Y-10277048D01*
X15133940Y-10237048D02*
X14893940Y-10237048D01*
X14853940Y-10557048D02*
G75*
G03*
X14893940Y-10597048I40000J0D01*
G01*
X15133940Y-10597048D02*
G75*
G03*
X15173940Y-10557048I0J40000D01*
G01*
X14893940Y-10237048D02*
G75*
G03*
X14853940Y-10277048I0J-40000D01*
G01*
X15173940Y-10277048D02*
G75*
G03*
X15133940Y-10237048I-40000J0D01*
G01*
X12312508Y-12505604D02*
X12072508Y-12505604D01*
X12032508Y-12465604D02*
X12032508Y-12185604D01*
X12352508Y-12465604D02*
X12352508Y-12185604D01*
X12312508Y-12145604D02*
X12072508Y-12145604D01*
X12032508Y-12465604D02*
G75*
G03*
X12072508Y-12505604I40000J0D01*
G01*
X12312508Y-12505604D02*
G75*
G03*
X12352508Y-12465604I0J40000D01*
G01*
X12072508Y-12145604D02*
G75*
G03*
X12032508Y-12185604I0J-40000D01*
G01*
X12352508Y-12185604D02*
G75*
G03*
X12312508Y-12145604I-40000J0D01*
G01*
X12181280Y-17503230D02*
X11941280Y-17503230D01*
X11901280Y-17463230D02*
X11901280Y-17183230D01*
X12221280Y-17463230D02*
X12221280Y-17183230D01*
X12181280Y-17143230D02*
X11941280Y-17143230D01*
X11901280Y-17463230D02*
G75*
G03*
X11941280Y-17503230I40000J0D01*
G01*
X12181280Y-17503230D02*
G75*
G03*
X12221280Y-17463230I0J40000D01*
G01*
X11941280Y-17143230D02*
G75*
G03*
X11901280Y-17183230I0J-40000D01*
G01*
X12221280Y-17183230D02*
G75*
G03*
X12181280Y-17143230I-40000J0D01*
G01*
X8622740Y-9909900D02*
X8382740Y-9909900D01*
X8342740Y-9869900D02*
X8342740Y-9589900D01*
X8662740Y-9869900D02*
X8662740Y-9589900D01*
X8622740Y-9549900D02*
X8382740Y-9549900D01*
X8342740Y-9869900D02*
G75*
G03*
X8382740Y-9909900I40000J0D01*
G01*
X8622740Y-9909900D02*
G75*
G03*
X8662740Y-9869900I0J40000D01*
G01*
X8382740Y-9549900D02*
G75*
G03*
X8342740Y-9589900I0J-40000D01*
G01*
X8662740Y-9589900D02*
G75*
G03*
X8622740Y-9549900I-40000J0D01*
G01*
X6967750Y-11477080D02*
X6727750Y-11477080D01*
X6687750Y-11437080D02*
X6687750Y-11157080D01*
X7007750Y-11437080D02*
X7007750Y-11157080D01*
X6967750Y-11117080D02*
X6727750Y-11117080D01*
X6687750Y-11437080D02*
G75*
G03*
X6727750Y-11477080I40000J0D01*
G01*
X6967750Y-11477080D02*
G75*
G03*
X7007750Y-11437080I0J40000D01*
G01*
X6727750Y-11117080D02*
G75*
G03*
X6687750Y-11157080I0J-40000D01*
G01*
X7007750Y-11157080D02*
G75*
G03*
X6967750Y-11117080I-40000J0D01*
G01*
X10264850Y-10877640D02*
X10024850Y-10877640D01*
X9984850Y-10837640D02*
X9984850Y-10557640D01*
X10304850Y-10837640D02*
X10304850Y-10557640D01*
X10264850Y-10517640D02*
X10024850Y-10517640D01*
X9984850Y-10837640D02*
G75*
G03*
X10024850Y-10877640I40000J0D01*
G01*
X10264850Y-10877640D02*
G75*
G03*
X10304850Y-10837640I0J40000D01*
G01*
X10024850Y-10517640D02*
G75*
G03*
X9984850Y-10557640I0J-40000D01*
G01*
X10304850Y-10557640D02*
G75*
G03*
X10264850Y-10517640I-40000J0D01*
G01*
X11375920Y-5669370D02*
X11135920Y-5669370D01*
X11095920Y-5629370D02*
X11095920Y-5349370D01*
X11415920Y-5629370D02*
X11415920Y-5349370D01*
X11375920Y-5309370D02*
X11135920Y-5309370D01*
X11095920Y-5629370D02*
G75*
G03*
X11135920Y-5669370I40000J0D01*
G01*
X11375920Y-5669370D02*
G75*
G03*
X11415920Y-5629370I0J40000D01*
G01*
X11135920Y-5309370D02*
G75*
G03*
X11095920Y-5349370I0J-40000D01*
G01*
X11415920Y-5349370D02*
G75*
G03*
X11375920Y-5309370I-40000J0D01*
G01*
X12831520Y-15125790D02*
X12591520Y-15125790D01*
X12551520Y-15085790D02*
X12551520Y-14805790D01*
X12871520Y-15085790D02*
X12871520Y-14805790D01*
X12831520Y-14765790D02*
X12591520Y-14765790D01*
X12551520Y-15085790D02*
G75*
G03*
X12591520Y-15125790I40000J0D01*
G01*
X12831520Y-15125790D02*
G75*
G03*
X12871520Y-15085790I0J40000D01*
G01*
X12591520Y-14765790D02*
G75*
G03*
X12551520Y-14805790I0J-40000D01*
G01*
X12871520Y-14805790D02*
G75*
G03*
X12831520Y-14765790I-40000J0D01*
G01*
D12*
D10*
X3536000Y-9695500D02*
X3576000Y-9735500D01*
X3576000Y-9695500D02*
X3536000Y-9735500D01*
X4044000Y-8933500D02*
X4084000Y-8973500D01*
X4084000Y-8933500D02*
X4044000Y-8973500D01*
X4107500Y-5504500D02*
X4147500Y-5544500D01*
X4147500Y-5504500D02*
X4107500Y-5544500D01*
X4107500Y-7155500D02*
X4147500Y-7195500D01*
X4147500Y-7155500D02*
X4107500Y-7195500D01*
X4679000Y-8489000D02*
X4719000Y-8529000D01*
X4719000Y-8489000D02*
X4679000Y-8529000D01*
X4806000Y-7155500D02*
X4846000Y-7195500D01*
X4846000Y-7155500D02*
X4806000Y-7195500D01*
X4933000Y-9124000D02*
X4973000Y-9164000D01*
X4973000Y-9124000D02*
X4933000Y-9164000D01*
X5123500Y-9822500D02*
X5163500Y-9862500D01*
X5163500Y-9822500D02*
X5123500Y-9862500D01*
X5314000Y-6901500D02*
X5354000Y-6941500D01*
X5354000Y-6901500D02*
X5314000Y-6941500D01*
X5314000Y-9124000D02*
X5354000Y-9164000D01*
X5354000Y-9124000D02*
X5314000Y-9164000D01*
X5568000Y-7282500D02*
X5608000Y-7322500D01*
X5608000Y-7282500D02*
X5568000Y-7322500D01*
X5568000Y-8362000D02*
X5608000Y-8402000D01*
X5608000Y-8362000D02*
X5568000Y-8402000D01*
X5631500Y-5504500D02*
X5671500Y-5544500D01*
X5671500Y-5504500D02*
X5631500Y-5544500D01*
X5695000Y-8870000D02*
X5735000Y-8910000D01*
X5735000Y-8870000D02*
X5695000Y-8910000D01*
X5695000Y-9441500D02*
X5735000Y-9481500D01*
X5735000Y-9441500D02*
X5695000Y-9481500D01*
X5695000Y-12362500D02*
X5735000Y-12402500D01*
X5735000Y-12362500D02*
X5695000Y-12402500D01*
X6012500Y-5504500D02*
X6052500Y-5544500D01*
X6052500Y-5504500D02*
X6012500Y-5544500D01*
X6139500Y-6838000D02*
X6179500Y-6878000D01*
X6179500Y-6838000D02*
X6139500Y-6878000D01*
X6266500Y-13124500D02*
X6306500Y-13164500D01*
X6306500Y-13124500D02*
X6266500Y-13164500D01*
X6330000Y-10267000D02*
X6370000Y-10307000D01*
X6370000Y-10267000D02*
X6330000Y-10307000D01*
X6393500Y-5885500D02*
X6433500Y-5925500D01*
X6433500Y-5885500D02*
X6393500Y-5925500D01*
X6584000Y-11600500D02*
X6624000Y-11640500D01*
X6624000Y-11600500D02*
X6584000Y-11640500D01*
X6760000Y-11800000D02*
X6800000Y-11840000D01*
X6800000Y-11800000D02*
X6760000Y-11840000D01*
X6774500Y-12553000D02*
X6814500Y-12593000D01*
X6814500Y-12553000D02*
X6774500Y-12593000D01*
X6838000Y-14585000D02*
X6878000Y-14625000D01*
X6878000Y-14585000D02*
X6838000Y-14625000D01*
X6965000Y-5949000D02*
X7005000Y-5989000D01*
X7005000Y-5949000D02*
X6965000Y-5989000D01*
X7020000Y-10800000D02*
X7060000Y-10840000D01*
X7060000Y-10800000D02*
X7020000Y-10840000D01*
X7092000Y-14331000D02*
X7132000Y-14371000D01*
X7132000Y-14331000D02*
X7092000Y-14371000D01*
X7219000Y-10838500D02*
X7259000Y-10878500D01*
X7259000Y-10838500D02*
X7219000Y-10878500D01*
X7282500Y-5314000D02*
X7322500Y-5354000D01*
X7322500Y-5314000D02*
X7282500Y-5354000D01*
X7371400Y-6914200D02*
X7411400Y-6954200D01*
X7411400Y-6914200D02*
X7371400Y-6954200D01*
X7409500Y-8171500D02*
X7449500Y-8211500D01*
X7449500Y-8171500D02*
X7409500Y-8211500D01*
X7470000Y-11460000D02*
X7510000Y-11500000D01*
X7510000Y-11460000D02*
X7470000Y-11500000D01*
X7490000Y-10830000D02*
X7530000Y-10870000D01*
X7530000Y-10830000D02*
X7490000Y-10870000D01*
X7600000Y-9822500D02*
X7640000Y-9862500D01*
X7640000Y-9822500D02*
X7600000Y-9862500D01*
X7727000Y-12299000D02*
X7767000Y-12339000D01*
X7767000Y-12299000D02*
X7727000Y-12339000D01*
X7828600Y-6914200D02*
X7868600Y-6954200D01*
X7868600Y-6914200D02*
X7828600Y-6954200D01*
X7917500Y-5758500D02*
X7957500Y-5798500D01*
X7957500Y-5758500D02*
X7917500Y-5798500D01*
X8235000Y-8425500D02*
X8275000Y-8465500D01*
X8275000Y-8425500D02*
X8235000Y-8465500D01*
X8235000Y-10013000D02*
X8275000Y-10053000D01*
X8275000Y-10013000D02*
X8235000Y-10053000D01*
X8298500Y-6584000D02*
X8338500Y-6624000D01*
X8338500Y-6584000D02*
X8298500Y-6624000D01*
X8362000Y-11727500D02*
X8402000Y-11767500D01*
X8402000Y-11727500D02*
X8362000Y-11767500D01*
X8400000Y-9180000D02*
X8440000Y-9220000D01*
X8440000Y-9180000D02*
X8400000Y-9220000D01*
X8616000Y-7663500D02*
X8656000Y-7703500D01*
X8656000Y-7663500D02*
X8616000Y-7703500D01*
X8870000Y-9632000D02*
X8910000Y-9672000D01*
X8910000Y-9632000D02*
X8870000Y-9672000D01*
X8933500Y-8933500D02*
X8973500Y-8973500D01*
X8973500Y-8933500D02*
X8933500Y-8973500D01*
X9124000Y-5060000D02*
X9164000Y-5100000D01*
X9164000Y-5060000D02*
X9124000Y-5100000D01*
X9124000Y-11410000D02*
X9164000Y-11450000D01*
X9164000Y-11410000D02*
X9124000Y-11450000D01*
X9187500Y-4615500D02*
X9227500Y-4655500D01*
X9227500Y-4615500D02*
X9187500Y-4655500D01*
X9441500Y-8933500D02*
X9481500Y-8973500D01*
X9481500Y-8933500D02*
X9441500Y-8973500D01*
X9441500Y-9314500D02*
X9481500Y-9354500D01*
X9481500Y-9314500D02*
X9441500Y-9354500D01*
X9441500Y-9822500D02*
X9481500Y-9862500D01*
X9481500Y-9822500D02*
X9441500Y-9862500D01*
X9590000Y-10210000D02*
X9630000Y-10250000D01*
X9630000Y-10210000D02*
X9590000Y-10250000D01*
X9610000Y-11780000D02*
X9650000Y-11820000D01*
X9650000Y-11780000D02*
X9610000Y-11820000D01*
X9632000Y-5060000D02*
X9672000Y-5100000D01*
X9672000Y-5060000D02*
X9632000Y-5100000D01*
X9632000Y-11346500D02*
X9672000Y-11386500D01*
X9672000Y-11346500D02*
X9632000Y-11386500D01*
X9886000Y-10711500D02*
X9926000Y-10751500D01*
X9926000Y-10711500D02*
X9886000Y-10751500D01*
X9886000Y-17633000D02*
X9926000Y-17673000D01*
X9926000Y-17633000D02*
X9886000Y-17673000D01*
X9949500Y-14839000D02*
X9989500Y-14879000D01*
X9989500Y-14839000D02*
X9949500Y-14879000D01*
X9949500Y-16871000D02*
X9989500Y-16911000D01*
X9989500Y-16871000D02*
X9949500Y-16911000D01*
X9950000Y-11840000D02*
X9990000Y-11880000D01*
X9990000Y-11840000D02*
X9950000Y-11880000D01*
X10040000Y-9180000D02*
X10080000Y-9220000D01*
X10080000Y-9180000D02*
X10040000Y-9220000D01*
X10076500Y-10013000D02*
X10116500Y-10053000D01*
X10116500Y-10013000D02*
X10076500Y-10053000D01*
X10267000Y-14077000D02*
X10307000Y-14117000D01*
X10307000Y-14077000D02*
X10267000Y-14117000D01*
X10394000Y-10203500D02*
X10434000Y-10243500D01*
X10434000Y-10203500D02*
X10394000Y-10243500D01*
X10521000Y-11410000D02*
X10561000Y-11450000D01*
X10561000Y-11410000D02*
X10521000Y-11450000D01*
X10740000Y-10680000D02*
X10780000Y-10720000D01*
X10780000Y-10680000D02*
X10740000Y-10720000D01*
X10770000Y-10210000D02*
X10810000Y-10250000D01*
X10810000Y-10210000D02*
X10770000Y-10250000D01*
X10902000Y-5060000D02*
X10942000Y-5100000D01*
X10942000Y-5060000D02*
X10902000Y-5100000D01*
X10965500Y-12108500D02*
X11005500Y-12148500D01*
X11005500Y-12108500D02*
X10965500Y-12148500D01*
X10992000Y-5758500D02*
X11032000Y-5798500D01*
X11032000Y-5758500D02*
X10992000Y-5798500D01*
X11003600Y-14610400D02*
X11043600Y-14650400D01*
X11043600Y-14610400D02*
X11003600Y-14650400D01*
X11170000Y-5940000D02*
X11210000Y-5980000D01*
X11210000Y-5940000D02*
X11170000Y-5980000D01*
X11420000Y-4880000D02*
X11460000Y-4920000D01*
X11460000Y-4880000D02*
X11420000Y-4920000D01*
X11420000Y-12090000D02*
X11460000Y-12130000D01*
X11460000Y-12090000D02*
X11420000Y-12130000D01*
X11473500Y-6838000D02*
X11513500Y-6878000D01*
X11513500Y-6838000D02*
X11473500Y-6878000D01*
X11640000Y-11820000D02*
X11680000Y-11860000D01*
X11680000Y-11820000D02*
X11640000Y-11860000D01*
X11651300Y-11079800D02*
X11691300Y-11119800D01*
X11691300Y-11079800D02*
X11651300Y-11119800D01*
X11780000Y-11580000D02*
X11820000Y-11620000D01*
X11820000Y-11580000D02*
X11780000Y-11620000D01*
X11791000Y-17506000D02*
X11831000Y-17546000D01*
X11831000Y-17506000D02*
X11791000Y-17546000D01*
X11816400Y-11460800D02*
X11856400Y-11500800D01*
X11856400Y-11460800D02*
X11816400Y-11500800D01*
X11854500Y-5504500D02*
X11894500Y-5544500D01*
X11894500Y-5504500D02*
X11854500Y-5544500D01*
X11918000Y-12616500D02*
X11958000Y-12656500D01*
X11958000Y-12616500D02*
X11918000Y-12656500D01*
X11960000Y-12790000D02*
X12000000Y-12830000D01*
X12000000Y-12790000D02*
X11960000Y-12830000D01*
X11981500Y-9124000D02*
X12021500Y-9164000D01*
X12021500Y-9124000D02*
X11981500Y-9164000D01*
X12008000Y-11660185D02*
X12048000Y-11700185D01*
X12048000Y-11660185D02*
X12008000Y-11700185D01*
X12010000Y-11030000D02*
X12050000Y-11070000D01*
X12050000Y-11030000D02*
X12010000Y-11070000D01*
X12045000Y-7917500D02*
X12085000Y-7957500D01*
X12085000Y-7917500D02*
X12045000Y-7957500D01*
X12172000Y-7536500D02*
X12212000Y-7576500D01*
X12212000Y-7536500D02*
X12172000Y-7576500D01*
X12426000Y-15220000D02*
X12466000Y-15260000D01*
X12466000Y-15220000D02*
X12426000Y-15260000D01*
X12430000Y-14780000D02*
X12470000Y-14820000D01*
X12470000Y-14780000D02*
X12430000Y-14820000D01*
X12489500Y-11854500D02*
X12529500Y-11894500D01*
X12529500Y-11854500D02*
X12489500Y-11894500D01*
X12530000Y-16780000D02*
X12570000Y-16820000D01*
X12570000Y-16780000D02*
X12530000Y-16820000D01*
X12553000Y-5187000D02*
X12593000Y-5227000D01*
X12593000Y-5187000D02*
X12553000Y-5227000D01*
X12553000Y-9378000D02*
X12593000Y-9418000D01*
X12593000Y-9378000D02*
X12553000Y-9418000D01*
X12553000Y-14077000D02*
X12593000Y-14117000D01*
X12593000Y-14077000D02*
X12553000Y-14117000D01*
X12553000Y-14394500D02*
X12593000Y-14434500D01*
X12593000Y-14394500D02*
X12553000Y-14434500D01*
X12616500Y-12553000D02*
X12656500Y-12593000D01*
X12656500Y-12553000D02*
X12616500Y-12593000D01*
X12870500Y-15728000D02*
X12910500Y-15768000D01*
X12910500Y-15728000D02*
X12870500Y-15768000D01*
X12934000Y-15093000D02*
X12974000Y-15133000D01*
X12974000Y-15093000D02*
X12934000Y-15133000D01*
X13061000Y-8362000D02*
X13101000Y-8402000D01*
X13101000Y-8362000D02*
X13061000Y-8402000D01*
X13061000Y-11664000D02*
X13101000Y-11704000D01*
X13101000Y-11664000D02*
X13061000Y-11704000D01*
X13100000Y-14460000D02*
X13140000Y-14500000D01*
X13140000Y-14460000D02*
X13100000Y-14500000D01*
X13240000Y-12170000D02*
X13280000Y-12210000D01*
X13280000Y-12170000D02*
X13240000Y-12210000D01*
X13250000Y-12600000D02*
X13290000Y-12640000D01*
X13290000Y-12600000D02*
X13250000Y-12640000D01*
X13270000Y-11340000D02*
X13310000Y-11380000D01*
X13310000Y-11340000D02*
X13270000Y-11380000D01*
X13442000Y-15537500D02*
X13482000Y-15577500D01*
X13482000Y-15537500D02*
X13442000Y-15577500D01*
X13490000Y-14860000D02*
X13530000Y-14900000D01*
X13530000Y-14860000D02*
X13490000Y-14900000D01*
X14712000Y-10711500D02*
X14752000Y-10751500D01*
X14752000Y-10711500D02*
X14712000Y-10751500D01*
X14902500Y-9695500D02*
X14942500Y-9735500D01*
X14942500Y-9695500D02*
X14902500Y-9735500D01*
X15156500Y-10965500D02*
X15196500Y-11005500D01*
X15196500Y-10965500D02*
X15156500Y-11005500D01*
X15220000Y-10267000D02*
X15260000Y-10307000D01*
X15260000Y-10267000D02*
X15220000Y-10307000D01*
X15283500Y-8616000D02*
X15323500Y-8656000D01*
X15323500Y-8616000D02*
X15283500Y-8656000D01*
X15610000Y-9820000D02*
X15650000Y-9860000D01*
X15650000Y-9820000D02*
X15610000Y-9860000D01*
X15728000Y-10648000D02*
X15768000Y-10688000D01*
X15768000Y-10648000D02*
X15728000Y-10688000D01*
D12*
X3479714Y-19155115D02*
X3479714Y-18955115D01*
X3479714Y-18955115D02*
X3527333Y-18955115D01*
X3527333Y-18955115D02*
X3555904Y-18964639D01*
X3555904Y-18964639D02*
X3574952Y-18983687D01*
X3574952Y-18983687D02*
X3584475Y-19002734D01*
X3584475Y-19002734D02*
X3593999Y-19040830D01*
X3593999Y-19040830D02*
X3593999Y-19069401D01*
X3593999Y-19069401D02*
X3584475Y-19107496D01*
X3584475Y-19107496D02*
X3574952Y-19126544D01*
X3574952Y-19126544D02*
X3555904Y-19145592D01*
X3555904Y-19145592D02*
X3527333Y-19155115D01*
X3527333Y-19155115D02*
X3479714Y-19155115D01*
X3679714Y-19155115D02*
X3679714Y-19021782D01*
X3679714Y-19059877D02*
X3689237Y-19040830D01*
X3689237Y-19040830D02*
X3698761Y-19031306D01*
X3698761Y-19031306D02*
X3717809Y-19021782D01*
X3717809Y-19021782D02*
X3736856Y-19021782D01*
X3803523Y-19155115D02*
X3803523Y-19021782D01*
X3803523Y-18955115D02*
X3793999Y-18964639D01*
X3793999Y-18964639D02*
X3803523Y-18974163D01*
X3803523Y-18974163D02*
X3813047Y-18964639D01*
X3813047Y-18964639D02*
X3803523Y-18955115D01*
X3803523Y-18955115D02*
X3803523Y-18974163D01*
X3927333Y-19155115D02*
X3908285Y-19145592D01*
X3908285Y-19145592D02*
X3898761Y-19126544D01*
X3898761Y-19126544D02*
X3898761Y-18955115D01*
X4032094Y-19155115D02*
X4013047Y-19145592D01*
X4013047Y-19145592D02*
X4003523Y-19126544D01*
X4003523Y-19126544D02*
X4003523Y-18955115D01*
X4260666Y-19155115D02*
X4260666Y-18955115D01*
X4260666Y-18955115D02*
X4327333Y-19097972D01*
X4327333Y-19097972D02*
X4393999Y-18955115D01*
X4393999Y-18955115D02*
X4393999Y-19155115D01*
X4574952Y-19155115D02*
X4574952Y-19050353D01*
X4574952Y-19050353D02*
X4565428Y-19031306D01*
X4565428Y-19031306D02*
X4546380Y-19021782D01*
X4546380Y-19021782D02*
X4508285Y-19021782D01*
X4508285Y-19021782D02*
X4489237Y-19031306D01*
X4574952Y-19145592D02*
X4555904Y-19155115D01*
X4555904Y-19155115D02*
X4508285Y-19155115D01*
X4508285Y-19155115D02*
X4489237Y-19145592D01*
X4489237Y-19145592D02*
X4479714Y-19126544D01*
X4479714Y-19126544D02*
X4479714Y-19107496D01*
X4479714Y-19107496D02*
X4489237Y-19088449D01*
X4489237Y-19088449D02*
X4508285Y-19078925D01*
X4508285Y-19078925D02*
X4555904Y-19078925D01*
X4555904Y-19078925D02*
X4574952Y-19069401D01*
X4670190Y-19021782D02*
X4670190Y-19221782D01*
X4670190Y-19031306D02*
X4689237Y-19021782D01*
X4689237Y-19021782D02*
X4727333Y-19021782D01*
X4727333Y-19021782D02*
X4746380Y-19031306D01*
X4746380Y-19031306D02*
X4755904Y-19040830D01*
X4755904Y-19040830D02*
X4765428Y-19059877D01*
X4765428Y-19059877D02*
X4765428Y-19117020D01*
X4765428Y-19117020D02*
X4755904Y-19136068D01*
X4755904Y-19136068D02*
X4746380Y-19145592D01*
X4746380Y-19145592D02*
X4727333Y-19155115D01*
X4727333Y-19155115D02*
X4689237Y-19155115D01*
X4689237Y-19155115D02*
X4670190Y-19145592D01*
X4851142Y-19136068D02*
X4860666Y-19145592D01*
X4860666Y-19145592D02*
X4851142Y-19155115D01*
X4851142Y-19155115D02*
X4841618Y-19145592D01*
X4841618Y-19145592D02*
X4851142Y-19136068D01*
X4851142Y-19136068D02*
X4851142Y-19155115D01*
X4851142Y-19031306D02*
X4860666Y-19040830D01*
X4860666Y-19040830D02*
X4851142Y-19050353D01*
X4851142Y-19050353D02*
X4841618Y-19040830D01*
X4841618Y-19040830D02*
X4851142Y-19031306D01*
X4851142Y-19031306D02*
X4851142Y-19050353D01*
D10*
X3178937Y-19463632D02*
X3218937Y-19503632D01*
X3218937Y-19463632D02*
X3178937Y-19503632D01*
D12*
X3517809Y-19375115D02*
X3536856Y-19375115D01*
X3536856Y-19375115D02*
X3555904Y-19384639D01*
X3555904Y-19384639D02*
X3565428Y-19394163D01*
X3565428Y-19394163D02*
X3574952Y-19413211D01*
X3574952Y-19413211D02*
X3584475Y-19451306D01*
X3584475Y-19451306D02*
X3584475Y-19498925D01*
X3584475Y-19498925D02*
X3574952Y-19537020D01*
X3574952Y-19537020D02*
X3565428Y-19556068D01*
X3565428Y-19556068D02*
X3555904Y-19565592D01*
X3555904Y-19565592D02*
X3536856Y-19575115D01*
X3536856Y-19575115D02*
X3517809Y-19575115D01*
X3517809Y-19575115D02*
X3498761Y-19565592D01*
X3498761Y-19565592D02*
X3489237Y-19556068D01*
X3489237Y-19556068D02*
X3479714Y-19537020D01*
X3479714Y-19537020D02*
X3470190Y-19498925D01*
X3470190Y-19498925D02*
X3470190Y-19451306D01*
X3470190Y-19451306D02*
X3479714Y-19413211D01*
X3479714Y-19413211D02*
X3489237Y-19394163D01*
X3489237Y-19394163D02*
X3498761Y-19384639D01*
X3498761Y-19384639D02*
X3517809Y-19375115D01*
X3670190Y-19556068D02*
X3679714Y-19565592D01*
X3679714Y-19565592D02*
X3670190Y-19575115D01*
X3670190Y-19575115D02*
X3660666Y-19565592D01*
X3660666Y-19565592D02*
X3670190Y-19556068D01*
X3670190Y-19556068D02*
X3670190Y-19575115D01*
X3851142Y-19441782D02*
X3851142Y-19575115D01*
X3803523Y-19365592D02*
X3755904Y-19508449D01*
X3755904Y-19508449D02*
X3879714Y-19508449D01*
X3993999Y-19375115D02*
X4013047Y-19375115D01*
X4013047Y-19375115D02*
X4032095Y-19384639D01*
X4032095Y-19384639D02*
X4041618Y-19394163D01*
X4041618Y-19394163D02*
X4051142Y-19413211D01*
X4051142Y-19413211D02*
X4060666Y-19451306D01*
X4060666Y-19451306D02*
X4060666Y-19498925D01*
X4060666Y-19498925D02*
X4051142Y-19537020D01*
X4051142Y-19537020D02*
X4041618Y-19556068D01*
X4041618Y-19556068D02*
X4032095Y-19565592D01*
X4032095Y-19565592D02*
X4013047Y-19575115D01*
X4013047Y-19575115D02*
X3993999Y-19575115D01*
X3993999Y-19575115D02*
X3974952Y-19565592D01*
X3974952Y-19565592D02*
X3965428Y-19556068D01*
X3965428Y-19556068D02*
X3955904Y-19537020D01*
X3955904Y-19537020D02*
X3946380Y-19498925D01*
X3946380Y-19498925D02*
X3946380Y-19451306D01*
X3946380Y-19451306D02*
X3955904Y-19413211D01*
X3955904Y-19413211D02*
X3965428Y-19394163D01*
X3965428Y-19394163D02*
X3974952Y-19384639D01*
X3974952Y-19384639D02*
X3993999Y-19375115D01*
X4184475Y-19375115D02*
X4203523Y-19375115D01*
X4203523Y-19375115D02*
X4222571Y-19384639D01*
X4222571Y-19384639D02*
X4232095Y-19394163D01*
X4232095Y-19394163D02*
X4241618Y-19413211D01*
X4241618Y-19413211D02*
X4251142Y-19451306D01*
X4251142Y-19451306D02*
X4251142Y-19498925D01*
X4251142Y-19498925D02*
X4241618Y-19537020D01*
X4241618Y-19537020D02*
X4232095Y-19556068D01*
X4232095Y-19556068D02*
X4222571Y-19565592D01*
X4222571Y-19565592D02*
X4203523Y-19575115D01*
X4203523Y-19575115D02*
X4184475Y-19575115D01*
X4184475Y-19575115D02*
X4165428Y-19565592D01*
X4165428Y-19565592D02*
X4155904Y-19556068D01*
X4155904Y-19556068D02*
X4146380Y-19537020D01*
X4146380Y-19537020D02*
X4136856Y-19498925D01*
X4136856Y-19498925D02*
X4136856Y-19451306D01*
X4136856Y-19451306D02*
X4146380Y-19413211D01*
X4146380Y-19413211D02*
X4155904Y-19394163D01*
X4155904Y-19394163D02*
X4165428Y-19384639D01*
X4165428Y-19384639D02*
X4184475Y-19375115D01*
X4336857Y-19575115D02*
X4336857Y-19441782D01*
X4336857Y-19460830D02*
X4346380Y-19451306D01*
X4346380Y-19451306D02*
X4365428Y-19441782D01*
X4365428Y-19441782D02*
X4393999Y-19441782D01*
X4393999Y-19441782D02*
X4413047Y-19451306D01*
X4413047Y-19451306D02*
X4422571Y-19470353D01*
X4422571Y-19470353D02*
X4422571Y-19575115D01*
X4422571Y-19470353D02*
X4432095Y-19451306D01*
X4432095Y-19451306D02*
X4451142Y-19441782D01*
X4451142Y-19441782D02*
X4479714Y-19441782D01*
X4479714Y-19441782D02*
X4498761Y-19451306D01*
X4498761Y-19451306D02*
X4508285Y-19470353D01*
X4508285Y-19470353D02*
X4508285Y-19575115D01*
X4603523Y-19575115D02*
X4603523Y-19441782D01*
X4603523Y-19460830D02*
X4613047Y-19451306D01*
X4613047Y-19451306D02*
X4632095Y-19441782D01*
X4632095Y-19441782D02*
X4660666Y-19441782D01*
X4660666Y-19441782D02*
X4679714Y-19451306D01*
X4679714Y-19451306D02*
X4689238Y-19470353D01*
X4689238Y-19470353D02*
X4689238Y-19575115D01*
X4689238Y-19470353D02*
X4698761Y-19451306D01*
X4698761Y-19451306D02*
X4717809Y-19441782D01*
X4717809Y-19441782D02*
X4746380Y-19441782D01*
X4746380Y-19441782D02*
X4765428Y-19451306D01*
X4765428Y-19451306D02*
X4774952Y-19470353D01*
X4774952Y-19470353D02*
X4774952Y-19575115D01*
X5165428Y-19365592D02*
X4994000Y-19622734D01*
X5422571Y-19375115D02*
X5441619Y-19375115D01*
X5441619Y-19375115D02*
X5460666Y-19384639D01*
X5460666Y-19384639D02*
X5470190Y-19394163D01*
X5470190Y-19394163D02*
X5479714Y-19413211D01*
X5479714Y-19413211D02*
X5489238Y-19451306D01*
X5489238Y-19451306D02*
X5489238Y-19498925D01*
X5489238Y-19498925D02*
X5479714Y-19537020D01*
X5479714Y-19537020D02*
X5470190Y-19556068D01*
X5470190Y-19556068D02*
X5460666Y-19565592D01*
X5460666Y-19565592D02*
X5441619Y-19575115D01*
X5441619Y-19575115D02*
X5422571Y-19575115D01*
X5422571Y-19575115D02*
X5403523Y-19565592D01*
X5403523Y-19565592D02*
X5394000Y-19556068D01*
X5394000Y-19556068D02*
X5384476Y-19537020D01*
X5384476Y-19537020D02*
X5374952Y-19498925D01*
X5374952Y-19498925D02*
X5374952Y-19451306D01*
X5374952Y-19451306D02*
X5384476Y-19413211D01*
X5384476Y-19413211D02*
X5394000Y-19394163D01*
X5394000Y-19394163D02*
X5403523Y-19384639D01*
X5403523Y-19384639D02*
X5422571Y-19375115D01*
X5574952Y-19556068D02*
X5584476Y-19565592D01*
X5584476Y-19565592D02*
X5574952Y-19575115D01*
X5574952Y-19575115D02*
X5565428Y-19565592D01*
X5565428Y-19565592D02*
X5574952Y-19556068D01*
X5574952Y-19556068D02*
X5574952Y-19575115D01*
X5708285Y-19375115D02*
X5727333Y-19375115D01*
X5727333Y-19375115D02*
X5746380Y-19384639D01*
X5746380Y-19384639D02*
X5755904Y-19394163D01*
X5755904Y-19394163D02*
X5765428Y-19413211D01*
X5765428Y-19413211D02*
X5774952Y-19451306D01*
X5774952Y-19451306D02*
X5774952Y-19498925D01*
X5774952Y-19498925D02*
X5765428Y-19537020D01*
X5765428Y-19537020D02*
X5755904Y-19556068D01*
X5755904Y-19556068D02*
X5746380Y-19565592D01*
X5746380Y-19565592D02*
X5727333Y-19575115D01*
X5727333Y-19575115D02*
X5708285Y-19575115D01*
X5708285Y-19575115D02*
X5689238Y-19565592D01*
X5689238Y-19565592D02*
X5679714Y-19556068D01*
X5679714Y-19556068D02*
X5670190Y-19537020D01*
X5670190Y-19537020D02*
X5660666Y-19498925D01*
X5660666Y-19498925D02*
X5660666Y-19451306D01*
X5660666Y-19451306D02*
X5670190Y-19413211D01*
X5670190Y-19413211D02*
X5679714Y-19394163D01*
X5679714Y-19394163D02*
X5689238Y-19384639D01*
X5689238Y-19384639D02*
X5708285Y-19375115D01*
X5965428Y-19575115D02*
X5851142Y-19575115D01*
X5908285Y-19575115D02*
X5908285Y-19375115D01*
X5908285Y-19375115D02*
X5889238Y-19403687D01*
X5889238Y-19403687D02*
X5870190Y-19422734D01*
X5870190Y-19422734D02*
X5851142Y-19432258D01*
X6146380Y-19375115D02*
X6051142Y-19375115D01*
X6051142Y-19375115D02*
X6041619Y-19470353D01*
X6041619Y-19470353D02*
X6051142Y-19460830D01*
X6051142Y-19460830D02*
X6070190Y-19451306D01*
X6070190Y-19451306D02*
X6117809Y-19451306D01*
X6117809Y-19451306D02*
X6136857Y-19460830D01*
X6136857Y-19460830D02*
X6146380Y-19470353D01*
X6146380Y-19470353D02*
X6155904Y-19489401D01*
X6155904Y-19489401D02*
X6155904Y-19537020D01*
X6155904Y-19537020D02*
X6146380Y-19556068D01*
X6146380Y-19556068D02*
X6136857Y-19565592D01*
X6136857Y-19565592D02*
X6117809Y-19575115D01*
X6117809Y-19575115D02*
X6070190Y-19575115D01*
X6070190Y-19575115D02*
X6051142Y-19565592D01*
X6051142Y-19565592D02*
X6041619Y-19556068D01*
X6222571Y-19375115D02*
X6355904Y-19375115D01*
X6355904Y-19375115D02*
X6270190Y-19575115D01*
X6422571Y-19375115D02*
X6422571Y-19413211D01*
X6498761Y-19375115D02*
X6498761Y-19413211D01*
X6794000Y-19651306D02*
X6784476Y-19641782D01*
X6784476Y-19641782D02*
X6765428Y-19613211D01*
X6765428Y-19613211D02*
X6755904Y-19594163D01*
X6755904Y-19594163D02*
X6746381Y-19565592D01*
X6746381Y-19565592D02*
X6736857Y-19517972D01*
X6736857Y-19517972D02*
X6736857Y-19479877D01*
X6736857Y-19479877D02*
X6746381Y-19432258D01*
X6746381Y-19432258D02*
X6755904Y-19403687D01*
X6755904Y-19403687D02*
X6765428Y-19384639D01*
X6765428Y-19384639D02*
X6784476Y-19356068D01*
X6784476Y-19356068D02*
X6794000Y-19346544D01*
X6974952Y-19575115D02*
X6860666Y-19575115D01*
X6917809Y-19575115D02*
X6917809Y-19375115D01*
X6917809Y-19375115D02*
X6898761Y-19403687D01*
X6898761Y-19403687D02*
X6879714Y-19422734D01*
X6879714Y-19422734D02*
X6860666Y-19432258D01*
X7165428Y-19575115D02*
X7051142Y-19575115D01*
X7108285Y-19575115D02*
X7108285Y-19375115D01*
X7108285Y-19375115D02*
X7089238Y-19403687D01*
X7089238Y-19403687D02*
X7070190Y-19422734D01*
X7070190Y-19422734D02*
X7051142Y-19432258D01*
X7346381Y-19375115D02*
X7251142Y-19375115D01*
X7251142Y-19375115D02*
X7241619Y-19470353D01*
X7241619Y-19470353D02*
X7251142Y-19460830D01*
X7251142Y-19460830D02*
X7270190Y-19451306D01*
X7270190Y-19451306D02*
X7317809Y-19451306D01*
X7317809Y-19451306D02*
X7336857Y-19460830D01*
X7336857Y-19460830D02*
X7346381Y-19470353D01*
X7346381Y-19470353D02*
X7355904Y-19489401D01*
X7355904Y-19489401D02*
X7355904Y-19537020D01*
X7355904Y-19537020D02*
X7346381Y-19556068D01*
X7346381Y-19556068D02*
X7336857Y-19565592D01*
X7336857Y-19565592D02*
X7317809Y-19575115D01*
X7317809Y-19575115D02*
X7270190Y-19575115D01*
X7270190Y-19575115D02*
X7251142Y-19565592D01*
X7251142Y-19565592D02*
X7241619Y-19556068D01*
X7594000Y-19575115D02*
X7594000Y-19375115D01*
X7679714Y-19575115D02*
X7679714Y-19470353D01*
X7679714Y-19470353D02*
X7670190Y-19451306D01*
X7670190Y-19451306D02*
X7651143Y-19441782D01*
X7651143Y-19441782D02*
X7622571Y-19441782D01*
X7622571Y-19441782D02*
X7603523Y-19451306D01*
X7603523Y-19451306D02*
X7594000Y-19460830D01*
X7803523Y-19575115D02*
X7784476Y-19565592D01*
X7784476Y-19565592D02*
X7774952Y-19556068D01*
X7774952Y-19556068D02*
X7765428Y-19537020D01*
X7765428Y-19537020D02*
X7765428Y-19479877D01*
X7765428Y-19479877D02*
X7774952Y-19460830D01*
X7774952Y-19460830D02*
X7784476Y-19451306D01*
X7784476Y-19451306D02*
X7803523Y-19441782D01*
X7803523Y-19441782D02*
X7832095Y-19441782D01*
X7832095Y-19441782D02*
X7851143Y-19451306D01*
X7851143Y-19451306D02*
X7860666Y-19460830D01*
X7860666Y-19460830D02*
X7870190Y-19479877D01*
X7870190Y-19479877D02*
X7870190Y-19537020D01*
X7870190Y-19537020D02*
X7860666Y-19556068D01*
X7860666Y-19556068D02*
X7851143Y-19565592D01*
X7851143Y-19565592D02*
X7832095Y-19575115D01*
X7832095Y-19575115D02*
X7803523Y-19575115D01*
X7984476Y-19575115D02*
X7965428Y-19565592D01*
X7965428Y-19565592D02*
X7955904Y-19546544D01*
X7955904Y-19546544D02*
X7955904Y-19375115D01*
X8136857Y-19565592D02*
X8117809Y-19575115D01*
X8117809Y-19575115D02*
X8079714Y-19575115D01*
X8079714Y-19575115D02*
X8060666Y-19565592D01*
X8060666Y-19565592D02*
X8051143Y-19546544D01*
X8051143Y-19546544D02*
X8051143Y-19470353D01*
X8051143Y-19470353D02*
X8060666Y-19451306D01*
X8060666Y-19451306D02*
X8079714Y-19441782D01*
X8079714Y-19441782D02*
X8117809Y-19441782D01*
X8117809Y-19441782D02*
X8136857Y-19451306D01*
X8136857Y-19451306D02*
X8146381Y-19470353D01*
X8146381Y-19470353D02*
X8146381Y-19489401D01*
X8146381Y-19489401D02*
X8051143Y-19508449D01*
X8222571Y-19565592D02*
X8241619Y-19575115D01*
X8241619Y-19575115D02*
X8279714Y-19575115D01*
X8279714Y-19575115D02*
X8298762Y-19565592D01*
X8298762Y-19565592D02*
X8308285Y-19546544D01*
X8308285Y-19546544D02*
X8308285Y-19537020D01*
X8308285Y-19537020D02*
X8298762Y-19517972D01*
X8298762Y-19517972D02*
X8279714Y-19508449D01*
X8279714Y-19508449D02*
X8251143Y-19508449D01*
X8251143Y-19508449D02*
X8232095Y-19498925D01*
X8232095Y-19498925D02*
X8222571Y-19479877D01*
X8222571Y-19479877D02*
X8222571Y-19470353D01*
X8222571Y-19470353D02*
X8232095Y-19451306D01*
X8232095Y-19451306D02*
X8251143Y-19441782D01*
X8251143Y-19441782D02*
X8279714Y-19441782D01*
X8279714Y-19441782D02*
X8298762Y-19451306D01*
X8374952Y-19651306D02*
X8384476Y-19641782D01*
X8384476Y-19641782D02*
X8403524Y-19613211D01*
X8403524Y-19613211D02*
X8413047Y-19594163D01*
X8413047Y-19594163D02*
X8422571Y-19565592D01*
X8422571Y-19565592D02*
X8432095Y-19517972D01*
X8432095Y-19517972D02*
X8432095Y-19479877D01*
X8432095Y-19479877D02*
X8422571Y-19432258D01*
X8422571Y-19432258D02*
X8413047Y-19403687D01*
X8413047Y-19403687D02*
X8403524Y-19384639D01*
X8403524Y-19384639D02*
X8384476Y-19356068D01*
X8384476Y-19356068D02*
X8374952Y-19346544D01*
M02*
